<svg width="11" height="12" viewBox="0 0 11 12" fill="none" xmlns="http://www.w3.org/2000/svg">
<path d="M3.35242 0.0996094C3.08157 0.0996094 2.85654 0.341948 2.85654 0.633638V1.07278H2.62291C1.49442 1.07278 0.584092 2.07914 0.584092 3.31379V3.82694H10.5839V3.31379C10.5839 2.07917 9.67337 1.07278 8.54478 1.07278H8.31116V0.633638C8.31116 0.341948 8.08632 0.0996094 7.81547 0.0996094H7.26039C6.98953 0.0996094 6.7646 0.341948 6.7646 0.633638V1.07278H4.40289V0.633638C4.40289 0.341948 4.17805 0.0996094 3.9072 0.0996094H3.35242ZM3.35242 0.569889H3.90731C3.94387 0.569889 3.9665 0.594256 3.9665 0.633636V1.96459C3.9665 2.00397 3.94387 2.02834 3.90731 2.02834L3.35242 2.02844C3.31585 2.02844 3.29323 2.00407 3.29323 1.96469V0.633738C3.29323 0.594359 3.31585 0.569991 3.35242 0.569991V0.569889ZM7.26054 0.569889H7.81562C7.85219 0.569889 7.87463 0.594256 7.87463 0.633636V1.96459C7.87463 2.00397 7.85219 2.02834 7.81562 2.02834H7.26054C7.22398 2.02834 7.20144 2.00397 7.20144 1.96459V0.633636C7.20144 0.594257 7.22398 0.569889 7.26054 0.569889ZM0.583984 4.29696V9.60066C0.583984 10.8353 1.49432 11.8419 2.62281 11.8419H8.54487C9.67336 11.8419 10.584 10.8353 10.584 9.60066V4.29696H0.583984ZM2.54853 5.45509H3.13922C3.46651 5.45509 3.72991 5.73885 3.72991 6.09121V6.72734C3.72991 7.07981 3.46641 7.36347 3.13922 7.36347L2.54863 7.36357C2.22134 7.36357 1.95794 7.07981 1.95794 6.72745V6.09132C1.95794 5.73885 2.22144 5.45519 2.54863 5.45519L2.54853 5.45509ZM5.13366 5.45509H5.72435C6.05164 5.45509 6.31504 5.73885 6.31504 6.09121V6.72734C6.31504 7.07981 6.05164 7.36347 5.72435 7.36347H5.13366C4.80637 7.36347 4.54297 7.0797 4.54297 6.72734V6.09121C4.54297 5.73875 4.80637 5.45509 5.13366 5.45509ZM7.71879 5.45509H8.30948C8.63677 5.45509 8.90017 5.73885 8.90017 6.09121V6.72734C8.90017 7.07981 8.63667 7.36347 8.30948 7.36347H7.71879C7.3915 7.36347 7.1281 7.0797 7.1281 6.72734V6.09121C7.1281 5.73875 7.3915 5.45509 7.71879 5.45509ZM2.54853 8.14326H3.13922C3.46651 8.14326 3.72991 8.42703 3.72991 8.77939V9.41552C3.72991 9.76798 3.46641 10.0516 3.13922 10.0516H2.54853C2.22124 10.0516 1.95784 9.76788 1.95784 9.41552V8.77939C1.95784 8.42692 2.22134 8.14326 2.54853 8.14326ZM5.13366 8.14326H5.72435C6.05164 8.14326 6.31504 8.42703 6.31504 8.77939V9.41552C6.31504 9.76798 6.05164 10.0516 5.72435 10.0516H5.13366C4.80637 10.0516 4.54297 9.76788 4.54297 9.41552V8.77939C4.54297 8.42692 4.80637 8.14326 5.13366 8.14326Z" fill="#FFA412"/>
</svg>
