<svg width="19" height="19" viewBox="0 0 19 19" fill="none" xmlns="http://www.w3.org/2000/svg">
<path d="M4.10807 0.970703C3.87811 0.970703 3.57426 0.970397 3.19927 1.05226C2.83287 1.13413 2.54373 1.2163 2.33063 1.29817C1.90444 1.54346 1.45219 2.03404 0.974794 2.93333C0.766297 3.28624 0.610538 3.65847 0.501997 4.0399C0.501078 4.04327 0.499851 4.04633 0.498931 4.0494C0.458458 4.1932 0.432703 4.33915 0.406334 4.4854C0.394376 4.55102 0.375366 4.61602 0.366475 4.68194C0.351451 4.7914 0.349611 4.9024 0.342559 5.01247C0.336733 5.10445 0.323242 5.19797 0.323242 5.28873C0.323242 5.29149 0.323242 5.29394 0.323242 5.2967C0.323242 5.29946 0.323242 5.30191 0.323242 5.30467C0.323242 5.54996 0.33612 5.71247 0.361569 5.95776C0.395603 6.20305 0.4511 6.44864 0.527753 6.69393C0.604406 6.96682 0.663889 7.17041 0.706508 7.30716C0.744528 7.40221 0.831606 7.62266 0.915618 7.83883C0.940147 7.90321 0.946586 7.92928 0.974794 8.00164C1.10265 8.32879 1.1793 8.5747 1.20475 8.65625C1.36848 9.10513 1.55368 9.52305 1.75083 9.92257C1.91088 10.2601 2.07891 10.5848 2.26502 10.8838C2.69704 11.5847 3.24434 12.2954 3.87964 13.0221C4.23071 13.4382 4.60233 13.8613 5.01503 14.2979C5.79106 15.0586 6.5484 15.7007 7.29071 16.2446C7.66263 16.5261 8.0321 16.7901 8.39727 17.016C8.77839 17.254 9.20182 17.4704 9.6461 17.674C9.83283 17.7608 10.0251 17.8408 10.2225 17.9135C10.3657 17.9705 10.4973 18.0361 10.6457 18.0892C10.7226 18.1146 10.9179 18.1907 11.2589 18.3192C11.3867 18.367 11.4272 18.3802 11.5272 18.4151C11.6293 18.4571 11.7176 18.4893 11.7906 18.5093C11.8387 18.5261 11.9414 18.5617 11.9742 18.5749C12.022 18.5899 12.1251 18.6181 12.1898 18.6371C12.3084 18.6895 12.4081 18.7429 12.5825 18.7953C12.7107 18.7953 12.8303 18.8156 12.945 18.8432C12.9652 18.8484 12.986 18.8542 13.0057 18.8591C13.1127 18.8882 13.2172 18.9216 13.3123 18.9581H13.9893C13.9902 18.9581 13.9914 18.9581 13.9923 18.9581C14.7763 18.9581 15.5674 18.7542 16.3686 18.3195C17.2296 17.8411 17.748 17.392 17.9271 16.9652C17.9759 16.8551 18.02 16.722 18.0629 16.5708C18.0632 16.5693 18.0642 16.5675 18.0645 16.5659C18.1092 16.4228 18.1525 16.2599 18.1954 16.0965C18.2803 15.6878 18.3232 15.4428 18.3232 15.1975C18.3232 15.0341 18.3104 14.9519 18.2849 14.8701C18.2785 14.8603 18.2306 14.8271 18.2162 14.8124C18.1485 14.733 18.0415 14.6432 17.8762 14.5377C17.8737 14.5423 17.8691 14.5475 17.8667 14.5521C17.7152 14.4525 17.5518 14.3464 17.3126 14.2151C17.1508 14.1333 16.9211 13.9699 16.6228 13.8064C16.3244 13.643 16.0522 13.5611 15.805 13.3977C15.5662 13.2343 15.3396 13.1524 15.1262 12.989C15.0919 12.989 14.9858 12.9081 14.8067 12.7446C14.6276 12.6628 14.4753 12.5806 14.3468 12.4987C14.2275 12.4169 14.1085 12.4172 13.989 12.4172C13.8188 12.4172 13.6054 12.4993 13.3503 12.7446C13.0943 12.9899 12.8585 13.3171 12.646 13.5624C12.4326 13.8895 12.2075 14.1348 11.969 14.3801C11.7305 14.6254 11.5342 14.7076 11.3812 14.7076C11.3043 14.7076 11.2052 14.7063 11.0857 14.6245C10.9753 14.6245 10.8897 14.5429 10.8302 14.5429C10.7708 14.5429 10.6684 14.4617 10.5236 14.3801C10.3789 14.2982 10.298 14.2158 10.2808 14.2158C9.11321 13.5618 8.11182 12.8265 7.27691 12.0088C6.442 11.191 5.7 10.1289 5.05243 8.98402C5.04385 8.98402 4.99295 8.90155 4.89913 8.73812C4.81389 8.5747 4.75441 8.49252 4.72037 8.41066C4.69492 8.41066 4.66089 8.32971 4.61827 8.16629C4.57565 8.08442 4.5545 8.00225 4.5545 7.92038C4.5545 7.75696 4.67346 7.51106 4.91231 7.26577C5.15944 7.02048 5.42313 6.85797 5.70429 6.61268C5.99404 6.44926 6.25926 6.20335 6.49811 5.95806C6.74524 5.63091 6.8685 5.4684 6.8685 5.30498C6.8685 5.14155 6.83876 5.05969 6.77897 4.89626C6.71918 4.8144 6.62566 4.65097 6.49781 4.48755C6.37853 4.24226 6.30617 4.16009 6.28073 4.16009C6.15287 3.9148 6.01949 3.6692 5.88305 3.42391C5.74661 3.17862 5.5979 2.93333 5.43601 2.60617C5.27412 2.36088 5.14656 2.11498 5.05274 1.95156C4.75441 1.37911 4.52905 1.05288 4.37574 0.97101L4.10807 0.970703Z" fill="#FFA412"/>
</svg>
