<svg width="58" height="55" viewBox="0 0 58 55" fill="none" xmlns="http://www.w3.org/2000/svg">
<rect x="0.137695" y="0.539062" width="57.7246" height="54" rx="10" fill="#FFA412"/>
<path fill-rule="evenodd" clip-rule="evenodd" d="M17.7167 14.5879H40.2823C42.7425 14.5879 44.7513 16.6325 44.7513 19.1378V23.831L31.799 33.5134L22.7868 24.5303C22.3756 24.0858 21.6904 24.029 21.2122 24.416L13.248 30.8652V19.1378C13.248 16.6337 15.2573 14.5879 17.7167 14.5879ZM44.7513 26.7784V35.9394C44.7513 38.4447 42.7425 40.4893 40.2823 40.4893H38.4687C38.4309 40.2469 38.3198 40.0143 38.135 39.8294L33.4886 35.1981L44.7513 26.7784ZM35.4632 40.4893H17.7167C15.2628 40.4893 13.248 38.4392 13.248 35.9394V33.9016L21.8588 26.9288L35.4632 40.4893ZM19.2006 18.3897C20.6041 18.3897 21.7415 19.5478 21.7415 20.9768C21.7415 22.4055 20.6041 23.5635 19.2006 23.5635C17.7974 23.5635 16.6601 22.4055 16.6601 20.9768C16.6601 19.5478 17.7974 18.3897 19.2006 18.3897Z" fill="white"/>
</svg>
