<svg width="21" height="15" viewBox="0 0 21 15" fill="none" xmlns="http://www.w3.org/2000/svg">
<path d="M18.2989 7.16125H17.9211C17.5433 3.65011 14.5433 0.894531 10.9433 0.894531H10.721C7.09869 0.894531 4.12093 3.65015 3.74315 7.16125H3.36538C1.96533 7.16125 0.832031 8.29455 0.832031 9.6946C0.832031 11.0947 1.96533 12.228 3.36538 12.228H4.14325C4.3877 12.228 4.58766 12.028 4.58766 11.7835V7.93895C4.58766 4.56111 7.34327 1.80557 10.721 1.80557H10.9433C14.3212 1.80557 17.0767 4.56119 17.0767 7.93895V12.3168C17.0767 13.0723 16.4767 13.6723 15.7211 13.6723H13.0545V13.2946C13.0545 12.5612 12.4544 11.9612 11.7211 11.9612C10.9877 11.9612 10.3876 12.5612 10.3876 13.2946V14.1168C10.3876 14.3612 10.5876 14.5612 10.8321 14.5612H15.721C16.9654 14.5612 17.9654 13.5612 17.9654 12.3167V12.2279H18.2987C19.6987 12.2279 20.832 11.0946 20.832 9.69457C20.8323 8.29452 19.699 7.16122 18.299 7.16122L18.2989 7.16125ZM1.72095 9.6946C1.72095 8.78344 2.45429 8.05011 3.36545 8.05011H3.69872V11.339H3.36545C2.45429 11.339 1.72095 10.6056 1.72095 9.6946ZM11.2766 13.6724V13.2947C11.2766 13.0502 11.4765 12.8502 11.721 12.8502C11.9654 12.8502 12.1654 13.0502 12.1654 13.2947V13.6724H11.2766ZM18.2989 11.339H17.9656V8.05015H18.2989C19.21 8.05015 19.9434 8.78349 19.9434 9.69464C19.9434 10.6056 19.21 11.339 18.2989 11.339Z" fill="#2967B2" stroke="black" stroke-width="0.3"/>
</svg>
