<svg width="20" height="21" viewBox="0 0 20 21" fill="none" xmlns="http://www.w3.org/2000/svg">
<path d="M10.0416 0.960938C12.7801 0.960938 15.2698 2.03975 17.0955 3.86548C18.9212 5.69121 20 8.18079 20 11.0025C20 13.7411 18.9212 16.2307 17.0955 18.0564C15.2697 19.8821 12.7801 20.9609 10.0416 20.9609C7.22007 20.9609 4.73059 19.8821 2.90454 18.0564C1.07881 16.2307 0 13.7411 0 11.0025C0 8.181 1.07881 5.69153 2.90454 3.86548C4.73027 2.03975 7.21985 0.960938 10.0416 0.960938ZM16.4315 4.5294C14.7718 2.86967 12.5312 1.87389 10.0416 1.87389C7.4691 1.87389 5.22844 2.8697 3.56846 4.5294C1.90873 6.18913 0.912955 8.42971 0.912955 11.0025C0.912955 13.4922 1.90877 15.7329 3.56846 17.3925C5.22819 19.0522 7.46878 20.048 10.0416 20.048C12.5313 20.048 14.7719 19.0522 16.4315 17.3925C18.0913 15.7327 19.087 13.4922 19.087 11.0025C19.087 8.43004 18.0912 6.18938 16.4315 4.5294Z" fill="#3E3E3E"/>
<path d="M5.89209 7.51695C5.72608 7.35093 5.72608 7.01906 5.89209 6.85303C6.0581 6.68701 6.38998 6.68701 6.55601 6.85303L9.95847 10.3385L13.4439 6.85303C13.6099 6.68701 13.9418 6.68701 14.1079 6.85303C14.2739 7.01904 14.2739 7.35091 14.1079 7.51695L10.6224 11.0024L14.1079 14.4049C14.2739 14.5709 14.2739 14.9028 14.1079 15.0688C13.9418 15.2348 13.61 15.2348 13.4439 15.0688L9.95847 11.5833L6.55601 15.0688C6.39 15.2348 6.05812 15.2348 5.89209 15.0688C5.72608 14.9028 5.72608 14.5709 5.89209 14.4049L9.37755 11.0024L5.89209 7.51695Z" fill="#3E3E3E"/>
</svg>
