<svg width="15" height="15" viewBox="0 0 15 15" fill="none" xmlns="http://www.w3.org/2000/svg">
<path fill-rule="evenodd" clip-rule="evenodd" d="M9.5585 7.04014L14.1679 2.43052C14.7147 1.88458 14.7147 0.996973 14.1679 0.45125C13.6211 -0.0957292 12.7354 -0.0957292 12.1886 0.45125L7.57903 5.06067L2.96941 0.45125C2.42265 -0.0957292 1.53692 -0.0957292 0.990155 0.45125C0.443386 0.997182 0.443386 1.88479 0.990155 2.43052L5.59977 7.04014L0.990155 11.6496C0.443386 12.1957 0.443386 13.0833 0.990155 13.629C1.26375 13.9026 1.62198 14.0388 1.98041 14.0388C2.33885 14.0388 2.69708 13.9026 2.97046 13.629L7.58008 9.01941L12.1897 13.629C12.4631 13.9026 12.8213 14.0388 13.1797 14.0388C13.5384 14.0388 13.8964 13.9026 14.17 13.629C14.7168 13.0829 14.7168 12.1953 14.17 11.6496L9.5585 7.04014Z" fill="white"/>
</svg>
