<svg width="29" height="29" viewBox="0 0 29 29" fill="none" xmlns="http://www.w3.org/2000/svg">
<circle opacity="0.6" cx="14.2126" cy="14.4064" r="14.1486" fill="#060606"/>
<path d="M8.45086 13.3287L9.25856 20.5441C9.36625 21.3518 10.0662 21.9441 10.8739 21.9441H17.5509C18.3586 21.9441 19.0586 21.3518 19.1662 20.5441L19.9739 13.3287H8.45086ZM13.1355 20.0595C13.1355 20.3826 12.9201 20.598 12.597 20.598C12.2739 20.598 12.0586 20.3826 12.0586 20.0595V15.2133C12.0586 14.8903 12.2739 14.6749 12.597 14.6749C12.9201 14.6749 13.1355 14.8903 13.1355 15.2133V20.0595ZM16.3662 20.0595C16.3662 20.3826 16.1509 20.598 15.8278 20.598C15.5047 20.598 15.2893 20.3826 15.2893 20.0595V15.2133C15.2893 14.8903 15.5047 14.6749 15.8278 14.6749C16.1509 14.6749 16.3662 14.8903 16.3662 15.2133V20.0595ZM19.597 9.02103H17.4432V8.48257C17.4432 7.56719 16.7432 6.86719 15.8278 6.86719H12.597C11.6816 6.86719 10.9816 7.56719 10.9816 8.48257V9.02103H8.82779C7.9124 9.02103 7.2124 9.72103 7.2124 10.6364C7.2124 11.5518 7.9124 12.2518 8.82779 12.2518H19.597C20.5124 12.2518 21.2124 11.5518 21.2124 10.6364C21.2124 9.72103 20.5124 9.02103 19.597 9.02103ZM12.0586 8.48257C12.0586 8.1595 12.2739 7.94411 12.597 7.94411H15.8278C16.1509 7.94411 16.3662 8.1595 16.3662 8.48257V9.02103H12.0586V8.48257Z" fill="white"/>
</svg>
