<svg width="16" height="22" viewBox="0 0 16 22" fill="none" xmlns="http://www.w3.org/2000/svg">
<path d="M13.3209 2.96795C13.2135 2.85334 13.1008 2.74094 12.9868 2.63391V2.63407C11.5763 1.31181 9.69857 0.603978 7.76632 0.66585C5.83407 0.727721 4.00544 1.55444 2.68241 2.964C-0.227145 5.99083 -0.227792 10.9394 2.68241 13.9959L5.62021 17.0644C3.9704 17.2282 0.723402 17.7295 0.723402 19.1485C0.723402 20.6572 4.4952 21.3437 7.9997 21.3437C9.87101 21.3437 11.6351 21.1516 12.9668 20.8028C14.4995 20.4016 15.2771 19.8451 15.2771 19.1484C15.2771 17.7315 12.0468 17.2296 10.3803 17.065L13.3179 13.9971C16.2266 10.9699 16.2272 6.02081 13.3205 2.96804L13.3209 2.96795ZM14.4906 19.1484C14.4906 19.6267 12.1996 20.5578 7.99993 20.5578C3.80029 20.5578 1.50925 19.6267 1.50925 19.1484C1.50925 18.7952 2.96411 18.0177 6.31836 17.7944L7.71607 19.2545C7.79027 19.3318 7.89272 19.3757 7.99991 19.3757C8.10709 19.3757 8.20955 19.3318 8.28374 19.2545L9.68145 17.7944C12.8831 18.0085 14.4906 18.7722 14.4906 19.1484H14.4906ZM7.99993 18.4145L3.25023 13.4546C0.627203 10.6991 0.626556 6.23814 3.25244 3.50624C4.42946 2.2427 6.06318 1.50282 7.78917 1.4515C7.86131 1.44897 7.93329 1.44771 8.00528 1.44787C9.65715 1.44471 11.2475 2.07443 12.4495 3.20756C12.5513 3.30307 12.6517 3.40347 12.7497 3.50797C15.3727 6.26331 15.3734 10.7245 12.7505 13.4535L7.99993 18.4145Z" fill="#FFA412" stroke="#FFA412" stroke-width="0.4"/>
</svg>
