<svg width="17" height="12" viewBox="0 0 17 12" fill="none" xmlns="http://www.w3.org/2000/svg">
<path d="M1.66495 0.714844C0.827369 0.714844 0.141113 1.4011 0.141113 2.23868V10.2386C0.141113 11.0762 0.827369 11.7625 1.66495 11.7625H14.6173C15.4549 11.7625 16.1411 11.0762 16.1411 10.2386V2.23868C16.1411 1.4011 15.4549 0.714844 14.6173 0.714844H1.66495ZM1.66495 1.47668H14.6173C14.7293 1.47668 14.8321 1.50099 14.9269 1.54218L8.683 7.15508C8.33647 7.46678 7.93379 7.46678 7.5878 7.15508L1.35552 1.54218C1.45025 1.50099 1.55309 1.47668 1.66509 1.47668H1.66495ZM0.908933 2.16718L7.07557 7.72056C7.68023 8.26532 8.58972 8.26464 9.19465 7.72056L15.3732 2.16718C15.3753 2.1911 15.3792 2.21395 15.3792 2.23867V10.2386C15.3792 10.6673 15.0459 11.0005 14.6173 11.0005H1.66501C1.23637 11.0005 0.903177 10.6672 0.903177 10.2386V2.23867C0.903177 2.21395 0.90703 2.19124 0.909156 2.16718H0.908933Z" fill="#A0A0A0"/>
</svg>
