<svg width="20" height="19" viewBox="0 0 20 19" fill="none" xmlns="http://www.w3.org/2000/svg">
<path d="M12.4914 18.1146H17.6859C18.0545 18.1146 18.3525 17.8166 18.3525 17.448V7.51498L18.9552 7.93299C19.0712 8.01305 19.2032 8.05159 19.3339 8.05159C19.5452 8.05159 19.7532 7.95159 19.8825 7.76425C20.0919 7.46158 20.0164 7.04701 19.7139 6.83632L10.3809 0.367965C10.1522 0.210678 9.84952 0.210678 9.62096 0.367965L0.287944 6.83632C-0.0147233 7.04628 -0.0900198 7.46159 0.119943 7.76425C0.329905 8.06691 0.743883 8.14161 1.04787 7.93284L1.65185 7.5156V17.4486C1.65185 17.8172 1.9505 18.1152 2.3185 18.1152H7.51299C7.88098 18.1152 8.17963 17.8172 8.17963 17.4486V12.024C8.17963 11.0187 8.99762 10.2014 10.0022 10.2014C11.0068 10.2014 11.8248 11.0194 11.8248 12.024V17.4486C11.8248 17.8166 12.1234 18.1146 12.4914 18.1146L12.4914 18.1146Z" fill="#6A6A6A"/>
</svg>
