<svg width="30" height="14" viewBox="0 0 30 14" fill="none" xmlns="http://www.w3.org/2000/svg">
<path d="M1.66667 3.40365H28.3334C28.9288 3.40365 29.4789 3.08594 29.7768 2.57031C30.0744 2.05469 30.0744 1.41927 29.7768 0.903646C29.4789 0.388021 28.9288 0.0703125 28.3334 0.0703125H1.66667C1.07118 0.0703125 0.52108 0.388021 0.223238 0.903646C-0.0743809 1.41927 -0.0743809 2.05469 0.223238 2.57031C0.521105 3.08594 1.07118 3.40365 1.66667 3.40365ZM0 11.737C0 11.295 0.175594 10.8709 0.488096 10.5584C0.800598 10.246 1.22473 10.0704 1.66664 10.0704H17.2222C17.8177 10.0704 18.3678 10.3881 18.6656 10.9037C18.9633 11.4193 18.9633 12.0547 18.6656 12.5704C18.3678 13.086 17.8177 13.4037 17.2222 13.4037H1.66664C1.22467 13.4037 0.800541 13.2281 0.488096 12.9156C0.175652 12.6031 0 12.179 0 11.7371V11.737Z" fill="#676767"/>
</svg>
