<svg width="22" height="19" viewBox="0 0 22 19" fill="none" xmlns="http://www.w3.org/2000/svg">
<path fill-rule="evenodd" clip-rule="evenodd" d="M17.5602 2.63538C17.5602 2.41107 17.3777 2.22926 17.1524 2.22926H4.84658C4.62126 2.22926 4.43875 2.41105 4.43875 2.63538V3.34559H17.5602V2.63538ZM16.1642 0.71862C16.1642 0.494311 15.9816 0.3125 15.7563 0.3125H6.24256C6.01723 0.3125 5.83473 0.494296 5.83473 0.71862V1.41724H16.1642V0.71862ZM18.9223 11.5762V11.58H2.90631V11.5794H1.69902L3.42891 8.44184V10.7769H18.5698V8.44184L20.2993 11.5784L18.9223 11.5762ZM14.0856 15.2692C14.0856 15.9208 13.5551 16.4491 12.9006 16.4491H9.09795C8.44346 16.4491 7.91287 15.9208 7.91287 15.2692C7.91287 14.6176 8.44346 14.0893 9.09795 14.0893H12.9006C13.5551 14.0893 14.0856 14.6176 14.0856 15.2692ZM5.7964 9.06447H10.3111C10.5364 9.06447 10.7189 9.24627 10.7189 9.47059C10.7189 9.69476 10.5364 9.87656 10.3111 9.87656H5.7964C5.57107 9.87656 5.38857 9.69477 5.38857 9.47059C5.38857 9.24628 5.57109 9.06447 5.7964 9.06447ZM5.7964 7.43004H7.99596C8.22114 7.43004 8.40379 7.61183 8.40379 7.83616C8.40379 8.06032 8.22112 8.24228 7.99596 8.24228H5.7964C5.57107 8.24228 5.38857 8.06034 5.38857 7.83616C5.38857 7.61185 5.57109 7.43004 5.7964 7.43004ZM14.0369 5.71088C14.0369 5.48657 14.2196 5.30476 14.4447 5.30476H16.4129C16.638 5.30476 16.8207 5.48656 16.8207 5.71088V7.67031C16.8207 7.89462 16.638 8.07643 16.4129 8.07643H14.4447C14.2196 8.07643 14.0369 7.89464 14.0369 7.67031V5.71088ZM21.3273 11.7551L18.5699 6.75422V4.55221C18.5699 4.3279 18.3874 4.14609 18.1621 4.14609H3.83681C3.61163 4.14609 3.42899 4.32788 3.42899 4.55221V6.75437L0.671574 11.7553C0.626304 11.8209 0.599609 11.9001 0.599609 11.9855V18.5531C0.599609 18.7774 0.782278 18.9593 1.00744 18.9593H20.9918C21.2171 18.9593 21.3996 18.7775 21.3996 18.5531V11.9855C21.3996 11.9001 21.3729 11.8207 21.3275 11.7553L21.3273 11.7551Z" fill="#858080"/>
</svg>
