<svg width="18" height="18" viewBox="0 0 18 18" fill="none" xmlns="http://www.w3.org/2000/svg">
<path d="M11.2716 13.1526C10.8107 13.1526 10.4336 13.5297 10.4336 13.9906V15.6667H1.67607V2.2581H10.4336V3.93418C10.4336 4.3951 10.8107 4.77221 11.2716 4.77221C11.7325 4.77221 12.1096 4.3951 12.1096 3.93418V2.2581C12.1096 1.33626 11.3554 0.582031 10.4336 0.582031H1.67607C0.754233 0.582031 0 1.33626 0 2.2581V15.6667C0 16.5885 0.754233 17.3428 1.67607 17.3428H10.4336C11.3554 17.3428 12.1096 16.5885 12.1096 15.6667V13.9906C12.1096 13.5297 11.7325 13.1526 11.2716 13.1526Z" fill="#EB4336"/>
<path d="M17.7665 8.37506L14.3096 4.96006C14.142 4.81341 13.9115 4.75056 13.702 4.77151C13.4716 4.79246 13.283 4.89721 13.1364 5.06482C12.864 5.37908 12.8849 5.84 13.1783 6.19617L15.1476 8.1446H6.78823C6.32731 8.1446 5.9502 8.52172 5.9502 8.98264C5.9502 9.44356 6.32731 9.82068 6.78823 9.82068H15.1267L13.1992 11.7063C13.0316 11.8529 12.9268 12.0624 12.9059 12.2719C12.8849 12.5024 12.9478 12.7119 13.0945 12.8795C13.2411 13.0471 13.4506 13.1519 13.6601 13.1728C13.6811 13.1728 13.702 13.1728 13.723 13.1728C13.9115 13.1728 14.1211 13.11 14.2677 12.9843C14.3096 12.9633 14.3306 12.9214 14.3306 12.9214L17.7456 9.54831C17.9132 9.38071 17.997 9.1712 17.997 8.96169C18.0179 8.73123 17.9341 8.52172 17.7665 8.37506Z" fill="#EB4336"/>
</svg>
