<svg width="24" height="24" viewBox="0 0 24 24" fill="none" xmlns="http://www.w3.org/2000/svg">
<path d="M23.3297 18.0298C23.3372 16.0376 22.3142 14.1835 20.6248 13.1274V9.31384C20.6248 4.69054 16.9524 0.799842 12.4402 0.638442C10.1356 0.554538 7.89567 1.41142 6.23559 3.01216C4.57527 4.61272 3.63729 6.81958 3.63705 9.12556V13.1273C1.95237 14.1796 0.929793 16.0265 0.932133 18.0128V18.7689C0.932133 18.9471 1.00292 19.1179 1.12901 19.244C1.2551 19.3701 1.42596 19.4409 1.60409 19.4409H8.04209C8.25443 20.7457 9.07685 21.8709 10.2555 22.4695C11.4344 23.0681 12.828 23.0681 14.0069 22.4695C15.1856 21.8709 16.008 20.7457 16.2204 19.4409H22.6584C22.8365 19.4409 23.0074 19.3701 23.1335 19.244C23.2596 19.1179 23.3303 18.9471 23.3303 18.7689L23.3297 18.0298ZM12.1307 21.5879C11.5049 21.5869 10.8974 21.3767 10.405 20.9907C9.91234 20.6047 9.56313 20.0651 9.41241 19.4576H14.849C14.6983 20.0651 14.349 20.6046 13.8564 20.9907C13.364 21.3767 12.7565 21.5869 12.1307 21.5879H12.1307ZM21.9857 18.1137H2.27631V18.0298C2.27631 17.2271 2.49522 16.4396 2.90985 15.7522C3.32423 15.0648 3.91839 14.5035 4.62831 14.1289C4.85285 14.014 4.99441 13.7829 4.99441 13.5308V9.12567C4.99511 7.18671 5.78329 5.33115 7.17829 3.98421C8.57329 2.63751 10.4553 1.91493 12.3931 1.98243C16.19 2.11673 19.2811 5.40615 19.2811 9.31383V13.5307C19.2767 13.7831 19.4143 14.0168 19.6374 14.1354C20.3475 14.5104 20.9421 15.0722 21.3565 15.7603C21.7711 16.4484 21.9898 17.2364 21.9893 18.0398L21.9857 18.1137Z" fill="#676767" stroke="#676767" stroke-width="0.5"/>
</svg>
