<svg width="34" height="38" viewBox="0 0 34 38" fill="none" xmlns="http://www.w3.org/2000/svg">
<path d="M13.9737 3.45733C13.9657 3.36546 13.9611 3.27331 13.9611 3.18036C13.9611 2.09447 14.5405 1.09106 15.4809 0.547836C16.4214 0.00488786 17.5801 0.00488786 18.5206 0.547836C19.461 1.09105 20.0404 2.09447 20.0404 3.18036C20.0404 3.27331 20.0358 3.36545 20.0278 3.45733C19.3536 3.36385 18.6738 3.3167 17.9931 3.3167H16.0083C15.3277 3.3167 14.6479 3.36385 13.9737 3.45733H13.9737ZM30.6914 18.0809V18.0806C30.6877 14.7139 29.3486 11.4862 26.9679 9.10529C24.5872 6.72435 21.3595 5.38556 17.9926 5.38179H16.0078C12.6411 5.38554 9.41343 6.72456 7.03249 9.10529C4.65155 11.486 3.31276 14.7137 3.30899 18.0806V26.8207H30.6909L30.6914 18.0809ZM17.0004 37.7321C17.7826 37.731 18.5342 37.4291 19.0993 36.8889C19.6648 36.3483 20.0004 35.6109 20.0363 34.8299H13.9645C14.0004 35.611 14.336 36.3484 14.9015 36.8889C15.4667 37.4291 16.2182 37.731 17.0004 37.7321H17.0004ZM31.923 28.8857H2.07793C1.39998 28.9076 0.782547 29.2821 0.449907 29.873C0.116958 30.4639 0.116958 31.186 0.449907 31.7769C0.782588 32.3681 1.39996 32.7423 2.07793 32.7642H31.923C32.6009 32.7422 33.2183 32.3681 33.551 31.7769C33.8839 31.186 33.8839 30.4639 33.551 29.873C33.2183 29.2821 32.6009 28.9076 31.923 28.8857Z" fill="#FFA412"/>
</svg>
