<svg width="38" height="40" viewBox="0 0 38 40" fill="none" xmlns="http://www.w3.org/2000/svg">
<path fill-rule="evenodd" clip-rule="evenodd" d="M4.07143 0.410156C1.82276 0.410156 0 2.27089 0 4.56641V35.0456C0 37.3411 1.82276 39.2018 4.07143 39.2018H25.7857C28.0344 39.2018 29.8571 37.3411 29.8571 35.0456V28.0328C29.4124 28.0894 28.9596 28.1185 28.5 28.1185C28.0404 28.1185 27.5875 28.0894 27.1429 28.0328V35.0456C27.1429 35.8106 26.5352 36.431 25.7857 36.431H4.07143C3.32197 36.431 2.71429 35.8106 2.71429 35.0456V11.4935H19.0954C20.9727 8.18052 24.4812 5.95182 28.5 5.95182C28.9596 5.95182 29.4125 5.98089 29.8571 6.03748V4.56641C29.8571 2.27089 28.0344 0.410156 25.7857 0.410156H4.07143ZM4.07143 7.33724C4.82089 7.33724 5.42857 6.7169 5.42857 5.95182C5.42857 5.18675 4.82089 4.56641 4.07143 4.56641C3.32197 4.56641 2.71429 5.18675 2.71429 5.95182C2.71429 6.7169 3.32197 7.33724 4.07143 7.33724ZM6.78571 5.95182C6.78571 5.18675 7.3934 4.56641 8.14286 4.56641H12.2143C12.9637 4.56641 13.5714 5.18675 13.5714 5.95182C13.5714 6.7169 12.9637 7.33724 12.2143 7.33724H8.14286C7.3934 7.33724 6.78571 6.7169 6.78571 5.95182Z" fill="#FFA412"/>
<path d="M24.0316 27.1404C23.7701 27.0198 23.5142 26.889 23.2645 26.7483C23.2015 26.739 23.137 26.7344 23.0716 26.7344H6.78585C6.03639 26.7344 5.42871 27.3547 5.42871 28.1198C5.42871 28.8849 6.03639 29.5052 6.78585 29.5052H23.0716C23.821 29.5052 24.4287 28.8849 24.4287 28.1198C24.4287 27.7376 24.2769 27.3912 24.0316 27.1404V27.1404Z" fill="#FFA412"/>
<path d="M21.3188 25.349C20.4393 24.5567 19.6865 23.6212 19.0955 22.5781H6.78585C6.03639 22.5781 5.42871 23.1985 5.42871 23.9635C5.42871 24.7286 6.03639 25.349 6.78585 25.349H21.3188Z" fill="#FFA412"/>
<path d="M18.432 21.1927C18.0854 20.3188 17.8452 19.3898 17.7268 18.4219H6.78585C6.03639 18.4219 5.42871 19.0422 5.42871 19.8073C5.42871 20.5724 6.03639 21.1927 6.78585 21.1927H18.432Z" fill="#FFA412"/>
<path d="M6.78585 14.2656C6.03639 14.2656 5.42871 14.886 5.42871 15.651C5.42871 16.4161 6.03639 17.0365 6.78585 17.0365H8.143C8.89246 17.0365 9.50014 16.4161 9.50014 15.651C9.50014 14.886 8.89246 14.2656 8.143 14.2656H6.78585Z" fill="#FFA412"/>
<path d="M6.78585 30.8867C6.03639 30.8867 5.42871 31.5071 5.42871 32.2721C5.42871 33.0372 6.03639 33.6576 6.78585 33.6576H23.0716C23.821 33.6576 24.4287 33.0372 24.4287 32.2721C24.4287 31.5071 23.821 30.8867 23.0716 30.8867H6.78585Z" fill="#FFA412"/>
<path d="M12.2146 14.2656C11.4651 14.2656 10.8574 14.886 10.8574 15.651C10.8574 16.4161 11.4651 17.0365 12.2146 17.0365H13.5717C14.3212 17.0365 14.9289 16.4161 14.9289 15.651C14.9289 14.886 14.3212 14.2656 13.5717 14.2656H12.2146Z" fill="#FFA412"/>
<path fill-rule="evenodd" clip-rule="evenodd" d="M28.5 7.33594C23.2532 7.33594 19 11.6778 19 17.0339C19 22.39 23.2532 26.7318 28.5 26.7318C33.7468 26.7318 38 22.39 38 17.0339C38 11.6778 33.7468 7.33594 28.5 7.33594ZM28.5 12.1849C29.2495 12.1849 29.8571 12.8052 29.8571 13.5703V16.0959L32.3969 17.1328C33.0928 17.417 33.4315 18.2235 33.1531 18.9339C32.8747 19.6442 32.0846 19.9899 31.3888 19.7057L27.9959 18.3203C27.4809 18.1097 27.1429 17.6004 27.1429 17.0339V13.5703C27.1429 12.8052 27.7505 12.1849 28.5 12.1849Z" fill="#FFA412"/>
</svg>
