<svg width="15" height="18" viewBox="0 0 15 18" fill="none" xmlns="http://www.w3.org/2000/svg">
<path d="M7.14119 0.798828C4.63904 0.798828 2.61182 2.82605 2.61182 5.32819V7.79872H1.37647C0.699196 7.79872 0.141113 8.3568 0.141113 9.03407V16.4458C0.141113 17.123 0.699196 17.6811 1.37647 17.6811H12.9058C13.583 17.6811 14.1411 17.123 14.1411 16.4458V9.03407C14.1411 8.3568 13.583 7.79872 12.9058 7.79872H11.6704V5.32819C11.6704 2.82605 9.64318 0.798828 7.14104 0.798828H7.14119ZM7.14119 1.62228C9.20128 1.62228 10.847 3.26792 10.847 5.32812V7.79865H3.43534V5.32812C3.43534 3.26803 5.08099 1.62228 7.14119 1.62228ZM1.37654 8.6222H12.9058C13.1411 8.6222 13.3176 8.7987 13.3176 9.03393V16.4456C13.3176 16.6808 13.1411 16.8573 12.9058 16.8573H1.37654C1.14131 16.8573 0.964818 16.6808 0.964818 16.4456V9.03393C0.964818 8.79869 1.14132 8.6222 1.37654 8.6222ZM7.14119 10.2693C6.23645 10.2693 5.49411 11.0116 5.49411 11.9164C5.49411 12.3202 5.66271 12.6715 5.90583 12.9587V13.9752C5.90583 14.6524 6.46391 15.2105 7.14119 15.2105C7.81846 15.2105 8.37654 14.6524 8.37654 13.9752V12.9587C8.61967 12.6715 8.78827 12.3204 8.78827 11.9164C8.78827 11.0116 8.04596 10.2693 7.14119 10.2693ZM7.14119 11.0929C7.60089 11.0929 7.96463 11.4566 7.96463 11.9163C7.96463 12.1625 7.85721 12.376 7.68804 12.5275C7.60101 12.6065 7.5519 12.7188 7.5529 12.8363V13.9751C7.5529 14.2104 7.3764 14.3869 7.14118 14.3869C6.90595 14.3869 6.72946 14.2104 6.72946 13.9751V12.8363C6.73046 12.7188 6.68135 12.6065 6.59432 12.5275C6.42514 12.376 6.31772 12.1625 6.31772 11.9163C6.31772 11.4566 6.68149 11.0929 7.14117 11.0929H7.14119Z" fill="#A0A0A0"/>
</svg>
