<svg width="31" height="31" viewBox="0 0 31 31" fill="none" xmlns="http://www.w3.org/2000/svg">
<path d="M13.6535 5.80076C13.6535 8.65499 11.2717 10.9687 8.33352 10.9687C5.39552 10.9687 3.01352 8.65499 3.01352 5.80076C3.01352 2.94652 5.39552 0.632812 8.33352 0.632812C11.2717 0.632812 13.6535 2.94652 13.6535 5.80076Z" fill="white"/>
<path d="M28.2759 17.2607C27.668 16.0751 26.2088 15.6495 25.0536 16.2575L17.332 20.2398C16.4808 19.0239 9.70157 9.69102 3.40877 13.3086C-0.573578 15.5886 1.09842 25.499 2.22317 30.363H15.9032L16.3288 26.8671C16.0552 26.6542 5.68876 18.8415 5.87116 18.5679C6.08406 18.2944 6.44881 18.2638 6.72236 18.4464L16.6328 25.9552L27.2728 20.4528C28.428 19.875 28.8842 18.4159 28.2762 17.2606L28.2759 17.2607Z" fill="white"/>
<path d="M29.7655 7.22936H28.8232C28.7016 6.68227 28.4887 6.13496 28.1846 5.67902L28.9446 4.91902C29.0055 4.85816 29.0358 4.79751 29.0358 4.70612C29.0358 4.61493 29.0055 4.55407 28.9446 4.49321L27.9111 3.45967C27.7896 3.33816 27.607 3.33816 27.4855 3.45967L26.7255 4.25018C26.2999 3.97662 25.8135 3.79426 25.327 3.67252L25.3272 2.66932C25.3272 2.51728 25.2057 2.36523 25.0231 2.36523H23.564C23.4119 2.36523 23.2599 2.48674 23.2599 2.66932V3.64223C22.7431 3.76374 22.2567 3.94632 21.8007 4.21988L20.9495 3.36868C20.828 3.24718 20.6455 3.24718 20.524 3.36868L19.4904 4.40223C19.4599 4.49341 19.4296 4.55406 19.4296 4.64525C19.4296 4.73643 19.4599 4.79729 19.5207 4.85815L20.3416 5.679C20.0375 6.13492 19.7945 6.6822 19.6728 7.25986H18.7304C18.5784 7.25986 18.4264 7.38136 18.4264 7.56394V9.02309C18.4264 9.17513 18.5479 9.32718 18.7304 9.32718H19.6728C19.7943 9.84395 19.9769 10.3304 20.2504 10.756L19.5208 11.4856C19.4599 11.5465 19.4296 11.6071 19.4296 11.6985C19.4296 11.7897 19.4599 11.8506 19.5208 11.9114L20.5543 12.945C20.6152 13.0058 20.6758 13.0362 20.7672 13.0362C20.8584 13.0362 20.9193 13.0058 20.9801 12.945L21.6793 12.2458C22.1657 12.5499 22.7128 12.7929 23.2905 12.9146V13.674C23.2905 13.826 23.412 13.9781 23.5946 13.9781H25.0537C25.2058 13.9781 25.3578 13.8566 25.3578 13.674V12.8228C25.9049 12.7013 26.4219 12.458 26.8778 12.154L27.4858 12.7619C27.5466 12.8228 27.6073 12.8531 27.6987 12.8531C27.7595 12.8531 27.8507 12.8228 27.9116 12.7619L28.9451 11.7284C29.006 11.6675 29.0363 11.6069 29.0363 11.5155C29.0363 11.4243 29.006 11.3634 28.9451 11.3026L28.2455 10.6949C28.5191 10.2693 28.7014 9.7828 28.8232 9.26605H29.7655C29.9176 9.26605 30.0696 9.14454 30.0696 8.96196V7.50282C30.0391 7.35099 29.9176 7.22927 29.7655 7.22927L29.7655 7.22936ZM24.2631 11.1206C22.6822 11.1206 21.3752 9.84376 21.3752 8.23262C21.3752 6.62142 22.652 5.34467 24.2631 5.34467C25.8743 5.34467 27.151 6.62147 27.151 8.23262C27.151 9.84382 25.844 11.1206 24.2631 11.1206Z" fill="white"/>
</svg>
