<svg width="21" height="21" viewBox="0 0 21 21" fill="none" xmlns="http://www.w3.org/2000/svg">
<path d="M9.82877 17.6683L9.53597 17.9611H6.00043V14.4257L15.132 5.29371L16.0002 4.42551V2.96099C16.0002 1.85644 15.1047 0.960938 14.0001 0.960938L5.00014 0.961105L0 5.96082V18.9607C0 20.0652 0.8955 20.9607 2.00006 20.9607H14.0001C15.1046 20.9607 16.0001 20.0652 16.0001 18.9607V11.4962L9.82877 17.6683ZM1.50034 6.96128L6.00034 2.46128V6.96128H1.50034ZM9.12163 16.9611H7.0002V14.8399L15.8391 6.00102L17.9603 8.12228L9.12163 16.9611ZM20.0815 6.00085L18.6674 7.41497L16.5461 5.29371L17.9602 3.87959C18.1556 3.68439 18.4114 3.58663 18.6674 3.58663C18.9233 3.58663 19.1791 3.68423 19.3745 3.87959L20.0817 4.58674C20.4721 4.97731 20.4721 5.61029 20.0815 6.00085H20.0815Z" fill="#858080"/>
</svg>
