<svg width="67" height="65" viewBox="0 0 67 65" fill="none" xmlns="http://www.w3.org/2000/svg">
<path d="M33.5003 0.121094C15.2329 0.121094 0.466797 14.5591 0.466797 32.4205C0.466797 50.282 15.2329 64.72 33.5003 64.72C51.7677 64.72 66.5339 50.282 66.5339 32.4205C66.5339 14.5591 51.7677 0.121094 33.5003 0.121094ZM49.4843 25.7225L29.923 44.7747C29.314 45.3701 28.5529 45.6678 27.7918 45.6678C27.0306 45.6678 26.1934 45.3701 25.6606 44.7747L15.9941 35.3975C14.7762 34.2067 14.7762 32.3461 15.9941 31.1554C17.2119 29.9646 19.1148 29.9646 20.3326 31.1554L27.7918 38.4488L45.1458 21.4804C46.3636 20.2896 48.2665 20.2896 49.4843 21.4804C50.626 22.6712 50.626 24.6062 49.4843 25.7225Z" fill="#FFA412"/>
</svg>
