<svg width="22" height="21" viewBox="0 0 22 21" fill="none" xmlns="http://www.w3.org/2000/svg">
<path d="M20.8231 19.5533L16.7587 15.5232C19.7899 12.0097 19.6176 6.70523 16.2765 3.36405C14.5542 1.60722 12.2464 0.746094 9.97301 0.746094C7.69957 0.746094 5.39181 1.60722 3.6351 3.36387C0.121633 6.87733 0.121633 12.5263 3.6351 16.0397C5.35736 17.7622 7.66518 18.6576 9.97301 18.6576C12.0398 18.6576 14.141 17.9342 15.7943 16.4875L19.8587 20.5519C19.962 20.6555 20.1343 20.7245 20.3066 20.7245C20.4788 20.7245 20.6511 20.6555 20.7888 20.5178C21.0644 20.2766 21.0644 19.829 20.8232 19.5534L20.8231 19.5533ZM4.59943 15.041C3.15273 13.6287 2.39494 11.6998 2.39494 9.70196C2.39494 7.70408 3.18712 5.77521 4.59943 4.32858C6.04613 2.88188 7.94061 2.12409 9.97282 2.12409C12.005 2.12409 13.8996 2.91626 15.3462 4.32858C16.7585 5.77527 17.5507 7.66976 17.5507 9.70196C17.5507 11.7342 16.7585 13.6287 15.3462 15.0753C13.8995 16.4877 11.9706 17.2798 9.97282 17.2798C7.975 17.2798 6.04607 16.4877 4.59943 15.041Z" fill="#676767" stroke="#676767" stroke-width="0.5"/>
</svg>
