<svg width="22" height="23" viewBox="0 0 22 23" fill="none" xmlns="http://www.w3.org/2000/svg">
<path d="M11.0001 8.19141C10.125 8.19141 9.28554 8.53914 8.66669 9.1579C8.04795 9.77679 7.7002 10.6162 7.7002 11.4914C7.7002 12.3665 8.04793 13.2059 8.66669 13.8248C9.28558 14.4435 10.125 14.7913 11.0001 14.7913C11.8753 14.7913 12.7147 14.4436 13.3336 13.8248C13.9523 13.2059 14.3001 12.3665 14.3001 11.4914C14.2989 10.6165 13.9507 9.77801 13.3321 9.15943C12.7135 8.54085 11.875 8.19266 11.0001 8.19141ZM11.0001 13.5691C10.4491 13.5691 9.92059 13.3502 9.53096 12.9605C9.14133 12.5709 8.92235 12.0424 8.92235 11.4914C8.92235 10.9403 9.14134 10.4118 9.53096 10.0222C9.92059 9.63254 10.4491 9.41356 11.0001 9.41356C11.5512 9.41356 12.0797 9.63255 12.4693 10.0222C12.859 10.4118 13.0779 10.9403 13.0779 11.4914C13.0772 12.0422 12.8582 12.5703 12.4685 12.9598C12.0791 13.3494 11.551 13.5684 11.0001 13.5692L11.0001 13.5691Z" fill="#FFA412"/>
<path d="M21.3889 10.8811H18.3064C18.1617 9.15379 17.4099 7.53375 16.1842 6.30794C14.9586 5.08229 13.3385 4.33049 11.6111 4.18576V1.10326C11.6111 0.885046 11.4946 0.683266 11.3055 0.574132C11.1165 0.464873 10.8835 0.464873 10.6945 0.574132C10.5054 0.683239 10.3889 0.885038 10.3889 1.10326V4.18576C8.6616 4.33047 7.04157 5.08225 5.81576 6.30794C4.5901 7.5336 3.8383 9.15368 3.69358 10.8811H0.611075C0.392859 10.8811 0.191079 10.9976 0.0819447 11.1866C-0.0273149 11.3757 -0.0273149 11.6086 0.0819447 11.7977C0.191051 11.9868 0.392851 12.1033 0.611075 12.1033H3.69358C3.83829 13.8306 4.59006 15.4506 5.81576 16.6764C7.04141 17.9021 8.66149 18.6539 10.3889 18.7986V21.8811C10.3889 22.0993 10.5054 22.3011 10.6945 22.4102C10.8835 22.5195 11.1165 22.5195 11.3055 22.4102C11.4946 22.3011 11.6111 22.0993 11.6111 21.8811V18.7986C13.3384 18.6539 14.9584 17.9021 16.1842 16.6764C17.4099 15.4508 18.1617 13.8307 18.3064 12.1033H21.3889C21.6071 12.1033 21.8089 11.9868 21.9181 11.7977C22.0273 11.6087 22.0273 11.3757 21.9181 11.1866C21.809 10.9976 21.6072 10.8811 21.3889 10.8811ZM11.6113 17.5714V16.6255C11.6113 16.4071 11.4948 16.2053 11.3057 16.0962C11.1167 15.9871 10.8837 15.9871 10.6947 16.0962C10.5056 16.2053 10.3891 16.4071 10.3891 16.6255V17.5714C8.98685 17.4302 7.67661 16.8087 6.68007 15.8123C5.68368 14.8158 5.06215 13.5055 4.921 12.1032H5.86691C6.08528 12.1032 6.28706 11.9868 6.39619 11.7977C6.5053 11.6086 6.5053 11.3757 6.39619 11.1866C6.28709 10.9976 6.08529 10.8811 5.86691 10.8811H4.921C5.06218 9.47881 5.68368 8.16858 6.68007 7.17203C7.67661 6.17565 8.98685 5.55412 10.3891 5.41297V6.35887C10.3891 6.57724 10.5056 6.77903 10.6947 6.88816C10.8837 6.99727 11.1167 6.99727 11.3057 6.88816C11.4948 6.77905 11.6113 6.57725 11.6113 6.35887V5.41297C13.0135 5.55415 14.3238 6.17565 15.3203 7.17203C16.3167 8.16858 16.9382 9.47881 17.0794 10.8811H16.1335C15.9151 10.8811 15.7133 10.9976 15.6042 11.1866C15.4951 11.3757 15.4951 11.6086 15.6042 11.7977C15.7133 11.9868 15.9151 12.1032 16.1335 12.1032H17.0794C16.9382 13.5055 16.3167 14.8158 15.3203 15.8123C14.3238 16.8087 13.0135 17.4302 11.6113 17.5714Z" fill="#FFA412"/>
</svg>
