<svg width="24" height="23" viewBox="0 0 24 23" fill="none" xmlns="http://www.w3.org/2000/svg">
<path fill-rule="evenodd" clip-rule="evenodd" d="M12.6393 1.2063L15.4054 7.24459L22.0029 8.00905C22.4841 8.06498 22.8652 8.37682 23.0146 8.83748C23.1646 9.29798 23.0395 9.77403 22.6827 10.1021L17.7948 14.5985L19.1065 21.1102C19.2021 21.5847 19.0233 22.0438 18.6312 22.3285C18.2399 22.6131 17.7484 22.6418 17.3261 22.4042L11.5383 19.1444L5.75046 22.4042C5.32812 22.6418 4.83751 22.6131 4.44528 22.3285C4.05322 22.0438 3.87447 21.5854 3.97007 21.1102L5.28172 14.5994L0.393818 10.1021C0.036995 9.77402 -0.0873528 9.29798 0.0619688 8.83748C0.211987 8.37698 0.592404 8.06497 1.07362 8.00905L7.67111 7.24459L10.4373 1.2063C10.6388 0.766335 11.0531 0.5 11.5379 0.5C12.022 0.5 12.4361 0.765652 12.6385 1.2063H12.6393Z" fill="#CCCCCC"/>
</svg>
