<svg width="58" height="55" viewBox="0 0 58 55" fill="none" xmlns="http://www.w3.org/2000/svg">
<rect x="0.137695" y="0.539062" width="57.7246" height="54" rx="10" fill="#FFA412"/>
<path d="M29 33.6758C31.7614 33.6758 34 31.4482 34 28.7002C34 25.9523 31.7614 23.7246 29 23.7246C26.2386 23.7246 24 25.9523 24 28.7002C24 31.4482 26.2386 33.6758 29 33.6758Z" fill="white"/>
<path d="M40 19.4118H38.9307H38.269C37.3887 19.4118 36.4253 18.7375 36.1273 17.9132L35.5327 16.2662C35.2343 15.4423 34.271 14.7676 33.391 14.7676H24.609C23.7293 14.7676 22.7653 15.4419 22.4677 16.2662L21.8727 17.9132C21.5747 18.7371 20.6113 19.4118 19.7313 19.4118H19.0693H18C15.8 19.4118 14 21.2024 14 23.3923V36.3289C14 38.5182 15.8 40.3094 18 40.3094H40C42.2 40.3094 44 38.5182 44 36.3289V23.3923C44 21.2024 42.2 19.4118 40 19.4118ZM29 36.163C24.858 36.163 21.5 32.8221 21.5 28.6996C21.5 24.5772 24.858 21.2362 29 21.2362C33.1427 21.2362 36.5 24.5772 36.5 28.6996C36.5 32.8221 33.1427 36.163 29 36.163ZM40.6667 24.3874C40.6667 24.8455 40.2937 25.2167 39.8333 25.2167H39C38.5397 25.2167 38.1667 24.8455 38.1667 24.3874V23.5582C38.1667 23.1001 38.5397 22.7289 39 22.7289H39.8333C40.2937 22.7289 40.6667 23.1001 40.6667 23.5582V24.3874Z" fill="white"/>
</svg>
