<svg width="11" height="11" viewBox="0 0 11 11" fill="none" xmlns="http://www.w3.org/2000/svg">
<path d="M5.58398 0.328125C4.25794 0.328125 2.98606 0.854938 2.04846 1.7926C1.1108 2.73033 0.583984 4.00208 0.583984 5.32812C0.583984 6.65417 1.1108 7.92605 2.04846 8.86365C2.98619 9.80131 4.25794 10.3281 5.58398 10.3281C6.91003 10.3281 8.18191 9.80131 9.11951 8.86365C10.0572 7.92592 10.584 6.65417 10.584 5.32812C10.584 4.00208 10.0572 2.7302 9.11951 1.7926C8.18178 0.854938 6.91003 0.328125 5.58398 0.328125ZM7.19312 6.9373V6.93737C7.10728 7.02245 6.99116 7.06986 6.8704 7.06917C6.74956 7.06986 6.63344 7.02245 6.54761 6.93737L5.26121 5.65097H5.26129C5.17621 5.56521 5.12873 5.4491 5.12949 5.32826V2.60098C5.12949 2.43859 5.21609 2.28853 5.35671 2.20734C5.49733 2.12614 5.67068 2.12614 5.81131 2.20734C5.95194 2.28853 6.03853 2.43859 6.03853 2.60098V5.14183L7.19307 6.29187L7.19314 6.29179C7.27913 6.37717 7.3276 6.49337 7.3276 6.61458C7.3276 6.73573 7.27913 6.85193 7.19314 6.9373H7.19312Z" fill="#FFA412"/>
</svg>
