<svg width="23" height="19" viewBox="0 0 23 19" fill="none" xmlns="http://www.w3.org/2000/svg">
<path d="M15.1213 12.5132L12.1479 9.53977C11.9163 9.30706 11.5392 9.30706 11.3076 9.53977L8.3342 12.5132C8.10149 12.7459 8.10149 13.1218 8.3342 13.3534C8.45001 13.4692 8.60185 13.5272 8.75498 13.5272C8.90683 13.5272 9.05995 13.4692 9.17576 13.3534L11.134 11.3952V18.1356C11.134 18.4634 11.4005 18.73 11.7284 18.73C12.0562 18.73 12.3227 18.4634 12.3227 18.1356V11.3952L14.281 13.3534C14.3968 13.4692 14.5486 13.5272 14.7018 13.5272C14.8536 13.5272 15.0067 13.4692 15.1225 13.3534C15.3541 13.1218 15.3541 12.7448 15.1213 12.5132H15.1213Z" fill="#FFA412" stroke="#FFA412" stroke-width="0.5"/>
<path d="M18.2448 6.42277C17.9585 3.0789 15.1446 0.445312 11.7283 0.445312C8.12208 0.445312 5.18791 3.37939 5.18791 6.98572C5.18791 7.28411 5.20968 7.58342 5.25231 7.88288C5.18132 7.87959 5.11015 7.87739 5.03917 7.87739C2.66233 7.87739 0.728027 9.8117 0.728027 12.1885C0.728027 14.5654 2.66233 16.4997 5.03917 16.4997H8.75571C9.08465 16.4997 9.35008 16.2331 9.35008 15.9053C9.35008 15.5775 9.08353 15.3109 8.75571 15.3109L5.03917 15.3108C3.31801 15.3108 1.91701 13.9108 1.91701 12.1886C1.91701 10.4664 3.31693 9.06643 5.03917 9.06643C5.30682 9.06643 5.58123 9.10466 5.85549 9.17894C6.06204 9.23473 6.28286 9.17564 6.43362 9.0227C6.58437 8.87086 6.64126 8.64894 6.58327 8.44238C6.44551 7.95722 6.37672 7.46654 6.37672 6.98466C6.37672 4.0341 8.77754 1.63337 11.728 1.63337C14.6785 1.63337 17.0793 4.03419 17.0793 6.98466C17.0793 7.3136 17.3458 7.57903 17.6737 7.57903C19.8046 7.57903 21.5389 9.31336 21.5389 11.4443C21.5389 13.5753 19.8057 15.3096 17.6737 15.3096H14.7003C14.3713 15.3096 14.1059 15.5762 14.1059 15.904C14.1059 16.2329 14.3724 16.4983 14.7003 16.4983H17.6737C20.4603 16.4983 22.728 14.2307 22.728 11.444C22.7284 8.8511 20.7645 6.70717 18.2446 6.42288L18.2448 6.42277Z" fill="#FFA412" stroke="#FFA412" stroke-width="0.5"/>
</svg>
