<svg width="29" height="31" viewBox="0 0 29 31" fill="none" xmlns="http://www.w3.org/2000/svg">
<path d="M0.0890755 29.3741C0.162202 28.8134 0.218449 28.2468 0.314076 27.6918C1.05094 23.616 3.12094 20.4303 6.40579 18.0311C8.67832 20.2453 11.3558 21.4131 14.4832 21.4074C17.5994 21.4074 20.2714 20.2511 22.5662 18.0195C23.0218 18.3895 23.4999 18.7422 23.9387 19.1411C26.7062 21.6675 28.3375 24.8185 28.7818 28.6052C28.81 28.8596 28.8493 29.1197 28.8831 29.3741V30.2991H0.0830994C0.0887246 29.9927 0.0887248 29.6805 0.0887248 29.3741L0.0890755 29.3741Z" fill="white"/>
<path d="M15.1641 0.699219C15.7323 0.814844 16.3116 0.890001 16.8629 1.05188C20.2379 2.01736 22.7355 5.0872 23.0842 8.67758C23.5679 13.6552 20.0129 18.0259 15.1472 18.4361C10.7653 18.8118 6.73247 15.6032 5.98984 11.146C5.1911 6.38226 8.08797 1.94252 12.6838 0.895948C13.055 0.80923 13.4375 0.76298 13.8144 0.699383H15.1644L15.1641 0.699219Z" fill="white"/>
</svg>
