<svg width="150" height="49" viewBox="0 0 150 49" fill="none" xmlns="http://www.w3.org/2000/svg">
<mask id="path-1-inside-1_788_5253" fill="white">
<path fill-rule="evenodd" clip-rule="evenodd" d="M0 6.63995V41.6556L7.42612 48.1094H142.607L150 39.2138V6.05689L143.156 0.109375H10.6888L0 6.63995Z"/>
</mask>
<path d="M0 41.6556H-1V42.1114L-0.655961 42.4104L0 41.6556ZM0 6.63995L-0.521364 5.78661L-1 6.07905V6.63995H0ZM7.42612 48.1094L6.77016 48.8642L7.05231 49.1094H7.42612V48.1094ZM142.607 48.1094V49.1094H143.077L143.377 48.7485L142.607 48.1094ZM150 39.2138L150.769 39.8529L151 39.5751V39.2138H150ZM150 6.05689H151V5.60109L150.656 5.3021L150 6.05689ZM143.156 0.109375L143.812 -0.645419L143.53 -0.890625H143.156V0.109375ZM10.6888 0.109375V-0.890625H10.4075L10.1675 -0.743959L10.6888 0.109375ZM1 41.6556V6.63995H-1V41.6556H1ZM8.08208 47.3546L0.655961 40.9008L-0.655961 42.4104L6.77016 48.8642L8.08208 47.3546ZM142.607 47.1094H7.42612V49.1094H142.607V47.1094ZM143.377 48.7485L150.769 39.8529L149.231 38.5747L141.838 47.4702L143.377 48.7485ZM149 6.05689V39.2138H151V6.05689H149ZM142.5 0.864169L149.344 6.81169L150.656 5.3021L143.812 -0.645419L142.5 0.864169ZM10.6888 1.10938H143.156V-0.890625H10.6888V1.10938ZM0.521364 7.49328L11.2102 0.962709L10.1675 -0.743959L-0.521364 5.78661L0.521364 7.49328Z" fill="#777777" mask="url(#path-1-inside-1_788_5253)"/>
</svg>
