<svg width="322" height="168" viewBox="0 0 322 168" fill="none" xmlns="http://www.w3.org/2000/svg">
<path d="M259.676 99.1315C259.296 99.1315 258.878 98.7892 258.675 98.2822C258.434 97.6611 258.599 97.0273 259.043 96.8625C259.474 96.6977 260.031 97.0527 260.259 97.6738C260.5 98.2949 260.336 98.9287 259.892 99.0935C259.829 99.1061 259.752 99.1315 259.676 99.1315ZM259.271 97.04C259.22 97.04 259.169 97.0527 259.131 97.0653C258.814 97.1921 258.7 97.6991 258.891 98.1935C259.081 98.6878 259.499 98.992 259.816 98.878C260.133 98.7512 260.234 98.2442 260.057 97.7498C259.892 97.3315 259.562 97.04 259.271 97.04Z" fill="#E08B65"/>
<path d="M321.343 31.9258V136.209C321.343 149.746 308.947 159.71 292.088 164.235C283.329 166.58 272.466 167.34 259.74 167.784C237.722 168.532 208.821 167.176 184.978 166.035C165.039 165.084 157.142 164.209 107.2 165.198C90.3541 165.528 72.3166 166.009 58.7282 166.276C41.0456 166.618 37.5218 166.719 31.0192 165.388C13.5647 161.788 0.787598 150.025 0.787598 136.209V31.9258C0.787598 15.1939 19.535 0.654823 42.5794 1.64353C63.976 2.55618 95.4498 6.16876 128.254 3.96318C167.27 1.32664 241.334 -0.904288 279.552 1.64353C302.533 3.17729 321.343 15.1939 321.343 31.9258Z" fill="#FFF7E5"/>
<path d="M161.065 147.884C232.855 147.884 291.052 143.316 291.052 137.681C291.052 132.045 232.855 127.477 161.065 127.477C89.2758 127.477 31.0789 132.045 31.0789 137.681C31.0789 143.316 89.2758 147.884 161.065 147.884Z" fill="#FFE8B7"/>
<path d="M227.498 95.3183C227.207 95.369 227.017 95.6606 227.067 95.9521L227.891 100.503C227.942 100.794 228.221 100.997 228.512 100.934C228.804 100.883 228.994 100.591 228.943 100.3L228.119 95.7493C228.069 95.4704 227.79 95.2676 227.498 95.3183Z" fill="#F7B686"/>
<path d="M228.842 95.078C228.55 95.1287 228.36 95.4203 228.411 95.7118L229.336 100.795C229.387 101.086 229.666 101.289 229.957 101.226C230.249 101.175 230.439 100.884 230.388 100.592L229.463 95.509C229.412 95.2175 229.134 95.0147 228.842 95.078Z" fill="#F7B686"/>
<path d="M228.728 92.3533L228.601 92.4928C228.373 92.7589 228.398 93.1773 228.665 93.4181L231.276 95.7251C231.542 95.9659 231.948 95.9279 232.188 95.6617L232.315 95.5223C232.543 95.2561 232.518 94.8378 232.252 94.5969L229.641 92.29C229.374 92.0618 228.956 92.0871 228.728 92.3533Z" fill="#F7B686"/>
<path d="M230.186 94.8241C229.894 94.8748 229.704 95.1664 229.755 95.4579L230.49 99.5395C230.541 99.831 230.82 100.034 231.111 99.9705C231.403 99.9198 231.593 99.6282 231.542 99.3367L230.807 95.2551C230.756 94.9636 230.477 94.7608 230.186 94.8241Z" fill="#F7B686"/>
<path d="M226.117 92.8984C226.117 92.8984 225.077 95.8139 226.218 97.6772C226.611 98.3236 230.553 97.4744 230.781 96.6505C231.009 95.8265 230.236 93.1266 230.236 93.1266L226.117 92.8984Z" fill="#F7B686"/>
<path d="M226.167 95.5726C225.875 95.6233 225.685 95.9149 225.736 96.2064L226.471 100.275C226.522 100.567 226.801 100.757 227.092 100.706C227.384 100.656 227.574 100.364 227.523 100.073L226.788 96.0036C226.737 95.7121 226.458 95.5219 226.167 95.5726Z" fill="#F7B686"/>
<path d="M231.047 93.5185C231.58 87.4975 232.822 78.8907 235.648 72.0838C236.308 70.4994 236.574 69.9163 237.093 69.0544C237.499 68.3572 236.764 66.8361 235.61 66.1136C234.52 65.4291 232.822 65.5432 232.556 65.8854C232.099 66.4558 231.618 67.5586 230.857 69.3079C228.22 75.3795 226.649 83.2258 226.002 93.3283L231.047 93.5185Z" fill="#F7B686"/>
<path d="M238.386 132.75C238.386 132.75 238.348 134.499 237.182 134.994C236.016 135.488 232.644 135.932 233.912 137.047C234.634 137.694 238.044 137.275 239.008 137.275C239.971 137.275 240.871 137.706 241.593 137.047C242.379 136.325 241.593 132.75 241.593 132.75C241.593 132.75 240.769 133.194 240.022 133.168C238.919 133.143 238.386 132.75 238.386 132.75Z" fill="#2F1A31"/>
<path d="M251.747 132.75C251.747 132.75 251.709 134.499 250.543 134.994C249.376 135.488 246.005 135.932 247.272 137.047C247.995 137.694 251.405 137.275 252.368 137.275C253.331 137.275 254.231 137.706 254.954 137.047C255.74 136.325 254.954 132.75 254.954 132.75C254.954 132.75 254.13 133.194 253.382 133.168C252.279 133.143 251.747 132.75 251.747 132.75Z" fill="#2F1A31"/>
<path d="M229.729 84.9102C229.729 84.9102 229.513 92.2114 231.808 106.231C233.468 116.346 235.42 126.537 236.384 131.43C236.726 133.179 238.171 134.459 239.895 134.523L240.82 134.561C242.671 134.637 244.179 133.014 244.052 131.088L241.72 98.0168L241.15 87.1284L229.729 84.9102Z" fill="#6F4975"/>
<path d="M250.745 91.3392C250.644 92.2265 245.688 92.125 239.616 91.3392C233.557 90.5659 228.829 89.2223 228.931 88.335C229.032 87.4477 233.925 87.3336 239.996 88.1195C246.068 88.9054 250.86 90.4519 250.745 91.3392Z" fill="#2F1A31"/>
<path d="M236.7 90.1198L249.655 132.33C250.2 134.092 251.759 135.309 253.546 135.334L254.32 135.347C256.158 135.385 257.565 133.648 257.222 131.772L250.137 92.1099C250.035 91.6409 249.693 91.2606 249.237 91.1339C246.816 90.4367 236.46 88.3833 236.7 90.1198Z" fill="#6F4975"/>
<path d="M248.73 67.0258C248.73 67.0258 247.007 62.1077 240.871 62.3358C234.736 62.564 230.097 70.7398 228.956 88.3337C228.956 88.3337 239.008 86.1028 250.784 91.3125C250.771 91.3125 251.418 74.2003 248.73 67.0258Z" fill="#96A7E2"/>
<path d="M253.991 65.0218L248.68 69.5597C248.68 69.5597 237.5 70.7005 234.534 70.1428C231.567 69.5977 231.111 67.3795 231.111 67.3795C231.111 67.3795 233.938 63.45 239.3 62.474C239.807 62.3853 240.314 62.3726 240.859 62.3219C241.771 62.2585 242.38 62.3472 243.28 62.3346C251.633 62.2839 253.991 65.0218 253.991 65.0218Z" fill="#96A7E2"/>
<path d="M242.481 108.994L239.692 100.4C239.071 98.4732 237.778 96.8507 236.067 95.862L236.181 95.6719C237.943 96.6986 239.261 98.3464 239.908 100.337L242.696 108.931L242.481 108.994Z" fill="#020202"/>
<path d="M236.65 61.2451C236.612 61.2325 235.826 61.0423 235.598 60.4719C235.471 60.1677 235.522 59.8128 235.762 59.4198C235.864 59.2424 235.965 59.0903 236.054 58.9508C236.675 57.9621 236.878 57.6199 236.713 56.8467L236.789 56.834C236.954 57.6452 236.726 58.0128 236.117 59.0015C236.029 59.141 235.927 59.3057 235.826 59.4705C235.598 59.8381 235.547 60.1677 235.661 60.4466C235.889 60.9789 236.662 61.1818 236.675 61.1818L236.65 61.2451Z" fill="#E28569"/>
<path d="M236.751 56.834C236.751 56.834 237.017 58.0889 236.206 59.3945C235.395 60.7001 236.282 61.6634 237.385 61.1564C238.488 60.6494 238.906 62.0817 240.326 61.2958C241.733 60.4973 236.751 56.834 236.751 56.834Z" fill="#E28569"/>
<path d="M243.279 62.3495C242.67 62.2861 242.138 61.8932 241.897 61.3228L241.137 59.5355L240.921 59.0158L239.628 55.9609L239.856 59.1299L239.996 61.0312L240.034 61.5763C240.059 62.0199 239.755 62.4129 239.324 62.4889H239.311C239.083 62.8692 238.766 63.6424 239.717 63.9466C240.82 64.3142 242.632 63.4143 243.279 62.3495Z" fill="#F7B686"/>
<path d="M241.137 59.4869C241.137 59.4996 241.137 59.5249 241.137 59.5376C241.061 60.5643 239.984 61.0333 239.984 61.0333H239.971L239.832 59.132C240.161 59.0052 240.63 58.8785 240.909 59.0179C241.061 59.0939 241.15 59.2334 241.137 59.4869Z" fill="#2F1A31"/>
<path d="M239.476 60.1429C241.101 60.1429 242.417 58.4971 242.417 56.467C242.417 54.4368 241.101 52.791 239.476 52.791C237.852 52.791 236.536 54.4368 236.536 56.467C236.536 58.4971 237.852 60.1429 239.476 60.1429Z" fill="#F7B686"/>
<path d="M242.011 57.0119C241.682 57.3288 241.213 57.3668 240.972 57.088C240.731 56.8091 240.807 56.3147 241.137 55.9979C241.466 55.681 241.935 55.6429 242.176 55.9218C242.417 56.2007 242.341 56.695 242.011 57.0119Z" fill="#F7B686"/>
<path d="M237.893 58.8393C237.893 58.8393 238.894 58.8647 239.895 58.5098C239.895 58.5098 239.984 59.5111 238.894 59.5745C238.26 59.6126 237.893 58.8393 237.893 58.8393Z" fill="#DB6B49"/>
<path d="M237.893 58.8393C237.893 58.8393 238.133 59.0421 238.704 59.0421C239.274 59.0421 239.895 58.5098 239.895 58.5098C239.895 58.5098 238.691 58.8393 237.893 58.8393Z" fill="white"/>
<path d="M239.185 56.4913C239.16 56.4913 239.147 56.466 239.135 56.4533C239.122 56.4153 239.135 56.3772 239.173 56.3646C239.198 56.3519 239.642 56.1237 240.035 56.5547C240.06 56.5801 240.06 56.6308 240.035 56.6561C240.009 56.6815 239.971 56.6688 239.946 56.6561C239.642 56.4406 239.249 56.4913 239.223 56.4913C239.211 56.504 239.198 56.504 239.185 56.4913Z" fill="#060633"/>
<path d="M239.718 57.2408C239.718 57.4055 239.629 57.5323 239.515 57.545C239.401 57.545 239.299 57.4182 239.299 57.2534C239.299 57.0887 239.388 56.9619 239.502 56.9492C239.616 56.9492 239.705 57.076 239.718 57.2408Z" fill="#060633"/>
<path d="M236.802 56.8463C236.777 56.8463 236.764 56.8463 236.751 56.821C236.726 56.7956 236.726 56.7576 236.751 56.7196C236.764 56.7069 237.093 56.3139 237.626 56.5674C237.664 56.5801 237.677 56.6181 237.664 56.6562C237.651 56.6942 237.613 56.6942 237.575 56.6942C237.208 56.6182 236.865 56.8083 236.853 56.821C236.827 56.8463 236.815 56.8463 236.802 56.8463Z" fill="#060633"/>
<path d="M237.575 57.3305C237.638 57.4827 237.613 57.6348 237.499 57.6855C237.397 57.7362 237.258 57.6474 237.195 57.508C237.131 57.3559 237.157 57.2038 237.271 57.1531C237.372 57.1024 237.511 57.1911 237.575 57.3305Z" fill="#060633"/>
<path d="M238.222 53.4515C238.222 53.4515 238.285 54.7318 239.857 54.9473C241.429 55.1628 242.506 55.8346 242.303 56.9881C242.088 58.1415 239.565 60.5119 241.416 61.4372C243.279 62.3626 242.874 60.6387 244.889 61.0443C246.905 61.4372 247.272 58.712 245.878 57.1275C244.496 55.543 245.054 51.3474 239.844 51.5375C234.647 51.7276 236.548 55.936 236.548 55.936C236.548 55.936 238.234 54.8585 238.222 53.4515Z" fill="#E28569"/>
<path d="M241.949 61.6642C241.556 61.4994 241.315 61.2712 241.239 60.9543C241.011 60.1051 241.987 58.7995 242.861 57.6586C243.09 57.3544 243.305 57.0756 243.495 56.8094C244.028 56.0615 244.066 55.1742 243.609 54.4897C243.102 53.7418 242.164 53.4376 241.15 53.6785C240.123 53.9193 239.426 53.7038 239.008 53.4757C238.564 53.2348 238.362 52.9306 238.349 52.9179L238.387 52.8926C238.4 52.9053 239.198 54.0841 241.138 53.6278C242.177 53.3869 243.128 53.7038 243.647 54.4644C244.116 55.1615 244.078 56.0742 243.533 56.8347C243.343 57.1009 243.128 57.3925 242.899 57.684C242.038 58.8121 241.061 60.1051 241.29 60.9417C241.366 61.2459 241.594 61.4614 241.974 61.6135L241.949 61.6642Z" fill="white"/>
<path d="M236.7 59.204C236.257 59.0392 235.876 58.5448 235.661 57.8857C235.319 56.8083 235.56 55.6041 236.193 55.2111C236.434 55.059 236.688 55.0337 236.954 55.1351C237.398 55.2998 237.778 55.7942 237.993 56.4533C238.336 57.5308 238.095 58.735 237.461 59.1279C237.321 59.2166 237.169 59.2673 237.017 59.2673C236.903 59.2547 236.802 59.242 236.7 59.204ZM237.867 56.4914C237.676 55.8703 237.309 55.4013 236.916 55.2491C236.688 55.1604 236.46 55.1858 236.269 55.3125C235.686 55.6801 235.471 56.8083 235.8 57.835C235.991 58.4561 236.358 58.9251 236.751 59.0772C236.979 59.1533 237.207 59.1406 237.398 59.0138C237.968 58.6462 238.183 57.5054 237.867 56.4914Z" fill="#6F4975"/>
<g opacity="0.3">
<path d="M241.378 55.7467C241.619 56.7988 241.239 57.927 240.541 58.2692C239.844 58.6114 239.084 58.041 238.843 56.989C238.602 55.9369 238.982 54.8087 239.68 54.4665C240.389 54.1242 241.15 54.6947 241.378 55.7467Z" fill="white"/>
</g>
<g opacity="0.3">
<path d="M238.019 56.5332C238.26 57.5853 237.943 58.7261 237.322 59.081C236.701 59.4359 236.004 58.8655 235.763 57.8134C235.522 56.7614 235.839 55.6205 236.46 55.2656C237.081 54.9107 237.779 55.4811 238.019 56.5332Z" fill="white"/>
</g>
<path d="M239.565 58.2813C239.109 58.0532 238.767 57.5588 238.615 56.8997C238.361 55.7842 238.779 54.5673 239.553 54.1997C239.869 54.0476 240.186 54.0603 240.503 54.2124C240.96 54.4406 241.302 54.9349 241.441 55.5941C241.695 56.7222 241.276 57.9264 240.503 58.294C240.351 58.37 240.199 58.4081 240.034 58.4081C239.882 58.3954 239.73 58.3574 239.565 58.2813ZM239.603 54.3138C238.881 54.6561 238.5 55.7969 238.741 56.8616C238.881 57.4701 239.21 57.9517 239.616 58.1546C239.895 58.2813 240.186 58.2813 240.453 58.1546C241.175 57.8123 241.555 56.6715 241.314 55.6067C241.175 54.9983 240.845 54.5166 240.44 54.3138C240.3 54.2504 240.161 54.2124 240.009 54.2124C239.882 54.2251 239.743 54.2504 239.603 54.3138Z" fill="#6F4975"/>
<path d="M237.88 56.9233C237.905 56.9233 237.93 56.9106 237.956 56.898C237.968 56.8853 238.285 56.6318 238.83 56.7459C238.894 56.7585 238.957 56.7205 238.97 56.6445C238.982 56.5811 238.944 56.5177 238.868 56.505C238.209 56.3656 237.803 56.6952 237.791 56.7078C237.74 56.7459 237.727 56.8346 237.778 56.8853C237.803 56.9107 237.842 56.9233 237.88 56.9233Z" fill="#6F4975"/>
<path d="M248.983 82.8187C248.983 82.8187 247.31 80.9808 245.865 81.0061C244.42 81.0315 242.595 82.1723 243.495 82.3497C244.395 82.5272 245.599 82.4258 245.599 82.4258C245.599 82.4258 243.026 82.7554 243.368 83.3385C243.71 83.9089 245.941 83.6046 245.941 83.6046C245.941 83.6046 242.912 84.2511 243.406 84.6821C243.9 85.1257 246.195 84.6187 246.195 84.6187C246.195 84.6187 243.393 85.3285 243.989 85.8356C244.572 86.3299 246.296 85.2271 246.638 85.8102C246.981 86.3933 248.502 88.5608 250.2 87.813L248.983 82.8187Z" fill="#F7B686"/>
<path d="M246.626 82.5655C246.309 82.2866 245.625 82.4895 245.612 82.4895L245.587 82.388C245.612 82.3754 246.335 82.1726 246.702 82.4895L246.626 82.5655Z" fill="#DD8964"/>
<path d="M247.184 83.7702C246.639 83.466 245.967 83.6688 245.954 83.6688L245.929 83.5674C245.954 83.5548 246.651 83.3519 247.234 83.6815L247.184 83.7702Z" fill="#DD8964"/>
<path d="M247.348 84.7695C247.031 84.4526 246.22 84.6808 246.207 84.6808L246.182 84.5794C246.22 84.5667 247.069 84.3259 247.424 84.6935L247.348 84.7695Z" fill="#DD8964"/>
<path d="M253.99 65.0236C254.434 65.6701 253.534 66.5447 251.67 67.901C249.82 69.2573 249.008 69.739 248.565 69.0925C248.121 68.4461 248.654 67.3433 250.492 65.9616C251.848 64.9729 253.546 64.3772 253.99 65.0236Z" fill="#2F1A31"/>
<path d="M249.11 87.2183L247.475 83.555C247.247 83.0607 247.437 82.4523 247.893 82.1861C250.213 80.8424 251.556 79.2326 251.886 77.3947C252.342 74.8468 250.923 71.9187 249.68 70.0174C249.047 69.0414 248.971 68.1034 249.985 66.9118C250.403 66.4175 250.809 66.0753 252.152 65.5048C252.799 65.226 253.432 65.1499 253.8 65.6189C254.37 66.3541 254.763 66.9625 255.549 68.4329C257.413 71.9187 258.11 75.4046 257.565 78.5101C256.893 82.3128 254.51 85.4057 250.479 87.6873C249.972 87.9789 249.351 87.7634 249.11 87.2183Z" fill="#F7B686"/>
<g opacity="0.5">
<path d="M255.562 78.2315C255.499 78.2315 255.435 78.2189 255.385 78.2062C254.865 78.0668 254.599 77.3442 254.789 76.5583C254.903 76.0893 255.157 75.6964 255.473 75.5063C255.664 75.3922 255.866 75.3541 256.069 75.4048C256.589 75.5443 256.855 76.2668 256.665 77.0527C256.551 77.5217 256.297 77.9146 255.98 78.1048C255.841 78.1935 255.702 78.2315 255.562 78.2315ZM255.879 75.6584C255.765 75.6584 255.676 75.6964 255.6 75.7471C255.334 75.8992 255.131 76.2288 255.03 76.6344C254.878 77.2555 255.068 77.8639 255.448 77.9653C255.6 78.0034 255.74 77.9527 255.828 77.902C256.095 77.7499 256.297 77.4203 256.399 77.0147C256.551 76.3936 256.361 75.7851 255.98 75.6837C255.955 75.6584 255.917 75.6584 255.879 75.6584Z" fill="#E08B65"/>
</g>
<path d="M245.878 90.3731C245.878 90.3731 233.772 88.0281 229.843 89.1309L231.719 91.9576L238.716 92.3632L245.878 90.3731Z" fill="#6F4975"/>
<path d="M112.485 133.751C112.485 133.751 109.366 130.569 110.444 128.757C111.521 126.944 113.321 132.648 113.321 132.648C113.321 132.648 112.383 125.905 114.323 125.79C116.262 125.676 114.323 132.648 114.323 132.648C114.323 132.648 115.045 131.026 115.742 130.924C116.452 130.823 116.249 132.306 114.982 133.751H112.485Z" fill="#BED5DC"/>
<path d="M112.713 133.839C112.701 133.827 111.813 132.914 111.078 131.761C110.077 130.189 109.848 128.934 110.368 128.047C110.571 127.717 110.799 127.565 111.078 127.59C111.61 127.654 112.244 128.503 112.954 130.113C113.17 130.607 113.36 131.101 113.512 131.507C113.334 129.745 113.144 126.234 114.108 125.042C114.323 124.789 114.577 124.649 114.868 124.624C115.16 124.611 115.4 124.713 115.578 124.928C116.453 126.006 115.667 129.834 115.223 131.621C115.553 131.101 116.009 130.518 116.478 130.442C116.693 130.417 116.871 130.493 116.972 130.67C117.251 131.19 116.871 132.508 115.717 133.827L115.54 133.675C116.668 132.382 116.972 131.152 116.757 130.772C116.706 130.67 116.617 130.632 116.491 130.658C115.882 130.746 115.185 132.052 114.957 132.546L114.741 132.47C114.741 132.458 115.172 130.924 115.464 129.238C115.844 127.045 115.806 125.6 115.375 125.068C115.248 124.903 115.071 124.827 114.855 124.84C114.627 124.852 114.424 124.966 114.26 125.169C113.03 126.665 113.816 132.432 113.829 132.483L113.613 132.534C113.208 131.253 111.953 127.907 111.027 127.806C110.85 127.78 110.698 127.894 110.546 128.148C109.392 130.1 112.815 133.637 112.853 133.675L112.713 133.839Z" fill="#42428E"/>
<path d="M275.994 136.159C275.994 136.159 272.876 132.977 273.953 131.165C275.031 129.352 276.831 135.056 276.831 135.056C276.831 135.056 275.893 128.313 277.832 128.199C279.772 128.085 277.832 135.056 277.832 135.056C277.832 135.056 278.555 133.434 279.252 133.332C279.962 133.231 279.759 134.714 278.491 136.159H275.994Z" fill="#BED5DC"/>
<path d="M276.209 136.236C276.197 136.223 275.309 135.311 274.574 134.157C273.573 132.585 273.345 131.33 273.864 130.443C274.067 130.113 274.295 129.961 274.574 129.987C275.107 130.05 275.74 130.899 276.45 132.509C276.666 133.004 276.856 133.498 277.008 133.904C276.83 132.142 276.64 128.63 277.604 127.439C277.819 127.185 278.073 127.046 278.364 127.021C278.656 127.008 278.897 127.109 279.074 127.325C279.949 128.402 279.163 132.23 278.719 134.018C279.049 133.498 279.505 132.915 279.974 132.839C280.202 132.813 280.367 132.889 280.468 133.067C280.747 133.587 280.367 134.905 279.213 136.223L279.036 136.071C280.164 134.778 280.468 133.549 280.253 133.168C280.202 133.067 280.113 133.029 279.987 133.054C279.378 133.143 278.681 134.449 278.453 134.943L278.237 134.867C278.237 134.854 278.668 133.32 278.96 131.635C279.34 129.442 279.302 127.997 278.871 127.464C278.744 127.299 278.567 127.223 278.351 127.236C278.123 127.249 277.921 127.363 277.756 127.566C276.526 129.061 277.312 134.829 277.325 134.88L277.097 134.93C276.691 133.65 275.436 130.304 274.511 130.202C274.333 130.177 274.181 130.291 274.029 130.544C272.876 132.496 276.298 136.033 276.336 136.071L276.209 136.236Z" fill="#42428E"/>
<path d="M43.6551 137.196C43.6551 137.196 40.5369 134.015 41.6143 132.202C42.6918 130.389 44.4917 136.093 44.4917 136.093C44.4917 136.093 43.5537 129.35 45.4931 129.236C47.4325 129.122 45.4931 136.093 45.4931 136.093C45.4931 136.093 46.2156 134.471 46.9128 134.369C47.6226 134.268 47.4198 135.751 46.1522 137.196H43.6551Z" fill="#BED5DC"/>
<path d="M43.8831 137.273C43.8704 137.26 42.9831 136.348 42.248 135.194C41.2466 133.622 41.0184 132.367 41.5381 131.48C41.7409 131.151 41.9691 130.998 42.248 131.024C42.7803 131.087 43.4141 131.936 44.124 133.546C44.3395 134.041 44.5296 134.535 44.6817 134.941C44.5042 133.179 44.3141 129.668 45.2775 128.476C45.4929 128.222 45.7465 128.083 46.038 128.058C46.3295 128.045 46.5704 128.146 46.7478 128.362C47.6225 129.439 46.8366 133.267 46.3929 135.055C46.7225 134.535 47.1788 133.952 47.6478 133.876C47.8633 133.85 48.0408 133.927 48.1422 134.104C48.421 134.624 48.0408 135.942 46.8873 137.26L46.7098 137.108C47.8379 135.815 48.1422 134.586 47.9267 134.205C47.876 134.104 47.7872 134.066 47.6605 134.091C47.0521 134.18 46.3549 135.486 46.1267 135.98L45.9112 135.904C45.9112 135.891 46.3422 134.358 46.6338 132.672C47.014 130.466 46.976 129.034 46.545 128.501C46.4183 128.337 46.2408 128.261 46.0253 128.273C45.7972 128.286 45.5943 128.4 45.4296 128.603C44.2 130.098 44.9859 135.866 44.9986 135.917L44.7831 135.967C44.3775 134.687 43.1226 131.341 42.1973 131.239C42.0198 131.214 41.8677 131.328 41.7156 131.582C40.5621 133.534 43.9845 137.07 44.0226 137.108L43.8831 137.273Z" fill="#42428E"/>
<g opacity="0.5">
<path d="M225.919 42.4101C225.716 37.9483 221.774 34.1836 217.363 34.1836C211.127 34.1836 209.086 39.0257 208.845 43.4876C208.592 48.1142 212.61 51.2831 217.008 51.2831C221.407 51.2831 226.16 47.9621 225.919 42.4101Z" fill="#74A1BD"/>
<path d="M224.373 42.8789C224.373 39.3297 220.874 35.5397 217.376 35.4256C212.204 35.2608 210.1 40.5846 210.1 44.1338C210.1 47.683 213.712 49.7999 217.211 49.7999C220.709 49.8125 224.373 46.4281 224.373 42.8789Z" fill="#C4D7D4"/>
<path d="M218.124 42.7663C218.073 42.2846 217.566 41.9551 217.084 41.9551C216.603 41.9551 216.083 42.5382 216.083 43.0325C216.083 43.5269 216.603 43.9198 217.084 43.9198C217.566 43.9198 218.213 43.6663 218.124 42.7663Z" fill="#74A1BD"/>
<path d="M217.084 43.2106H216.906C216.805 43.2106 216.729 43.1345 216.729 43.0331C216.729 42.9317 216.513 42.6021 216.602 42.6021L216.703 42.3993L216.906 37.5952L216.691 37.7347C216.64 37.8107 216.526 37.8361 216.45 37.7854C216.374 37.7347 216.349 37.6206 216.412 37.5445L216.944 36.7586C216.982 36.6953 217.071 36.6699 217.134 36.6953C217.21 36.7206 217.261 36.784 217.261 36.86L217.553 43.0204C217.553 43.1218 217.185 43.2106 217.084 43.2106Z" fill="#74A1BD"/>
<path d="M217.68 37.7567C217.629 37.7567 217.579 37.7314 217.541 37.6933L216.881 37.2117C216.818 37.1356 216.907 36.768 216.97 36.7046C217.046 36.6413 217.148 36.6539 217.211 36.73L217.794 37.4652C217.857 37.5412 217.845 37.6553 217.769 37.706C217.769 37.744 217.731 37.7567 217.68 37.7567Z" fill="#74A1BD"/>
<path d="M213.966 43.7669C213.916 43.7669 213.878 43.7542 213.839 43.7161L213.332 43.1711C213.282 43.1204 213.269 43.0443 213.294 42.981C213.32 42.9176 213.383 42.8796 213.459 42.8796L217.528 42.6641C217.617 42.6641 217.68 42.9683 217.68 43.0697V43.2471C217.68 43.3486 217.604 43.4246 217.503 43.4246C217.401 43.4246 217.199 43.5133 217.199 43.4119L217.338 43.2471L213.865 43.2345L214.093 43.4753C214.156 43.5387 214.156 43.6528 214.093 43.7288C214.055 43.7542 214.004 43.7669 213.966 43.7669Z" fill="#74A1BD"/>
<path d="M213.446 43.2355C213.408 43.2355 213.37 43.2228 213.332 43.1975C213.256 43.1341 213.244 43.02 213.307 42.9566L213.789 42.3609C213.852 42.2848 213.953 42.2721 214.029 42.3355C214.106 42.3989 214.118 42.513 214.055 42.5763L213.865 43.02C213.839 43.058 213.497 43.2355 213.446 43.2355Z" fill="#74A1BD"/>
</g>
<path d="M111.8 33.272C111.838 33.8043 109.125 34.4508 105.12 34.9451C104.892 34.9705 104.651 34.9959 104.41 35.0339C102.863 35.2113 101.152 35.3634 99.3396 35.4775C97.8058 35.5789 96.3354 35.6423 94.9791 35.6803C94.4848 35.693 94.0031 35.7057 93.5468 35.7057C89.5159 35.7437 86.7526 35.4522 86.7146 34.9198C86.6892 34.4635 88.7047 33.9184 91.8356 33.4621C92.0891 33.4241 92.3426 33.386 92.6088 33.3607C93.9271 33.1832 95.4228 33.0184 97.0199 32.8917C97.7298 32.8283 98.4523 32.7776 99.1875 32.7269C99.7072 32.6889 100.214 32.6635 100.709 32.6382C102.825 32.5241 104.777 32.4861 106.438 32.5114C106.476 32.5114 106.514 32.5114 106.552 32.5114C109.708 32.5494 111.774 32.8156 111.8 33.272Z" fill="#CFE2DE"/>
<path d="M99.2509 25.2597C98.9466 25.2597 98.7058 25.0189 98.7058 24.7146V15.6642C98.7058 15.36 98.9466 15.1191 99.2509 15.1191C99.5551 15.1191 99.7959 15.36 99.7959 15.6642V24.7273C99.7959 25.0189 99.5551 25.2597 99.2509 25.2597Z" fill="#2F1A31"/>
<path d="M97.6919 24.5883C97.6919 23.701 98.3891 22.9785 99.251 22.9785C100.113 22.9785 100.81 23.701 100.81 24.5883C100.81 25.4756 100.113 26.1981 99.251 26.1981C98.3891 26.1855 97.6919 25.4756 97.6919 24.5883Z" fill="#2F1A31"/>
<path d="M96.7288 48.4318C96.9949 48.5586 97.3118 48.4318 97.4386 48.153L99.2893 43.9446C99.4033 43.6784 99.2893 43.3489 99.0231 43.2348C98.7569 43.108 98.44 43.2348 98.3132 43.5137L96.4626 47.722C96.3358 47.9882 96.4626 48.3051 96.7288 48.4318Z" fill="#F7B686"/>
<path d="M95.4864 47.8607C95.7526 47.9875 96.0694 47.8607 96.1962 47.5819L98.275 42.8665C98.3891 42.6003 98.275 42.2708 98.0088 42.1567C97.7426 42.0299 97.4257 42.1567 97.3117 42.4355L95.2328 47.1509C95.0934 47.4171 95.2075 47.7467 95.4864 47.8607Z" fill="#F7B686"/>
<path d="M94.2316 47.3036C94.4978 47.4304 94.8147 47.3036 94.9415 47.0247L96.602 43.2474C96.7161 42.9812 96.602 42.6516 96.3358 42.5375C96.0696 42.4108 95.7527 42.5375 95.626 42.8164L93.9654 46.5938C93.8514 46.8599 93.9654 47.1768 94.2316 47.3036Z" fill="#F7B686"/>
<path d="M96.513 51.2078C96.513 51.2078 98.9974 49.4206 99.0862 47.2277C99.1242 46.4671 95.4102 44.908 94.7638 45.4531C94.1173 45.9981 93.2427 48.66 93.2427 48.66L96.513 51.2078Z" fill="#F7B686"/>
<path d="M97.9577 49.0011C98.2239 49.1279 98.5408 49.0011 98.6549 48.7349L100.315 44.9703C100.429 44.7041 100.315 44.3745 100.049 44.2604C99.783 44.1337 99.4661 44.2604 99.352 44.5266L97.6915 48.2913C97.5774 48.5575 97.6915 48.8744 97.9577 49.0011Z" fill="#F7B686"/>
<path d="M92.798 47.877C88.9953 52.5163 83.1899 58.8795 77.0675 62.847C75.6478 63.7723 75.0901 64.1019 74.1901 64.5075C73.4676 64.837 73.2268 66.5229 73.7718 67.7778C74.2915 68.9693 75.5337 69.6411 76.4844 69.413C77.1942 69.2355 76.8013 70.1735 78.3984 69.1721C83.9504 65.699 90.6812 58.8668 96.8416 50.9318L92.798 47.877Z" fill="#F7B686"/>
<path d="M70.4769 133.764C70.4769 133.764 70.515 135.5 71.6811 135.995C72.8473 136.489 76.2064 136.933 74.9515 138.048C74.2289 138.695 70.8319 138.276 69.8685 138.276C68.9051 138.276 68.0052 138.695 67.2953 138.048C66.5094 137.326 67.2953 133.764 67.2953 133.764C67.2953 133.764 68.1193 134.207 68.8671 134.182C69.9446 134.157 70.4769 133.764 70.4769 133.764Z" fill="#2F1A31"/>
<path d="M57.1425 133.764C57.1425 133.764 57.1805 135.5 58.3467 135.995C59.5128 136.489 62.8719 136.933 61.617 138.048C60.8945 138.695 57.4974 138.276 56.534 138.276C55.5707 138.276 54.6707 138.695 53.9609 138.048C53.175 137.326 53.9609 133.764 53.9609 133.764C53.9609 133.764 54.7848 134.207 55.5326 134.182C56.6101 134.157 57.1425 133.764 57.1425 133.764Z" fill="#2F1A31"/>
<path d="M79.1094 86.0273C79.1094 86.0273 79.3249 93.3159 77.0306 107.297C75.3701 117.387 73.418 127.566 72.4673 132.433C72.1251 134.182 70.6801 135.45 68.9688 135.526L68.0435 135.564C66.1929 135.64 64.6845 134.03 64.8239 132.104L67.1435 99.1087L67.714 88.2456L79.1094 86.0273Z" fill="#436E8E"/>
<path d="M74.3178 92.2399L59.2337 133.36C58.6887 135.122 57.1296 136.326 55.3423 136.364L54.5691 136.377C52.7311 136.415 51.3368 134.691 51.6664 132.815L59.5253 92.0624C59.6267 91.5934 61.2619 91.3779 61.7182 91.3399C65.5716 91.0104 74.546 90.5033 74.3178 92.2399Z" fill="#436E8E"/>
<path d="M64.4178 67.8118C64.4178 67.8118 66.8135 63.2105 72.8344 64.3133C75.6865 64.833 77.3723 63.5654 78.0695 68.8892C78.6906 73.668 77.4231 79.9171 76.7132 89.1703C76.7132 89.1703 72.3274 79.0931 59.9686 82.5409C59.9686 82.5409 59.4489 77.927 61.6545 70.2075C62.2883 68.0146 63.6192 69.2822 64.4178 67.8118Z" fill="#9BBCB6"/>
<path d="M59.5 65.0612L64.1013 70.309C64.1013 70.309 74.7489 75.3539 78.1967 70.2709C80.7191 66.5569 77.8164 62.3359 77.8164 62.3359C77.8164 62.3359 75.1038 63.8317 71.8335 63.7176C70.9208 63.6796 68.6138 63.8317 67.7139 63.7936C61.4774 63.6035 59.5 65.0612 59.5 65.0612Z" fill="#9BBCB6"/>
<path d="M65.9899 115.272L65.7744 115.221L68.956 101.43C69.6025 99.4402 70.9207 97.7924 72.67 96.7656L72.7841 96.9558C71.0729 97.9445 69.7926 99.5543 69.1715 101.481L65.9899 115.272Z" fill="#020202"/>
<path d="M59.4751 65.0995C58.9934 65.5685 59.4751 66.9248 61.1103 68.5346C62.7455 70.1571 63.506 70.7402 64.2158 69.9416C64.6848 69.4219 64.6341 67.2544 62.9483 65.8854C61.63 64.846 59.8174 64.7699 59.4751 65.0995Z" fill="#2F1A31"/>
<path d="M61.9587 91.3133C61.9587 91.3133 70.2106 89.9316 78.285 91.7316C78.6526 91.8203 78.9062 92.1626 78.8681 92.5428L78.5766 95.5977L70.1346 93.4682L61.9587 91.3133Z" fill="#436E8E"/>
<path d="M46.6215 91.9069C46.33 91.8689 46.0638 92.0717 46.0131 92.3632L45.354 96.9265C45.3159 97.218 45.5187 97.4969 45.7976 97.5349C46.0891 97.573 46.3553 97.3702 46.406 97.0786L47.0652 92.5154C47.1032 92.2238 46.9004 91.945 46.6215 91.9069Z" fill="#F7B686"/>
<path d="M47.9652 92.0964C47.6736 92.0584 47.4074 92.2612 47.3567 92.5527L46.6215 97.661C46.5835 97.9526 46.7863 98.2314 47.0652 98.2694C47.3567 98.3075 47.6229 98.1047 47.6736 97.8131L48.4088 92.7048C48.4595 92.4259 48.2567 92.1471 47.9652 92.0964Z" fill="#F7B686"/>
<path d="M48.7127 89.499L48.5479 89.6004C48.2437 89.7778 48.1423 90.1835 48.3197 90.4877L50.0563 93.5172C50.2338 93.8341 50.6267 93.9355 50.9309 93.758L51.0957 93.6566C51.3999 93.4791 51.5013 93.0735 51.3239 92.7693L49.5873 89.7398C49.4099 89.4229 49.0169 89.3215 48.7127 89.499Z" fill="#F7B686"/>
<path d="M49.3089 92.3015C49.0173 92.2634 48.7511 92.4662 48.7004 92.7578L48.1047 96.852C48.0667 97.1436 48.2695 97.4224 48.5483 97.4605C48.8399 97.4985 49.1061 97.2957 49.1568 97.0041L49.7525 92.9099C49.8032 92.631 49.6004 92.3522 49.3089 92.3015Z" fill="#F7B686"/>
<path d="M46.0767 89.1699C46.0767 89.1699 44.1754 91.5783 44.657 93.7205C44.8218 94.4557 48.8147 94.9374 49.2837 94.2402C49.7527 93.543 49.8921 90.729 49.8921 90.729L46.0767 89.1699Z" fill="#F7B686"/>
<path d="M45.2779 91.6921C44.9863 91.6541 44.7201 91.8569 44.6694 92.1484L44.0737 96.23C44.0357 96.5215 44.2385 96.8004 44.5173 96.8384C44.8089 96.8764 45.0751 96.6736 45.1258 96.3821L45.7215 92.3005C45.7722 92.0216 45.5694 91.7428 45.2779 91.6921Z" fill="#F7B686"/>
<path d="M50.5381 91.3481C52.9592 85.8341 56.8506 78.1146 61.6801 72.6007C62.7955 71.3205 63.2392 70.8515 63.9997 70.205C64.6082 69.6853 64.3927 67.9994 63.5307 66.9347C62.7195 65.9333 61.3252 65.6291 60.4886 66.1108C59.8548 66.4784 59.297 66.9854 58.0295 68.3924C53.6183 73.2725 49.6382 80.1554 45.8354 89.4974L50.5381 91.3481Z" fill="#F7B686"/>
<g opacity="0.5">
<path d="M53.2762 79.2706C53.1621 79.2706 53.0353 79.2453 52.9339 79.1819C52.7565 79.0932 52.6297 78.9284 52.5663 78.7002C52.4649 78.3453 52.5283 77.8763 52.7565 77.458C53.1367 76.7482 53.8212 76.4059 54.3029 76.6594C54.4804 76.7482 54.6071 76.9129 54.6705 77.1411C54.7719 77.496 54.7085 77.965 54.4804 78.3833C54.1761 78.941 53.6945 79.2706 53.2762 79.2706ZM53.9607 76.8496C53.6311 76.8496 53.2381 77.1411 52.9846 77.5974C52.7945 77.9523 52.7184 78.3453 52.8072 78.6368C52.8325 78.7382 52.9086 78.8777 53.048 78.9537C53.3903 79.1312 53.9353 78.8143 54.2395 78.2566C54.4297 77.9016 54.5057 77.5087 54.417 77.2172C54.3916 77.1157 54.3156 76.9763 54.1761 76.9003C54.1128 76.8749 54.0367 76.8496 53.9607 76.8496Z" fill="#E08B65"/>
</g>
<path d="M69.0953 62.2734L69.2347 60.1565L69.2727 59.5354L69.5136 55.9102L70.4389 59.2439L70.9966 61.2466C70.9966 61.2466 71.4403 63.11 71.7952 63.4776C72.3022 63.9973 72.4417 64.6437 71.3896 64.8465C70.1093 65.1 68.9559 64.6691 67.8784 63.8325C67.8911 63.8198 69.0699 63.3761 69.0953 62.2734Z" fill="#F7B686"/>
<path d="M71.8718 54.5293C71.8718 54.5293 72.2774 55.2898 72.3027 56.3673C72.3281 57.4447 70.7183 55.1758 70.7183 55.1758L71.8718 54.5293Z" fill="#56335B"/>
<path d="M72.4926 56.6326C71.7701 54.7059 69.9067 53.6538 68.3349 54.2622C66.7632 54.8707 66.0787 56.9241 66.8012 58.8382C67.5237 60.7649 69.387 61.8169 70.9588 61.2085C72.5306 60.6127 73.2151 58.5593 72.4926 56.6326Z" fill="#F7B686"/>
<path d="M69.7674 57.5578C69.7801 57.5452 69.7928 57.5198 69.7801 57.5071C69.7801 57.4691 69.7421 57.4437 69.704 57.4564C69.6787 57.4564 69.2224 57.4818 69.1083 58.0268C69.0956 58.0649 69.121 58.0902 69.159 58.1029C69.197 58.1156 69.2224 58.0902 69.235 58.0522C69.3871 57.7353 69.7167 57.5832 69.7294 57.5832C69.7547 57.5705 69.7674 57.5578 69.7674 57.5578Z" fill="#060633"/>
<path d="M69.6917 58.3979C69.7678 58.5246 69.8945 58.588 69.9833 58.5373C70.072 58.4866 70.0973 58.3345 70.0213 58.2077C69.9452 58.081 69.8185 58.0176 69.7297 58.0683C69.641 58.119 69.6283 58.2711 69.6917 58.3979Z" fill="#060633"/>
<path d="M71.9479 56.8363C71.9606 56.8363 71.9733 56.811 71.9733 56.7983C71.9733 56.773 71.9606 56.7349 71.9352 56.7223C71.9226 56.7223 71.555 56.5321 71.3395 56.9377C71.3268 56.9631 71.3395 57.0011 71.3522 57.0265C71.3775 57.0518 71.4029 57.0391 71.4155 57.0138C71.6057 56.811 71.8972 56.8237 71.9099 56.8363C71.9352 56.8363 71.9352 56.8363 71.9479 56.8363Z" fill="#060633"/>
<path d="M71.5547 57.5855C71.5674 57.7376 71.6688 57.839 71.7702 57.8263C71.8716 57.8136 71.9476 57.6869 71.935 57.5348C71.9223 57.3827 71.8209 57.2812 71.7195 57.2812C71.6054 57.3193 71.5293 57.446 71.5547 57.5855Z" fill="#060633"/>
<path d="M64.6211 58.3829C64.6211 58.3829 66.1168 60.3096 67.5619 60.1321C67.5619 60.1321 66.0408 58.7505 68.1956 57.166C68.183 57.166 65.914 57.3435 64.6211 58.3829Z" fill="#56335B"/>
<path d="M66.877 59.1075C67.2192 59.2343 67.5868 59.0695 67.7009 58.7526C67.8023 58.4357 67.6122 58.0808 67.2699 57.9667C66.9277 57.84 66.5601 58.0047 66.446 58.3216C66.3319 58.6259 66.5347 58.9808 66.877 59.1075Z" fill="#F7B686"/>
<path d="M68.1831 57.166C68.1831 57.166 68.424 59.0293 68.8676 59.2829C69.3113 59.5364 71.7577 59.1054 72.7717 58.3829C73.0633 59.549 72.4929 60.7786 71.4028 61.2476C71.0478 61.3997 70.6549 61.5011 70.2493 61.5265C69.4254 61.5772 68.5888 61.4377 68.0944 60.7659C67.9423 60.5631 67.9043 59.1054 67.9043 59.1054C67.9043 59.1054 67.8155 58.2688 67.2578 57.9519C67.2578 57.9646 67.6888 57.3435 68.1831 57.166Z" fill="#56335B"/>
<path d="M72.3408 59.1953C72.3408 59.1953 71.4789 59.677 70.4521 59.8164C70.4521 59.8164 70.8197 60.7291 71.7958 60.2854C72.3662 60.0319 72.3408 59.1953 72.3408 59.1953Z" fill="white"/>
<path d="M67.1943 57.2933C67.1943 57.2933 73.4181 56.6849 75.0279 54.8596C76.6251 53.0343 71.6562 53.63 71.6562 53.63C71.6562 53.63 67.6253 57.2426 67.1943 57.2933Z" fill="#E28569"/>
<path d="M71.6558 53.6423C71.6558 53.6423 69.8939 51.3987 67.0165 52.1972C64.1391 52.9958 62.8082 55.3915 64.6208 58.3957C64.6208 58.3957 66.9531 57.9774 69.07 56.0887C71.1868 54.1747 71.6558 53.6423 71.6558 53.6423Z" fill="#D16B54"/>
<path d="M60.007 81.808C60.007 81.808 64.9885 79.6785 65.8758 76.1166C66.7504 72.5548 66.0786 69.9182 69.9447 69.6013C73.8108 69.2844 76.8403 68.714 78.1332 69.9182C79.3501 71.059 79.5782 85.2812 78.767 93.5584C78.729 93.8753 78.729 94.1542 78.7036 94.357C78.3487 97.9062 59.2971 94.0274 59.2971 94.0274L60.007 81.808Z" fill="#436E8E"/>
<path d="M70.0588 70.1723C70.0588 70.1723 69.0701 65.0006 67.0673 63.7964C67.0673 63.7964 66.0533 63.4415 65.7744 63.7964C65.7744 63.7964 68.2462 67.5738 68.1828 70.8441L70.0588 70.1723Z" fill="#436E8E"/>
<path d="M75.3443 69.7277C75.3443 69.7277 74.0514 65.1898 72.5684 63.7447C72.5684 63.7447 73.3289 63.4405 74.1021 63.9729C74.1021 63.9729 76.4852 66.863 76.6753 69.8925L75.3443 69.7277Z" fill="#436E8E"/>
<path d="M107.959 39.9128C108.771 43.3859 106.413 47.9492 102.382 48.9252C98.3638 49.9013 94.2062 47.9365 93.6231 44.4127C92.7739 39.2917 95.3977 37.3396 99.4286 36.3636C103.447 35.4003 107.135 36.4523 107.959 39.9128Z" fill="#96A7E2"/>
<path d="M94.8904 38.6318C94.8904 38.6318 97.1467 36.3122 96.5636 33.8024L100.075 32.9531C100.075 32.9531 100.683 35.5516 103.649 36.1601C103.649 36.1474 99.5297 39.5952 94.8904 38.6318Z" fill="#96A7E2"/>
<path d="M96.6528 34.73C96.6528 34.73 95.512 34.8314 95.4867 33.5258C95.4867 33.5258 94.5106 32.8794 95.081 32.0047C95.081 32.0047 94.2444 31.2822 94.6501 30.2808C95.0557 29.2795 99.6823 28.5696 100.139 28.9499C100.608 29.3302 100.557 29.9133 100.202 30.1287C100.202 30.1287 100.836 30.4203 100.823 30.978C100.81 31.5357 100.544 31.7132 100.544 31.7132C100.544 31.7132 101.001 31.8526 101.203 32.5371C101.419 33.2216 100.848 34.299 96.6528 34.73Z" fill="#9BBCB6"/>
<g opacity="0.4">
<path d="M102.838 45.7199C102.838 45.7199 104.042 44.4523 104.194 42.7791C104.334 41.1059 106.02 41.2073 106.527 42.5509C107.034 43.8946 106.172 45.8466 105.17 46.2015C104.156 46.5438 102.546 46.9747 102.838 45.7199Z" fill="white"/>
</g>
<path d="M95.4228 32.0922C95.2073 32.0922 95.0805 32.0795 95.0679 32.0795L95.0805 31.9274C95.0932 31.9274 96.8678 32.1049 98.4903 31.1035L98.579 31.2429C97.3495 31.9908 96.0439 32.0922 95.4228 32.0922Z" fill="#7AA098"/>
<path d="M95.4988 33.6019C95.4861 33.6019 95.4861 33.6019 95.4988 33.6019L95.4861 33.4498C95.5368 33.4498 97.8691 33.4371 99.162 32.5625L99.2508 32.6893C97.9325 33.5892 95.6635 33.6019 95.4988 33.6019Z" fill="#7AA098"/>
<path d="M92.2539 48.5467C92.2539 48.5467 92.7736 47.0763 92.5454 46.0876C92.3046 45.0989 93.4708 43.0581 93.9144 42.3482C94.4215 41.5497 94.8524 41.9046 94.8778 42.5003C94.9031 42.9567 94.5482 43.5144 94.6116 44.1102C94.7764 45.4665 95.0172 45.0989 95.4482 46.6326C95.8792 48.1791 95.8411 48.8635 95.1059 49.2311C94.3834 49.5861 92.2539 48.5467 92.2539 48.5467Z" fill="#F7B686"/>
<path d="M69.1082 70.9914C69.1082 70.6998 69.349 70.459 69.6405 70.459C69.9321 70.459 70.0969 70.7125 70.1729 70.9914C70.2616 71.3843 69.9321 71.5237 69.6405 71.5237C69.3363 71.5364 69.1082 71.2956 69.1082 70.9914Z" fill="#2F1A31"/>
<path d="M75.1797 70.2824C75.1797 69.9908 75.4205 69.75 75.7121 69.75C76.0036 69.75 76.1684 70.0035 76.2444 70.2824C76.3332 70.6753 76.0036 70.8148 75.7121 70.8148C75.4205 70.8148 75.1797 70.5739 75.1797 70.2824Z" fill="#2F1A31"/>
<path d="M111.8 33.2811C111.774 32.8121 109.696 32.5332 106.539 32.4952C106.501 32.4952 106.463 32.4952 106.425 32.4952C104.765 32.4698 102.813 32.5205 100.696 32.6219C100.202 32.6473 99.6818 32.6726 99.1748 32.7107C98.4396 32.7614 97.7171 32.8121 97.0072 32.8755C95.4101 33.0149 93.9144 33.167 92.5961 33.3445C92.3299 33.3825 92.0764 33.4205 91.8229 33.4459C88.7173 33.9022 86.7146 34.4346 86.7019 34.8909C86.7019 29.4403 92.3046 24.332 99.2509 24.332C106.197 24.332 111.825 28.2995 111.825 33.1797C111.825 33.2304 111.825 33.2557 111.8 33.2811Z" fill="#E28569"/>
<path d="M122.498 139.221C122.384 139.221 122.27 139.208 122.156 139.158C121.623 138.968 121.344 138.385 121.535 137.852L141.03 82.5734C141.22 82.0411 141.803 81.7622 142.335 81.9523C142.868 82.1425 143.147 82.7255 142.957 83.2579L123.461 138.537C123.322 138.968 122.916 139.221 122.498 139.221Z" fill="#9BBCB6"/>
<path d="M95.9931 139.221C95.879 139.221 95.7649 139.208 95.6508 139.158C95.1184 138.968 94.8396 138.385 95.0297 137.852L114.525 82.5734C114.715 82.0411 115.298 81.7622 115.831 81.9523C116.363 82.1425 116.642 82.7255 116.452 83.2579L96.9564 138.537C96.817 138.968 96.4114 139.221 95.9931 139.221Z" fill="#9BBCB6"/>
<path d="M128.569 120.992H102.065L101.329 123.071L127.948 122.754L128.569 120.992Z" fill="#9BBCB6"/>
<path d="M136.125 101.537H109.62L108.885 103.616L135.491 103.299L136.125 101.537Z" fill="#9BBCB6"/>
<path d="M139.889 88.4805H113.384L112.649 90.5593L139.255 90.2424L139.889 88.4805Z" fill="#9BBCB6"/>
<path d="M136.568 135.823C136.112 135.823 135.693 135.518 135.579 135.062L130.053 114.223C129.913 113.678 130.23 113.108 130.788 112.968C131.333 112.829 131.903 113.146 132.043 113.704L137.569 134.542C137.709 135.087 137.392 135.658 136.834 135.797C136.746 135.81 136.657 135.823 136.568 135.823Z" fill="#9BBCB6"/>
<path d="M190.553 17.6465H135.921C134.083 17.6465 132.6 19.1295 132.6 20.9675V30.8799C132.6 36.4065 137.074 40.8811 142.601 40.8811H190.566C192.404 40.8811 193.887 39.398 193.887 37.56V20.9802C193.874 19.1422 192.391 17.6465 190.553 17.6465Z" fill="#A2BEE0"/>
<path d="M137.48 35.3184C137.074 35.3184 136.859 35.8127 137.138 36.1169C139.001 38.1577 141.65 39.438 144.604 39.438H181.959C183.391 39.438 184.558 38.2591 184.558 36.8014V35.8C184.558 35.5338 184.342 35.331 184.089 35.331H137.48V35.3184Z" fill="#6F4975"/>
<path d="M183.708 32.796H135.845C135.68 32.796 135.553 32.6692 135.553 32.5044C135.553 32.3396 135.68 32.2129 135.845 32.2129H183.708C183.873 32.2129 184 32.3396 184 32.5044C184 32.6565 183.873 32.796 183.708 32.796Z" fill="#6F4975"/>
<path d="M183.709 30.5518H135.845C135.68 30.5518 135.554 30.4251 135.554 30.2603C135.554 30.0955 135.68 29.9688 135.845 29.9688H183.709C183.873 29.9688 184 30.0955 184 30.2603C184 30.4124 183.873 30.5518 183.709 30.5518Z" fill="#6F4975"/>
<path d="M183.709 19.7896C183.709 19.2826 183.304 18.877 182.809 18.877C182.315 18.877 181.909 19.2826 181.909 19.7896C181.909 20.2966 182.315 20.7023 182.809 20.7023C183.316 20.6896 183.709 20.284 183.709 19.7896Z" fill="#E28569"/>
<path d="M180.248 19.7896C180.248 19.2826 179.843 18.877 179.348 18.877C178.854 18.877 178.448 19.2826 178.448 19.7896C178.448 20.2966 178.854 20.7023 179.348 20.7023C179.843 20.6896 180.248 20.284 180.248 19.7896Z" fill="#2F1A31"/>
<path d="M101.938 75.4885C101.672 75.4631 101.444 75.6659 101.418 75.9321L101.089 80.0897C101.063 80.3559 101.266 80.5968 101.532 80.6221C101.799 80.6475 102.027 80.4447 102.052 80.1785L102.382 76.0209C102.407 75.742 102.204 75.5011 101.938 75.4885Z" fill="#F7B686"/>
<path d="M103.168 75.592C102.902 75.5666 102.673 75.7694 102.648 76.0356L102.28 80.6876C102.255 80.9538 102.458 81.1946 102.724 81.22C102.99 81.2454 103.218 81.0425 103.244 80.7764L103.611 76.1244C103.637 75.8455 103.434 75.6047 103.168 75.592Z" fill="#F7B686"/>
<path d="M103.688 73.1937L103.548 73.2951C103.282 73.4726 103.206 73.8402 103.383 74.1191L105.12 76.7429C105.297 77.0091 105.665 77.0852 105.931 76.9077L106.071 76.8063C106.337 76.6289 106.413 76.2613 106.235 75.9824L104.499 73.3585C104.321 73.0923 103.954 73.0163 103.688 73.1937Z" fill="#F7B686"/>
<path d="M104.397 75.6916C104.131 75.6662 103.903 75.8691 103.877 76.1352L103.573 79.8619C103.548 80.1281 103.751 80.3689 104.017 80.3943C104.283 80.4196 104.511 80.2168 104.537 79.9506L104.841 76.224C104.853 75.9451 104.663 75.7043 104.397 75.6916Z" fill="#F7B686"/>
<path d="M101.292 73.0547C101.292 73.0547 99.707 75.3363 100.277 77.2377C100.468 77.8968 104.093 78.0869 104.486 77.4278C104.866 76.7687 104.828 74.2335 104.828 74.2335L101.292 73.0547Z" fill="#F7B686"/>
<path d="M100.721 75.3869C100.455 75.3616 100.227 75.5644 100.202 75.8306L99.8974 79.5445C99.8721 79.8107 100.075 80.0516 100.341 80.0642C100.607 80.0896 100.835 79.8868 100.861 79.6206L101.165 75.9066C101.178 75.6404 100.988 75.3996 100.721 75.3869Z" fill="#F7B686"/>
<path d="M105.448 74.7555C107.312 69.6472 110.379 62.4474 114.41 57.1996C115.348 55.9828 115.716 55.5264 116.362 54.9053C116.882 54.3983 116.59 52.9026 115.754 51.9899C114.968 51.1406 113.459 50.8237 113.142 51.0646C112.61 51.4575 111.938 52.2941 110.874 53.6378C107.172 58.2897 103.991 64.7417 101.088 73.3992L105.448 74.7555Z" fill="#F7B686"/>
<g opacity="0.5">
<path d="M107.516 62.6499C107.427 62.6499 107.351 62.6372 107.275 62.5992C106.895 62.4217 106.78 61.8386 107.021 61.2936C107.161 60.9767 107.414 60.7232 107.668 60.6218C107.833 60.5584 107.997 60.5584 108.149 60.6218C108.53 60.7992 108.644 61.3823 108.403 61.9273C108.264 62.2442 108.01 62.4978 107.756 62.5992C107.68 62.6372 107.592 62.6499 107.516 62.6499ZM107.921 60.7865C107.871 60.7865 107.807 60.7992 107.744 60.8246C107.528 60.9006 107.326 61.1161 107.199 61.395C107.009 61.8259 107.072 62.3076 107.351 62.4344C107.44 62.4724 107.554 62.4724 107.68 62.4344C107.896 62.3583 108.099 62.1428 108.225 61.864C108.416 61.433 108.352 60.9513 108.073 60.8246C108.035 60.7992 107.985 60.7865 107.921 60.7865Z" fill="#E08B65"/>
</g>
<path d="M123.258 48.0081L123.816 45.549L123.981 44.8392L124.932 40.6309L125.401 44.7124L125.679 47.1588L125.768 47.9321C125.832 48.4518 125.971 49.1996 126.389 49.6306C126.554 49.8081 127.822 50.201 126.732 50.7968C125.363 51.532 122.65 50.7714 121.56 49.5926C121.547 49.5799 123.081 48.8067 123.258 48.0081Z" fill="#F7B686"/>
<path d="M128.379 41.4415C127.885 39.0584 125.907 37.4486 123.955 37.8669C122.003 38.2726 120.824 40.5415 121.306 42.9372C121.801 45.3202 123.778 46.9301 125.73 46.5118C127.682 46.0935 128.874 43.8245 128.379 41.4415Z" fill="#F7B686"/>
<path d="M126.757 40.4918C128.823 40.4157 129.736 39.1355 129.672 38.02C129.596 36.5877 128.62 35.3835 127.619 35.9919C126.63 36.6003 126.972 35.2694 125.971 35.206C124.095 35.0919 123.841 36.4482 122.333 36.6384C120.33 36.8792 118.302 40.4411 120.165 42.7861C120.165 42.7861 125.134 40.5552 126.757 40.4918Z" fill="#2F1A31"/>
<path d="M128.494 38.9193C128.494 38.9193 126.453 41.2389 126.833 42.4177C127.213 43.6093 127.175 44.0783 125.933 44.8261C124.691 45.5613 125.908 46.5247 124.197 46.7402C122.485 46.943 120.242 45.0543 120.001 41.6826C119.862 39.8066 120.838 38.4883 120.838 38.4883L128.494 38.9193Z" fill="#2F1A31"/>
<path d="M127.936 42.2797C127.657 41.9375 127.201 41.8614 126.896 42.1149C126.592 42.3684 126.579 42.8374 126.858 43.1797C127.137 43.5219 127.593 43.598 127.898 43.3445C128.189 43.091 128.202 42.622 127.936 42.2797Z" fill="#F7B686"/>
<path d="M120.597 42.3026H120.584C120.559 42.2899 120.546 42.2646 120.546 42.2392C120.724 41.7576 121.205 41.5421 121.231 41.5421C121.256 41.5294 121.294 41.5421 121.307 41.5674C121.319 41.5928 121.307 41.6308 121.281 41.6435C121.281 41.6435 120.812 41.8463 120.66 42.2773C120.635 42.2899 120.622 42.3026 120.597 42.3026Z" fill="#2F1A31"/>
<path d="M121.294 41.3788C121.281 41.3788 121.281 41.3788 121.294 41.3788C121.281 41.3788 120.647 41.2393 120.622 40.707C120.622 40.6816 120.647 40.6562 120.673 40.6562C120.698 40.6562 120.723 40.6816 120.723 40.707C120.749 41.1506 121.294 41.2774 121.294 41.2774C121.319 41.2774 121.345 41.3154 121.332 41.3407C121.332 41.3534 121.319 41.3788 121.294 41.3788Z" fill="#2F1A31"/>
<path d="M127.289 35.94C127.226 35.94 127.175 35.9274 127.125 35.8893C126.833 35.7245 126.732 35.1415 126.732 35.1161C126.732 35.0908 126.744 35.0654 126.77 35.0527C126.795 35.0527 126.82 35.0654 126.833 35.0908C126.833 35.0908 126.935 35.6485 127.175 35.7879C127.239 35.826 127.302 35.826 127.378 35.8006C127.53 35.7372 127.644 35.6485 127.758 35.5598C127.974 35.3823 128.202 35.1922 128.696 35.3189C128.722 35.3316 128.747 35.357 128.734 35.3823C128.722 35.4077 128.696 35.433 128.671 35.4203C128.227 35.3062 128.05 35.471 127.834 35.6485C127.72 35.7499 127.594 35.8386 127.429 35.9147C127.378 35.9274 127.327 35.94 127.289 35.94Z" fill="#2F1A31"/>
<path d="M122.371 36.4476C122.333 36.4476 122.283 36.4476 122.245 36.4476C122.219 36.4476 122.194 36.4222 122.194 36.3842C122.194 36.3588 122.219 36.3335 122.257 36.3335C123.056 36.3969 123.677 35.7124 123.69 35.7124C123.715 35.687 123.74 35.687 123.766 35.7124C123.791 35.7377 123.791 35.7631 123.766 35.7884C123.74 35.8138 123.157 36.4476 122.371 36.4476Z" fill="#2F1A31"/>
<path d="M127.429 43.5328C127.251 43.5328 126.972 43.4567 126.732 43.0511C126.719 43.0384 126.732 43.0257 126.744 43.0131C126.757 43.0004 126.77 43.0131 126.782 43.0257C127.15 43.6342 127.581 43.4567 127.594 43.4567C127.606 43.4567 127.619 43.4567 127.632 43.4694C127.632 43.4821 127.632 43.4947 127.619 43.5074C127.606 43.5074 127.543 43.5328 127.429 43.5328Z" fill="#2F1A31"/>
<path d="M148.204 48.8353C148.622 47.8212 145.403 46.0847 145.403 46.0847C145.048 46.0086 142.348 52.2831 136.479 52.8408C134.388 53.0436 130.484 50.8634 130.091 50.4578C130.04 50.4071 126.605 53.6267 126.605 53.6267C127.302 54.3619 128.848 56.9858 131.599 57.9872C137.303 60.0533 146.569 55.6422 148.204 48.8353Z" fill="#F7B686"/>
<path d="M122.79 116.877C122.79 116.877 122.828 118.423 123.854 118.854C124.881 119.285 127.86 119.678 126.744 120.68C126.111 121.25 123.094 120.882 122.245 120.882C121.395 120.882 120.597 121.263 119.963 120.68C119.266 120.046 119.963 116.877 119.963 116.877C119.963 116.877 120.698 117.27 121.357 117.245C122.308 117.232 122.79 116.877 122.79 116.877Z" fill="#2F1A31"/>
<path d="M131.662 70.3164C131.662 70.3164 131.865 77.2754 129.672 90.6356C128.088 100.282 126.225 109.991 125.312 114.656C124.982 116.317 123.601 117.546 121.966 117.609L121.091 117.647C119.316 117.724 117.884 116.177 118.011 114.339L120.229 82.8273L120.774 72.4586L131.662 70.3164Z" fill="#6F4975"/>
<path d="M113.042 116.877C113.042 116.877 113.08 118.423 114.107 118.854C115.133 119.285 118.112 119.678 116.997 120.68C116.363 121.25 113.346 120.882 112.497 120.882C111.647 120.882 110.849 121.263 110.215 120.68C109.518 120.046 110.215 116.877 110.215 116.877C110.215 116.877 110.95 117.27 111.609 117.245C112.573 117.232 113.042 116.877 113.042 116.877Z" fill="#2F1A31"/>
<path d="M121.914 70.3164C121.914 70.3164 122.117 77.2754 119.924 90.6356C118.34 100.282 116.477 109.991 115.564 114.656C115.234 116.317 113.853 117.546 112.218 117.609L111.343 117.647C109.568 117.724 108.136 116.177 108.263 114.339L110.481 82.8273L111.026 72.4586L121.914 70.3164Z" fill="#6F4975"/>
<path d="M115.108 52.114C115.108 52.114 116.794 47.9057 124.805 49.0084C136.34 50.5929 133.564 58.7561 132.588 69.2896C132.588 69.2896 122.042 68.8586 110.951 69.6698C110.951 69.6698 111.686 58.4138 115.108 52.114Z" fill="#E28569"/>
<path d="M110.646 51.9252C110.646 51.9252 112.015 56.5138 115.628 57.8574C119.063 59.1376 131.105 61.3559 133.627 59.5179C136.999 57.0462 135.212 51.9252 135.212 51.9252C135.212 51.9252 132.943 51.2787 127.568 49.5802C127.061 49.4154 126.541 49.276 125.984 49.1619C125.058 48.9717 124.12 48.8703 123.195 48.8196C114.677 48.376 110.646 51.9252 110.646 51.9252Z" fill="#E28569"/>
<path d="M119.481 93.6284C119.481 93.6284 119.468 93.6284 119.481 93.6284C119.43 93.6157 119.405 93.5903 119.418 93.5523C120.077 89.8637 119.443 86.8849 118.784 85.0469C118.074 83.0568 117.212 81.916 117.199 81.9033C117.174 81.878 117.187 81.8273 117.212 81.8146C117.237 81.7892 117.288 81.8019 117.301 81.8273C117.339 81.878 120.812 86.4539 119.544 93.5777C119.544 93.603 119.506 93.6284 119.481 93.6284Z" fill="#2F1A31"/>
<path d="M110.95 69.6694C110.95 69.6694 116.984 64.992 117.25 58.9457C117.516 52.8994 120.508 53.6092 122.498 53.774C124.488 53.9388 127.239 53.774 127.555 55.4472C127.872 57.1204 126.617 61.4175 129.203 65.3216C131.789 69.2257 132.588 69.3018 132.588 69.3018L130.902 81.8634L110.659 79.5691L110.95 69.6694Z" fill="#6F4975"/>
<path d="M120.102 54.1928L119.887 48.8183C119.887 48.8183 120.952 48.4888 121.624 48.793L121.497 54.5097L120.102 54.1928Z" fill="#6F4975"/>
<path d="M125.122 54.5098L128.075 49.8197C128.075 49.8197 129.888 49.6296 130.091 50.4535L126.605 55.7393L125.122 54.5098Z" fill="#6F4975"/>
<path d="M145.594 40.8207C145.467 40.8841 145.327 40.8334 145.264 40.7066L141.93 33.8744C141.867 33.7477 141.918 33.5956 142.044 33.5449C142.171 33.4815 142.311 33.5322 142.374 33.6589L145.708 40.4911C145.771 40.6179 145.72 40.77 145.594 40.8207Z" fill="#2F1A31"/>
<path d="M148.902 47.6025C148.243 47.9321 147.431 47.6532 147.102 46.9814L144.034 40.6943C143.705 40.0225 143.984 39.1985 144.643 38.869C145.302 38.5394 146.113 38.8183 146.443 39.4901L149.51 45.7772C149.84 46.449 149.561 47.273 148.902 47.6025Z" fill="#E28569"/>
<path d="M148.419 46.6522L148.533 46.7283C148.724 46.8677 148.977 46.817 149.117 46.6269L150.574 44.5354C150.701 44.3453 150.663 44.0791 150.473 43.9523L150.359 43.8763C150.169 43.7368 149.915 43.7875 149.776 43.9777L148.318 46.0692C148.191 46.2466 148.229 46.5128 148.419 46.6522Z" fill="#F7B686"/>
<path d="M147.418 45.9257L147.506 45.989C147.697 46.1285 147.963 46.0778 148.102 45.8876L150.004 43.1624C150.143 42.9722 150.092 42.706 149.902 42.5666L149.813 42.5032C149.623 42.3638 149.357 42.4145 149.218 42.6046L147.316 45.3299C147.19 45.52 147.228 45.7862 147.418 45.9257Z" fill="#F7B686"/>
<path d="M145.808 47.7525L145.973 47.7399C146.29 47.7272 146.543 47.4357 146.518 47.1188L146.34 43.9625C146.328 43.6329 146.049 43.3921 145.732 43.4048L145.567 43.4175C145.25 43.4301 144.997 43.7217 145.022 44.0386L145.199 47.1948C145.212 47.5117 145.491 47.7652 145.808 47.7525Z" fill="#F7B686"/>
<path d="M146.467 45.2438C146.683 45.3959 146.987 45.3452 147.139 45.1297L149.269 42.0749C149.421 41.8594 149.37 41.5552 149.155 41.3904C148.939 41.2383 148.635 41.289 148.483 41.5045L146.353 44.5593C146.201 44.7748 146.252 45.0917 146.467 45.2438Z" fill="#F7B686"/>
<path d="M147.798 49.11C147.798 49.11 150.308 47.9691 150.777 46.0424C150.942 45.3706 148.47 42.6073 147.811 42.9749C147.152 43.3425 145.352 46.2706 145.352 46.2706L147.798 49.11Z" fill="#F7B686"/>
<path d="M149.396 47.3603L149.535 47.4617C149.712 47.5884 149.966 47.5504 150.08 47.3603L151.259 45.6744C151.386 45.4969 151.348 45.2434 151.17 45.1167L151.031 45.0153C150.853 44.8885 150.6 44.9265 150.486 45.1167L149.307 46.8025C149.18 46.98 149.218 47.2335 149.396 47.3603Z" fill="#F7B686"/>
<path d="M202.426 128.377C202.426 128.377 202.388 130.037 201.259 130.506C200.131 130.975 196.874 131.394 198.09 132.471C198.788 133.08 202.083 132.687 203.009 132.687C203.934 132.687 204.809 133.092 205.506 132.471C206.266 131.787 205.506 128.377 205.506 128.377C205.506 128.377 204.707 128.795 203.985 128.77C202.945 128.745 202.426 128.377 202.426 128.377Z" fill="#2F1A31"/>
<path d="M221.794 128.426C221.794 128.426 222.263 130.023 221.338 130.809C220.412 131.595 217.434 133.002 218.929 133.636C219.779 134.004 222.795 132.622 223.683 132.343C224.57 132.064 225.521 132.178 225.99 131.38C226.509 130.492 224.735 127.488 224.735 127.488C224.735 127.488 224.101 128.135 223.404 128.338C222.402 128.616 221.794 128.426 221.794 128.426Z" fill="#2F1A31"/>
<path d="M201.753 93.6096C201.664 93.6096 201.563 93.5842 201.474 93.5462C201.208 93.4321 200.98 93.1533 200.853 92.8237C200.638 92.2533 200.79 91.6702 201.183 91.5054C201.335 91.442 201.5 91.4547 201.677 91.5308C201.943 91.6449 202.171 91.9237 202.298 92.2533C202.514 92.8237 202.361 93.4068 201.969 93.5716C201.892 93.5969 201.829 93.6096 201.753 93.6096ZM201.385 91.6702C201.335 91.6702 201.297 91.6829 201.246 91.6956C200.954 91.8096 200.853 92.2913 201.031 92.7476C201.145 93.0392 201.335 93.2674 201.55 93.3561C201.664 93.4068 201.778 93.4195 201.88 93.3814C202.171 93.2673 202.273 92.7857 202.095 92.3293C201.981 92.0378 201.791 91.8096 201.576 91.7209C201.525 91.6956 201.449 91.6702 201.385 91.6702Z" fill="#E08B65"/>
<path d="M171.192 84.5699L170.089 81.1982C170.355 81.008 179.228 76.6603 185.946 66.7732C185.946 66.7732 186.212 66.2281 188.443 67.3816C190.738 68.5605 190.573 69.4605 190.573 69.4605C185.186 79.8926 171.344 84.4685 171.192 84.5699Z" fill="#EAA678"/>
<path d="M194.084 87.701C194.376 90.8826 195.251 98.1205 196.087 103.127C197.684 112.761 199.586 122.458 200.511 127.11C200.841 128.77 202.248 129.987 203.908 130.051L204.795 130.089C206.583 130.165 208.04 128.618 207.914 126.793L205.822 97.6261L205.657 95.3191L205.252 87.8405C203.87 88.2841 208.281 86.2307 207.343 87.1687L209.371 85.3941C209.359 85.3941 197.367 84.0124 194.084 87.701Z" fill="#436E8E"/>
<path d="M201.55 87.8925L205.822 97.6401L218.701 127.01C219.41 128.62 221.046 129.596 222.757 129.443L223.505 129.367C225.267 129.203 226.433 127.415 225.913 125.679C225.913 125.679 215.646 85.4968 215.177 84.0645C215.177 84.0645 209.561 85.0278 205.632 86.2827C204.25 86.7137 202.488 86.9418 201.55 87.8925Z" fill="#436E8E"/>
<path d="M207.47 61.0043C207.47 61.0043 204.542 56.7072 197.976 58.1776C190.751 59.8001 190.256 63.7169 191.118 71.2463C191.663 76.0123 193.286 84.936 194.503 91.6922C194.503 91.6922 200.866 83.9727 212.984 76.8236C212.996 76.8236 210.22 64.9845 207.47 61.0043Z" fill="#E28569"/>
<path d="M212.768 75.939C212.768 75.939 211.564 77.4981 208.23 75.939C204.301 74.101 196.417 70.1335 193.197 70.3743C189.977 70.6152 185.655 66.204 185.655 66.204C185.655 66.204 189.787 61.3366 195.174 59.0676C195.682 58.8521 196.214 58.662 196.772 58.4845C197.71 58.193 198.673 58.0282 199.611 57.8507C211.222 55.7339 212.768 75.939 212.768 75.939Z" fill="#E28569"/>
<path d="M198.457 58.8036C198.609 58.1065 198.077 58.2586 197.697 57.7516L196.543 56.1924L196.201 55.7361L194.223 53.0742L195.149 56.091L195.706 57.9037L195.884 58.4741C195.998 58.867 195.922 58.9557 195.744 59.3867C195.681 59.5642 195.44 60.2613 196.099 60.3247C196.695 60.3881 198.254 59.6909 198.457 58.8036Z" fill="#F7B686"/>
<path d="M196.961 55.2809C196.961 55.2809 199.496 53.1894 198.254 51.1866C197.024 49.1838 196.327 54.1274 196.327 54.1274L196.631 55.3062L196.961 55.2809Z" fill="#2F1A31"/>
<path d="M196.543 56.1547C196.543 56.1674 196.543 56.1927 196.555 56.2054C196.708 57.2068 195.732 57.9166 195.732 57.9166H195.719L195.161 56.104C195.465 55.9139 195.909 55.6857 196.213 55.7491C196.365 55.7871 196.492 55.9012 196.543 56.1547Z" fill="#2F1A31"/>
<path d="M191.6 54.5683C191.194 52.7683 192.069 51.0317 193.564 50.6895C195.06 50.3472 196.607 51.5388 197.012 53.3387C197.418 55.1387 196.543 56.8752 195.047 57.2175C193.552 57.5597 192.018 56.3682 191.6 54.5683Z" fill="#F7B686"/>
<path d="M196.53 53.049C196.53 53.049 195.731 53.5433 195.136 53.0363C194.54 52.5292 194.121 52.0602 192.651 52.6687C191.181 53.2771 189.66 52.8461 189.419 52.0349C189.191 51.2237 189.9 50.6532 190.8 50.7547C191.688 50.8561 190.648 50.2983 191.32 49.4998C192.005 48.7012 193.513 49.6772 194.312 49.3223C195.123 48.9674 197.924 48.8026 198.254 51.1856L196.53 53.049Z" fill="#2F1A31"/>
<path d="M197.088 53.5558C196.885 53.822 196.53 53.8854 196.29 53.7079C196.049 53.5305 196.023 53.1629 196.226 52.8967C196.429 52.6305 196.784 52.5671 197.025 52.7446C197.266 52.9347 197.291 53.2896 197.088 53.5558Z" fill="#F7B686"/>
<path d="M191.067 51.8291C190.991 51.8291 190.928 51.8164 190.864 51.8037C190.573 51.7023 190.497 51.5502 190.522 51.4361C190.56 51.3094 190.737 51.1953 190.991 51.2333C191.422 51.3094 191.675 51.1826 191.675 51.1826L191.688 51.2206C191.675 51.2206 191.422 51.3601 190.978 51.284C190.75 51.246 190.585 51.3347 190.547 51.4615C190.522 51.5629 190.598 51.6896 190.864 51.7784C191.422 51.9558 192.436 51.1699 192.449 51.1699L192.474 51.1953C192.449 51.2206 191.65 51.8291 191.067 51.8291Z" fill="white"/>
<path d="M193.742 50.0464C193.121 50.0464 192.55 49.7295 192.512 49.6788L192.538 49.6534L192.525 49.6661L192.538 49.6534C192.563 49.6915 193.412 50.1858 194.173 49.945C194.426 49.8689 194.642 49.7675 194.857 49.6788C195.288 49.4886 195.656 49.3239 196.049 49.4379L196.036 49.476C195.656 49.3746 195.288 49.5267 194.87 49.7168C194.654 49.8055 194.439 49.9069 194.185 49.983C194.046 50.021 193.894 50.0464 193.742 50.0464Z" fill="white"/>
<path d="M197.557 50.9823C197.43 50.9823 197.164 50.7414 197.101 50.5766C197.063 50.4879 197.101 50.4626 197.126 50.4499C197.329 50.3485 197.608 50.8175 197.621 50.8302C197.633 50.9316 197.608 50.9569 197.582 50.9696C197.57 50.9823 197.57 50.9823 197.557 50.9823ZM197.19 50.4752C197.177 50.4752 197.164 50.4752 197.139 50.4879C197.126 50.4879 197.101 50.5006 197.126 50.5766C197.19 50.7288 197.481 50.9823 197.557 50.9569C197.582 50.9442 197.582 50.9062 197.57 50.8682C197.519 50.7414 197.329 50.4752 197.19 50.4752Z" fill="white"/>
<path d="M193.767 53.9981C193.754 53.9981 193.741 53.9854 193.729 53.9727C193.716 53.9473 193.729 53.9093 193.754 53.8966C193.767 53.884 194.134 53.6685 194.489 54.0234C194.514 54.0488 194.514 54.0741 194.489 54.0995C194.464 54.1248 194.438 54.1121 194.413 54.0995C194.147 53.9347 193.817 53.9981 193.805 53.9981C193.792 53.9981 193.779 53.9981 193.767 53.9981Z" fill="#060633"/>
<path d="M194.249 54.5925C194.262 54.7319 194.186 54.846 194.097 54.846C193.995 54.8587 193.907 54.7573 193.894 54.6179C193.881 54.4784 193.957 54.3644 194.046 54.3644C194.147 54.3517 194.236 54.4531 194.249 54.5925Z" fill="#060633"/>
<path d="M191.764 54.5694C191.752 54.5694 191.739 54.5694 191.726 54.5567C191.714 54.5313 191.701 54.506 191.726 54.4806C191.739 54.468 191.916 54.1384 192.284 54.3412C192.309 54.3539 192.322 54.3919 192.309 54.4172C192.297 54.4426 192.284 54.4553 192.259 54.4426C192.018 54.3919 191.802 54.544 191.79 54.5567C191.777 54.5567 191.764 54.5694 191.764 54.5694Z" fill="#060633"/>
<path d="M192.436 54.9362C192.499 55.0503 192.474 55.1897 192.385 55.2278C192.296 55.2785 192.182 55.2151 192.119 55.0883C192.056 54.9743 192.081 54.8348 192.17 54.7968C192.258 54.7461 192.385 54.8095 192.436 54.9362Z" fill="#060633"/>
<path d="M194.071 56.4535C193.805 56.4535 193.615 56.3901 193.615 56.3901C193.59 56.3775 193.59 56.3648 193.59 56.3394C193.602 56.3141 193.615 56.3141 193.64 56.3141C193.678 56.3268 194.578 56.6056 195.085 55.8578C195.098 55.8451 195.123 55.8324 195.136 55.8451C195.149 55.8578 195.161 55.8831 195.149 55.8958C194.845 56.3521 194.401 56.4535 194.071 56.4535Z" fill="#020202"/>
<path d="M195.212 56.0506C195.199 56.0506 195.174 56.0379 195.174 56.0253C195.161 55.9746 195.111 55.8858 194.971 55.7844L194.959 55.7718C194.946 55.7591 194.933 55.7337 194.946 55.7211C194.959 55.7084 194.984 55.6957 194.997 55.7084C195.136 55.7971 195.212 55.8985 195.237 55.9999C195.263 56.0126 195.25 56.0379 195.212 56.0506C195.225 56.0506 195.212 56.0506 195.212 56.0506Z" fill="#020202"/>
<path d="M192.056 56.8004C192.005 56.8004 191.942 56.8004 191.878 56.7877C191.473 56.699 191.054 56.3187 190.788 55.7736C190.344 54.8737 190.408 53.7962 190.902 53.3652C191.092 53.2005 191.32 53.1498 191.561 53.2005C191.967 53.2892 192.385 53.6695 192.651 54.2145C193.095 55.1145 193.032 56.1919 192.537 56.6229C192.398 56.737 192.233 56.8004 192.056 56.8004ZM191.397 53.3019C191.244 53.3019 191.105 53.3526 190.978 53.454C190.509 53.8469 190.471 54.8737 190.889 55.7229C191.143 56.2426 191.523 56.5975 191.904 56.6736C192.119 56.7116 192.309 56.6736 192.461 56.5342C192.93 56.1412 192.968 55.1145 192.55 54.2652C192.296 53.7455 191.916 53.3906 191.536 53.3145C191.498 53.3019 191.447 53.3019 191.397 53.3019Z" fill="white"/>
<g opacity="0.3">
<path d="M195.567 53.149C195.909 54.0363 195.732 55.063 195.149 55.4559C194.578 55.8489 193.83 55.4433 193.488 54.5686C193.146 53.6813 193.323 52.6546 193.906 52.2617C194.477 51.8687 195.225 52.2743 195.567 53.149Z" fill="white"/>
</g>
<g opacity="0.3">
<path d="M192.702 54.2884C193.044 55.1757 192.918 56.2151 192.411 56.608C191.904 57.001 191.219 56.5954 190.864 55.7081C190.522 54.8208 190.649 53.7813 191.156 53.3884C191.663 52.9955 192.347 53.4011 192.702 54.2884Z" fill="white"/>
</g>
<path d="M194.603 55.647C194.502 55.647 194.401 55.6344 194.299 55.5963C193.868 55.4569 193.501 55.0766 193.285 54.5189C192.918 53.5809 193.12 52.4654 193.754 52.0471C194.008 51.8824 194.299 51.8317 194.591 51.9331C195.022 52.0725 195.389 52.4528 195.605 53.0105C195.972 53.9485 195.77 55.064 195.136 55.4823C194.971 55.5837 194.781 55.647 194.603 55.647ZM194.287 51.9964C194.122 51.9964 193.957 52.0471 193.818 52.1486C193.222 52.5415 193.032 53.5936 193.387 54.4809C193.589 54.9879 193.944 55.3682 194.325 55.4823C194.591 55.5583 194.844 55.533 195.072 55.3809C195.668 54.9879 195.858 53.9358 195.503 53.0485C195.301 52.5415 194.946 52.1612 194.565 52.0471C194.464 52.0091 194.375 51.9964 194.287 51.9964Z" fill="white"/>
<path d="M192.613 54.6451C192.588 54.6451 192.563 54.6324 192.537 54.6197C192.487 54.5817 192.487 54.5057 192.525 54.4676C192.537 54.455 192.842 54.1127 193.45 54.1381C193.513 54.1381 193.551 54.1888 193.551 54.2521C193.551 54.3155 193.501 54.3535 193.437 54.3535C192.943 54.3282 192.689 54.5944 192.689 54.6071C192.664 54.6324 192.639 54.6451 192.613 54.6451Z" fill="white"/>
<path d="M198.279 51.2106L198.229 51.1725C198.571 50.8049 198.292 50.3866 198.292 50.374L198.343 50.3359C198.355 50.3486 198.659 50.8176 198.279 51.2106Z" fill="#2F1A31"/>
<path d="M198.812 51.7171C198.812 51.7171 198.457 51.4509 198.191 51.489L198.178 51.4256C198.47 51.3876 198.824 51.6538 198.85 51.6664L198.812 51.7171Z" fill="#2F1A31"/>
<path d="M209.245 67.9913C208.687 68.5364 206.988 67.7631 205.467 66.2547C203.946 64.7463 203.173 63.0731 203.731 62.5281C204.288 61.983 205.987 62.7562 207.508 64.2646C209.029 65.7731 209.802 67.4462 209.245 67.9913Z" fill="#2F1A31"/>
<path d="M169.823 83.0239C169.645 82.8338 169.354 82.8211 169.164 82.9986L166.705 85.2802C166.514 85.4577 166.502 85.7492 166.679 85.9394C166.857 86.1295 167.148 86.1422 167.338 85.9647L169.797 83.6831C169.975 83.5056 169.988 83.2014 169.823 83.0239Z" fill="#EAA678"/>
<path d="M170.622 83.8872C170.444 83.6971 170.153 83.6844 169.962 83.8619L166.781 86.8153C166.591 86.9928 166.578 87.2843 166.755 87.4744C166.933 87.6646 167.224 87.6773 167.415 87.4998L170.596 84.5464C170.786 84.3689 170.799 84.0774 170.622 83.8872Z" fill="#EAA678"/>
<path d="M172.535 82.5562L172.371 82.5308C172.066 82.4801 171.775 82.6956 171.737 82.9998L171.281 85.966C171.23 86.2702 171.445 86.5617 171.75 86.5997L171.914 86.6251C172.219 86.6758 172.51 86.4603 172.548 86.1561L173.004 83.19C173.055 82.8858 172.84 82.6069 172.535 82.5562Z" fill="#EAA678"/>
<path d="M171.433 84.7622C171.256 84.5721 170.964 84.5594 170.774 84.7369L168.175 87.1579C167.985 87.3354 167.972 87.6269 168.15 87.8171C168.327 88.0072 168.619 88.0199 168.809 87.8424L171.408 85.4214C171.598 85.2439 171.61 84.9524 171.433 84.7622Z" fill="#EAA678"/>
<path d="M170.926 80.8965C170.926 80.8965 168.34 81.4669 167.516 83.1654C167.237 83.7485 169.025 86.816 169.722 86.6006C170.419 86.3851 172.675 84.0274 172.675 84.0274L170.926 80.8965Z" fill="#EAA678"/>
<path d="M169.024 82.1629L168.999 82.1375C168.834 81.96 168.543 81.9474 168.365 82.1122L166.375 83.9501C166.198 84.1149 166.185 84.4065 166.35 84.5839L166.375 84.6093C166.54 84.7867 166.831 84.7994 167.009 84.6346L168.999 82.7966C169.189 82.6319 169.202 82.3403 169.024 82.1629Z" fill="#EAA678"/>
<path d="M185.858 81.4008L184.058 81.3248C184.058 81.2994 184.134 79.0938 183.614 76.8883C182.98 74.1883 181.801 72.7306 180.116 72.5405C178.683 72.3884 177.644 72.8827 176.947 74.0489C176.364 75.0123 176.249 76.0643 176.249 76.077L174.462 75.8869C174.475 75.7728 174.754 73.225 176.592 71.7419C177.606 70.9307 178.861 70.5884 180.318 70.7532C186.187 71.387 185.87 80.9952 185.858 81.4008Z" fill="#96A7E2"/>
<path d="M174.348 75.7095C174.297 75.9123 174.716 76.1659 175.261 76.2926C175.819 76.4194 176.3 76.3687 176.338 76.1659C176.389 75.963 175.971 75.7095 175.426 75.5828C174.881 75.456 174.399 75.5067 174.348 75.7095Z" fill="#2F1A31"/>
<path d="M188.469 83.5951L187.391 87.8415C187.239 88.4372 186.719 88.8555 186.098 88.8682L160.569 89.54C159.961 89.5527 159.429 89.1724 159.239 88.602L157.439 83.1007C157.16 82.2388 157.781 81.3388 158.694 81.3135L185.984 80.5149C187.632 80.4642 188.874 81.998 188.469 83.5951Z" fill="#BED5DC"/>
<path d="M158.136 133.638H187.226C188.621 133.638 189.749 132.535 189.8 131.153L191.118 91.4655C191.169 89.9824 189.964 88.7656 188.481 88.8036L157.299 89.6149C155.879 89.6529 154.764 90.819 154.789 92.2387L155.562 131.115C155.6 132.522 156.741 133.638 158.136 133.638Z" fill="#96A7E2"/>
<path d="M185.642 130.658H160.57C159.315 130.658 158.263 129.631 158.237 128.376L157.565 94.8619C157.54 93.5817 158.554 92.5169 159.834 92.4789L186.72 91.7817C187.366 91.7691 187.974 92.0099 188.431 92.4662C188.887 92.9225 189.128 93.5436 189.103 94.1901L187.962 128.402C187.936 129.669 186.91 130.658 185.642 130.658ZM186.783 92.0099C186.758 92.0099 186.745 92.0099 186.72 92.0099L159.834 92.7071C158.681 92.7324 157.756 93.6958 157.781 94.8492L158.453 128.364C158.478 129.505 159.416 130.43 160.557 130.43H185.629C186.77 130.43 187.696 129.53 187.734 128.389L188.874 94.1774C188.9 93.5944 188.672 93.0366 188.266 92.6183C187.873 92.238 187.341 92.0099 186.783 92.0099Z" fill="#6F4975"/>
<path d="M172.856 92.372L171.938 130.375L172.166 130.381L173.084 92.3775L172.856 92.372Z" fill="#6F4975"/>
<path d="M194.692 93.2536C194.692 93.2536 190.535 74.1767 190.522 72.1486C190.509 70.1205 189.762 67.2177 194.692 66.3051C199.623 65.3924 201.271 64.9361 202.184 67.2304C203.084 69.5247 205.112 74.5316 209.054 74.5189C212.983 74.4936 213.795 77.1808 213.795 77.1808L217.242 91.91L194.692 93.2536Z" fill="#436E8E"/>
<path d="M205.721 97.6654L204.479 94.6993C203.693 92.8359 203.173 91.936 201.5 91.1374L201.588 90.9473C203.325 91.7712 203.883 92.7345 204.681 94.6105L205.924 97.5767L205.721 97.6654Z" fill="#020202"/>
<path d="M186.948 78.9659L188.253 83.6306C198.331 78.4716 206.037 70.1183 207.711 67.9888C207.951 67.6719 208.04 67.2662 207.926 66.886C207.761 66.3029 207.406 65.4029 206.62 64.541C205.86 63.7044 205.226 63.1593 204.795 62.8297C204.478 62.5889 204.035 62.6396 203.794 62.9438C201.981 65.1874 195.643 74.5041 186.948 78.9659Z" fill="#F7B686"/>
<path d="M185.427 85.6217L181.029 78.967C181.029 78.967 179.457 79.0938 178.684 77.522C177.91 75.9502 179.178 76.2544 179.812 76.7741C180.446 77.2938 181.244 76.9642 181.295 76.3178C181.346 75.6586 180.839 74.5432 181.7 74.5178C182.562 74.4925 183.5 76.3938 182.537 77.9403L186.834 84.4302C186.834 84.4302 190.485 83.9232 190.535 87.1555C190.535 87.1555 189.838 88.1315 189.369 87.2696C188.9 86.4076 188.114 85.3682 187.062 86.1922C186.01 87.0161 185.998 87.3456 186.365 87.9921C186.72 88.6386 187.645 89.1329 187.075 89.5639C186.505 89.9822 185.896 89.9061 185.338 88.9681C184.781 88.0175 184.629 86.2302 185.427 85.6217Z" fill="#2F1A31"/>
<path d="M186.58 82.6686L186.656 82.77C186.808 82.9855 186.758 83.2897 186.542 83.4545L184.083 85.2164C183.868 85.3685 183.563 85.3178 183.399 85.1023L183.323 85.0009C183.17 84.7854 183.221 84.4812 183.437 84.3164L185.896 82.5545C186.111 82.4024 186.428 82.4531 186.58 82.6686Z" fill="#F7B686"/>
<path d="M185.757 81.515L185.833 81.6291C185.985 81.8446 185.934 82.1488 185.719 82.3009L182.892 84.329C182.676 84.4811 182.372 84.4304 182.22 84.2149L182.144 84.1009C181.992 83.8854 182.043 83.5812 182.258 83.4291L185.085 81.4009C185.3 81.2615 185.605 81.3122 185.757 81.515Z" fill="#F7B686"/>
<path d="M187.785 79.7158V79.8425C187.772 80.2228 187.443 80.5144 187.062 80.5017L183.108 80.3115C182.727 80.2989 182.436 79.9693 182.448 79.589L182.461 79.4623C182.474 79.082 182.803 78.7905 183.184 78.8031L187.138 78.9933C187.506 79.0059 187.798 79.3355 187.785 79.7158Z" fill="#F7B686"/>
<path d="M184.945 80.3873L185.021 80.4887C185.173 80.7042 185.123 81.0084 184.907 81.1732L182.423 82.9605C182.207 83.1126 181.903 83.0619 181.738 82.8464L181.662 82.745C181.51 82.5295 181.561 82.2253 181.776 82.0605L184.261 80.2732C184.489 80.1211 184.793 80.1718 184.945 80.3873Z" fill="#F7B686"/>
<path d="M189.331 81.9322C189.331 81.9322 188.063 84.7843 185.909 85.3293C185.161 85.5194 182.042 82.7308 182.448 81.9703C182.854 81.2097 186.124 79.1562 186.124 79.1562L189.331 81.9322Z" fill="#F7B686"/>
<path d="M187.379 83.7719L187.493 83.924C187.632 84.1268 187.594 84.4057 187.391 84.5578L185.604 85.838C185.401 85.9774 185.122 85.9394 184.97 85.7366L184.856 85.5845C184.717 85.3817 184.755 85.1028 184.958 84.9507L186.745 83.6705C186.948 83.5184 187.227 83.5691 187.379 83.7719Z" fill="#F7B686"/>
<path d="M194.072 59.2066C194.072 59.2066 192.196 65.4558 192.285 67.9909L193.818 67.712C193.818 67.712 194.959 60.3348 195.175 59.0672C195.175 59.0545 194.224 58.6743 194.072 59.2066Z" fill="#436E8E"/>
<path d="M198.926 66.3823C198.901 66.2175 198.09 60.9824 199.218 57.9656C199.218 57.9656 199.712 57.4459 200.283 57.6867C200.283 57.6867 198.99 63.8725 200.143 66.3823H199.218H198.926Z" fill="#436E8E"/>
<path d="M193.565 68.1694C193.565 68.1694 194.047 67.7257 193.869 67.3835C193.692 67.0412 193.4 66.9525 193.121 67.0666C192.842 67.1807 192.804 67.6497 192.906 67.8652C192.994 68.0933 193.4 68.3595 193.565 68.1694Z" fill="#2F1A31"/>
<path d="M200.029 66.6587C200.029 66.6587 199.801 66.177 199.459 66.0883C199.117 65.9996 198.838 66.2911 198.876 66.6587C198.914 67.0263 199.129 67.1784 199.459 67.1531C199.788 67.1404 200.105 66.9503 200.029 66.6587Z" fill="#2F1A31"/>
<path d="M80.7824 131.862L81.5809 138.871C81.657 139.568 82.2401 140.101 82.9372 140.101H104.423C105.145 140.101 105.741 139.53 105.792 138.795L106.223 131.519C106.273 130.721 105.639 130.036 104.841 130.049L82.126 130.315C81.3148 130.328 80.6936 131.05 80.7824 131.862Z" fill="#E28569"/>
<path d="M88.9962 129.124L87.8301 128.795L88.4512 126.64C88.7427 125.626 89.6681 124.916 90.7201 124.916H96.4876C97.6664 124.916 98.6678 125.803 98.8199 126.982L99.0734 128.884L97.8692 129.048L97.6157 127.147C97.5397 126.577 97.058 126.133 96.4876 126.133H90.7201C90.2131 126.133 89.7695 126.475 89.63 126.969L88.9962 129.124Z" fill="#2F1A31"/>
<path d="M79.198 129.773V130.623C79.198 131.358 79.7811 131.954 80.5036 131.966L105.969 132.296C106.704 132.308 107.3 131.7 107.3 130.952V130.052C107.3 129.317 106.717 128.721 105.994 128.709L80.5289 128.43C79.7938 128.43 79.198 129.038 79.198 129.773Z" fill="#6F4975"/>
<path d="M150.081 140.761C150.081 140.761 146.962 137.579 148.04 135.766C149.117 133.954 150.917 139.658 150.917 139.658C150.917 139.658 149.979 132.914 151.919 132.8C153.858 132.686 151.919 139.658 151.919 139.658C151.919 139.658 152.641 138.035 153.338 137.934C154.048 137.832 153.845 139.316 152.578 140.761H150.081Z" fill="#BED5DC"/>
<path d="M150.296 140.837C150.284 140.825 149.396 139.912 148.661 138.759C147.66 137.187 147.432 135.932 147.951 135.045C148.154 134.715 148.382 134.563 148.661 134.588C149.193 134.652 149.827 135.501 150.537 137.111C150.753 137.605 150.943 138.099 151.095 138.505C150.917 136.743 150.727 133.232 151.691 132.04C151.906 131.787 152.16 131.648 152.451 131.622C152.743 131.609 152.983 131.711 153.161 131.926C154.036 133.004 153.25 136.832 152.806 138.619C153.136 138.099 153.592 137.516 154.061 137.44C154.276 137.415 154.454 137.491 154.555 137.668C154.834 138.188 154.454 139.506 153.3 140.825L153.123 140.673C154.251 139.38 154.555 138.15 154.34 137.77C154.289 137.668 154.2 137.63 154.074 137.656C153.465 137.745 152.768 139.05 152.54 139.544L152.324 139.468C152.324 139.456 152.755 137.922 153.047 136.236C153.427 134.043 153.389 132.598 152.958 132.066C152.831 131.901 152.654 131.825 152.438 131.838C152.21 131.85 152.007 131.964 151.843 132.167C150.613 133.663 151.399 139.43 151.412 139.481L151.196 139.532C150.791 138.252 149.536 134.905 148.61 134.804C148.433 134.778 148.281 134.892 148.129 135.146C146.975 137.098 150.398 140.635 150.436 140.673L150.296 140.837Z" fill="#42428E"/>
</svg>
