<svg width="101" height="106" viewBox="0 0 101 106" fill="none" xmlns="http://www.w3.org/2000/svg">
<path d="M93.9993 51.5398C92.844 46.507 93.3197 41.4061 92.4362 36.3053C91.7566 32.2246 89.6498 28.756 86.5236 26.1715C81.5624 22.0228 75.9896 21.6828 70.077 20.6626C63.4848 19.5064 59.9508 14.8816 55.0576 10.7329C45.679 2.77561 30.5916 2.91163 23.8634 14.4736C20.5333 20.2545 20.2615 27.3277 19.7178 33.8568C19.446 37.6655 19.1062 41.4741 18.8343 45.2828C18.6304 48.1392 18.7663 51.8799 16.3197 53.7842C14.145 55.4845 11.0188 55.2804 8.64014 56.7087C6.32946 58.0009 4.56247 60.1092 3.20324 62.4216C0.00906986 68.1346 0.144992 74.9357 1.50422 81.2608L99.776 81.1928C101.543 70.787 96.2421 61.2654 93.9993 51.5398Z" fill="#EBE2DD"/>
<path d="M0.824646 79.0176C0.960568 84.5265 2.38775 92.0758 6.94115 96.0204C10.4072 99.0129 16.5916 100.441 21.4848 100.645C26.378 100.849 31.3392 100.373 36.2324 100.713C43.7761 101.257 49.0771 101.869 56.2809 103.774C63.5528 105.61 71.3683 106.902 78.5722 104.862C83.1256 103.57 87.1353 101.053 89.8537 97.7207C91.4168 95.8164 92.5722 93.64 94.2032 91.8037C95.8343 89.9674 98.0091 88.4032 99.3683 86.3628C100.728 84.3225 101.203 81.602 99.5042 79.7657L0.824646 79.0176Z" fill="#B3DEE5"/>
<path d="M68.378 33.7249C68.31 33.7249 68.242 33.7249 68.242 33.7249C67.5624 33.5889 67.1547 32.9088 67.1547 32.2967C67.1547 31.8886 67.2906 31.4805 67.4265 31.0724C67.4945 30.9364 67.4945 30.8684 67.5624 30.7324C67.6984 30.2563 67.7663 29.8482 67.5624 29.5762L67.3585 29.3042L67.6983 29.1681C69.1255 28.42 70.6886 27.9439 72.3197 27.8079L73.543 27.6719L71.2323 29.5082C71.0964 29.5762 71.0284 29.7122 70.9605 29.7802C70.8925 29.9843 70.8925 30.2563 71.0284 30.5284C71.0964 30.6644 71.0964 30.8684 71.0964 31.0044C71.1644 31.6165 70.9605 32.2967 70.4848 32.8407C70.077 33.2488 69.5333 33.5889 68.8537 33.7249C68.7178 33.7249 68.5139 33.7249 68.378 33.7249ZM68.31 29.6442C68.4459 30.0523 68.378 30.4603 68.1741 31.0044C68.1061 31.1405 68.1061 31.2085 68.0382 31.3445C67.9022 31.6846 67.8343 32.0246 67.7663 32.2967C67.7663 32.6367 67.9702 33.0448 68.242 33.0448C68.378 33.0448 68.5139 33.0448 68.5818 32.9768C68.9217 32.9088 69.4653 32.7047 69.8731 32.2286C70.2129 31.8886 70.3488 31.4125 70.3488 30.9364C70.3488 30.8004 70.2809 30.6644 70.2809 30.5284C70.2129 30.1203 70.077 29.7122 70.2809 29.3042C70.4168 29.1001 70.6207 28.9641 70.7566 28.8281L71.0964 28.556C70.145 28.8961 69.1935 29.1681 68.31 29.6442Z" fill="#272525"/>
<path d="M73.4071 38.4141H72.3877V80.0371H73.4071V38.4141Z" fill="#0093B7"/>
<path d="M69.4652 1.14844H68.4458V21.9599H69.4652V1.14844Z" fill="#0093B7"/>
<path d="M71.3002 1.14844H70.2808V21.9599H71.3002V1.14844Z" fill="#0093B7"/>
<path d="M73.9506 1.14844H72.9312V21.9599H73.9506V1.14844Z" fill="#0093B7"/>
<path d="M75.5816 1.14844H74.5622V21.9599H75.5816V1.14844Z" fill="#0093B7"/>
<path d="M77.2128 1.14844H76.1934V21.9599H77.2128V1.14844Z" fill="#0093B7"/>
<path d="M79.7955 39.3612L81.5625 42.0817V18.3457L79.7955 20.9981V39.3612Z" fill="#233865"/>
<path d="M82.5139 42.0137H81.5624V18.3457H82.5139C83.1935 18.3457 83.6692 18.8898 83.6692 19.5019V40.7215C83.7372 41.4696 83.1935 42.0137 82.5139 42.0137Z" fill="#FDBB2E"/>
<path d="M78.7758 39.365H67.2904C66.7467 39.365 66.2709 38.889 66.2709 38.3449V22.0221C66.2709 21.478 66.7467 21.002 67.2904 21.002H78.7758C79.3195 21.002 79.7952 21.478 79.7952 22.0221V38.3449C79.7952 38.889 79.3195 39.365 78.7758 39.365Z" fill="#FDBB2E"/>
<path d="M78.5038 38.4138H67.562C67.2222 38.4138 66.9504 38.1418 66.9504 37.8017V22.5672C66.9504 22.2271 67.2222 21.9551 67.562 21.9551H78.5038C78.8436 21.9551 79.1154 22.2271 79.1154 22.5672V37.8698C79.1154 38.1418 78.8436 38.4138 78.5038 38.4138Z" fill="#233865"/>
<path d="M70.009 25.9023H68.1061V32.0914H70.009V25.9023Z" fill="#B3DEE5"/>
<path d="M72.6593 25.9023H70.7563V32.0914H72.6593V25.9023Z" fill="#B3DEE5"/>
<path d="M75.3778 25.9023H73.4749V32.0914H75.3778V25.9023Z" fill="#B3DEE5"/>
<path d="M78.0284 25.9023H76.1255V32.0914H78.0284V25.9023Z" fill="#B3DEE5"/>
<path d="M69.8728 23.5952C69.8728 23.9352 69.601 24.2073 69.2612 24.2073C68.9214 24.2073 68.6495 23.9352 68.6495 23.5952C68.6495 23.2551 68.9214 22.9831 69.2612 22.9831C69.533 22.9151 69.8728 23.1871 69.8728 23.5952Z" fill="#FDBB2E"/>
<path d="M72.5913 23.5952C72.5913 23.9352 72.3195 24.2073 71.9797 24.2073C71.6399 24.2073 71.368 23.9352 71.368 23.5952C71.368 23.2551 71.6399 22.9831 71.9797 22.9831C72.2515 22.9151 72.5913 23.1871 72.5913 23.5952Z" fill="#FDBB2E"/>
<path d="M75.3099 23.5952C75.3099 23.9352 75.038 24.2073 74.6982 24.2073C74.3584 24.2073 74.0865 23.9352 74.0865 23.5952C74.0865 23.2551 74.3584 22.9831 74.6982 22.9831C74.97 22.9151 75.3099 23.1871 75.3099 23.5952Z" fill="#FDBB2E"/>
<path d="M78.0284 23.5952C78.0284 23.9352 77.7565 24.2073 77.4167 24.2073C77.0769 24.2073 76.8051 23.9352 76.8051 23.5952C76.8051 23.2551 77.0769 22.9831 77.4167 22.9831C77.6885 22.9151 78.0284 23.1871 78.0284 23.5952Z" fill="#FDBB2E"/>
<path d="M85.3683 73.9141H64.8441V86.9723H85.3683V73.9141Z" fill="#233865"/>
<path d="M83.7372 78.4043H65.6595V78.8124H83.7372V78.4043Z" fill="#0093B7"/>
<path d="M75.7859 77.6602H73.815V80.2446H75.7859V77.6602Z" fill="#0093B7"/>
<path d="M86.7276 71.3351C86.6596 70.655 86.5917 69.9749 86.5237 69.2268C85.912 69.2948 85.3004 69.0228 84.8926 68.4787C84.4849 68.0026 84.281 67.3225 84.213 66.6424C84.1451 65.8942 84.281 65.0781 84.6208 64.398C84.9606 63.7179 85.5722 63.2418 86.2519 63.0377C86.2519 62.9017 86.2519 62.8337 86.2519 62.6977L85.98 62.0176C85.7082 62.0856 85.4363 62.2216 85.1645 62.2896C84.8926 62.3576 84.6208 62.4937 84.4169 62.6977C84.213 62.8337 84.0771 63.0378 84.0091 63.2418C83.3975 64.1259 82.7858 65.0101 82.1742 65.8942C82.0383 66.0983 81.9023 66.3023 81.9023 66.5063L81.8344 70.723C81.8344 70.9271 81.7664 71.0631 81.7664 71.2671H86.7276V71.3351Z" fill="#233865"/>
<path d="M91.9604 71.3355C91.9604 71.1315 91.9604 70.9954 91.8925 70.7914L91.8245 66.5747C91.8245 66.3707 91.6206 66.1666 91.5527 65.9626C90.941 65.0784 90.3294 64.1943 89.7177 63.3101C89.5818 63.1061 89.4459 62.9021 89.3099 62.7661C89.1061 62.562 88.8342 62.494 88.5624 62.358C88.2905 62.29 88.0187 62.1539 87.7468 62.0859L87.475 62.7661C87.475 62.9021 87.475 62.9701 87.475 63.1061C88.1546 63.3101 88.7663 63.7862 89.1061 64.4663C89.4459 65.1465 89.5818 65.8946 89.5138 66.7107C89.4459 67.3908 89.242 68.0709 88.8342 68.547C88.4265 69.0231 87.8148 69.3632 87.2032 69.2952C87.1352 69.9753 87.0672 70.6554 86.9993 71.4035H91.9604V71.3355Z" fill="#233865"/>
<path d="M92.0284 89.1513H81.4944C81.0867 89.1513 80.6789 88.8113 80.6789 88.3352V71.0603C80.6789 70.6522 81.0187 70.2441 81.4944 70.2441H91.9604C92.3682 70.2441 92.776 70.5842 92.776 71.0603V88.3352C92.776 88.8113 92.4362 89.1513 92.0284 89.1513Z" fill="#FDBB2E"/>
<path d="M91.0089 72.0176H82.5137V76.3703H91.0089V72.0176Z" fill="#233865"/>
<path d="M90.3975 72.4902H83.1256V75.8228H90.3975V72.4902Z" fill="#0093B7"/>
<path d="M91.4167 80.1112C91.4167 81.4034 90.3973 82.4236 89.106 82.4236C87.8148 82.4236 86.7953 81.4034 86.7953 80.1112C86.7953 78.819 87.8148 77.7988 89.106 77.7988C90.3973 77.7988 91.4167 78.819 91.4167 80.1112Z" fill="#F7F4F2"/>
<path d="M87.4071 86.2271C88.0076 86.2271 88.4945 85.74 88.4945 85.139C88.4945 84.538 88.0076 84.0508 87.4071 84.0508C86.8065 84.0508 86.3197 84.538 86.3197 85.139C86.3197 85.74 86.8065 86.2271 87.4071 86.2271Z" fill="#233865"/>
<path d="M90.3294 86.2271C90.93 86.2271 91.4168 85.74 91.4168 85.139C91.4168 84.538 90.93 84.0508 90.3294 84.0508C89.7289 84.0508 89.2421 84.538 89.2421 85.139C89.2421 85.74 89.7289 86.2271 90.3294 86.2271Z" fill="#233865"/>
<path d="M84.1447 78.9566C84.2806 79.0926 84.2127 79.3647 84.0767 79.5007L83.1253 80.1808C82.9894 80.3168 82.7175 80.2488 82.5816 80.1128C82.4457 79.9768 82.5136 79.7047 82.6496 79.5687L83.601 78.8886C83.8049 78.7526 84.0088 78.8206 84.1447 78.9566Z" fill="#F7F4F2"/>
<path d="M84.1448 80.9929C84.2807 81.1289 84.2127 81.401 84.0768 81.537L83.1253 82.2171C82.9894 82.3531 82.7176 82.2851 82.5817 82.1491C82.4457 82.0131 82.5137 81.741 82.6496 81.605L83.6011 80.9249C83.805 80.7889 84.0088 80.7889 84.1448 80.9929Z" fill="#F7F4F2"/>
<path d="M84.1447 82.9655C84.2806 83.1016 84.2127 83.3736 84.0767 83.5096L83.1253 84.1897C82.9894 84.3258 82.7175 84.2578 82.5816 84.1217C82.4457 83.9857 82.5136 83.7137 82.6496 83.5776L83.601 82.8975C83.8049 82.7615 84.0088 82.7615 84.1447 82.9655Z" fill="#F7F4F2"/>
<path d="M84.1448 84.9371C84.2807 85.0731 84.2127 85.3451 84.0768 85.4812L83.1253 86.1613C82.9894 86.2973 82.7176 86.2293 82.5817 86.0933C82.4457 85.9572 82.5137 85.6852 82.6496 85.5492L83.6011 84.8691C83.805 84.733 84.0088 84.8011 84.1448 84.9371Z" fill="#F7F4F2"/>
<path d="M29.0284 65.6229C28.8245 65.0788 29.0963 64.2626 29.1643 63.7186C29.2323 63.1065 29.3002 62.6984 29.2323 62.1543C29.9798 62.1543 31.2711 62.1543 32.0866 62.1543C31.9507 62.6304 32.2905 63.1745 32.6983 63.4465C33.174 63.7186 33.6497 63.7866 34.1934 63.9226C34.6691 64.0586 35.2128 64.2626 35.5526 64.6707C35.6886 64.8067 35.7565 65.0108 35.7565 65.1468C35.7565 65.2148 35.7565 65.5549 35.6886 65.6229H29.0284Z" fill="#233865"/>
<path d="M28.8245 29.2366C29.708 31.345 31.0672 33.1133 32.2905 35.0856C33.5138 36.9899 35.6206 42.0228 35.7565 44.2672C35.8924 46.3075 35.2808 48.2798 34.7371 50.2522C33.7857 53.8568 32.6983 58.8216 32.5624 62.5622C31.475 62.6983 30.3196 62.8343 29.2323 62.9703C28.8924 58.2775 29.1643 52.2245 30.3876 47.6677C30.4556 47.3277 30.5915 46.9876 30.5235 46.7156C30.4556 46.4435 30.3196 46.2395 30.1837 46.0354C27.7371 42.4989 24.2031 36.1058 21.7565 32.6372C24.0672 31.277 26.3099 29.7807 28.4167 28.1484L28.8245 29.2366Z" fill="#077F93"/>
<path d="M22.1641 14.6152C21.5525 14.6152 20.8729 14.6832 20.3972 15.1593C19.9894 15.5674 19.8535 16.3155 19.9894 16.8596C20.1933 17.8118 20.8729 18.6959 21.8243 19.036C22.5719 19.308 23.3874 19.376 24.135 19.376C24.8826 19.376 25.6302 19.376 26.4457 19.308C26.7175 17.9478 26.8535 16.5196 26.9214 15.0233C25.3583 14.8193 23.7952 14.6152 22.1641 14.6152Z" fill="#AD7805"/>
<path d="M35.8926 7.68217C35.6887 7.68217 35.5528 7.54615 35.4168 7.41012C35.145 7.07007 35.077 6.662 35.145 6.25393C35.2809 5.64183 35.6887 5.09774 36.1644 4.82569C36.2324 4.75768 36.3683 4.68967 36.5042 4.68967C37.1838 4.41762 37.9314 4.34961 38.679 4.34961C38.7469 4.55364 38.611 4.68967 38.4751 4.82569C38.4071 4.8937 38.3392 4.8937 38.3392 4.8937C38.5431 4.8937 38.7469 4.8937 39.0188 4.8937C39.0867 4.8937 39.0867 4.8937 39.1547 4.96171C39.2227 5.02972 39.1547 5.09774 39.1547 5.16575C39.1547 5.23376 39.0867 5.23376 39.0188 5.30177C39.0188 5.5058 38.8829 5.70984 38.679 5.77785C38.4751 5.84586 38.2712 5.84586 38.0673 5.91387C37.6596 5.98188 37.2518 6.11791 36.912 6.32194C36.6401 6.45796 36.5722 6.662 36.6401 6.93404C36.6401 7.00206 36.7081 7.07007 36.7081 7.20609C36.7081 7.34211 36.5722 7.41012 36.5042 7.47814C36.3003 7.54615 36.0965 7.68217 35.8926 7.68217Z" fill="#233865"/>
<path d="M37.8634 5.91018C37.5236 5.91018 37.1158 6.0462 36.9119 6.31825C36.844 6.52228 36.776 6.72632 36.6401 6.86234C36.5721 6.99836 36.4362 7.13439 36.2323 7.2024C36.0964 7.27041 35.8925 7.2024 35.7566 7.06637C35.7566 6.93035 35.7566 6.72632 35.7566 6.59029C35.7566 6.25024 35.8246 5.97819 35.8925 5.70615C35.9605 5.50211 36.0284 5.16205 36.2323 5.09404C36.4362 5.02603 36.5721 4.95802 36.776 4.822C36.9799 4.68597 37.2517 4.75398 37.4556 4.61796C37.6595 4.48194 37.7954 4.20989 37.7275 4.00586C37.0479 4.07387 36.9799 4.07387 36.3682 4.2779C36.1644 4.34592 35.4168 4.61796 35.2809 4.75399C35.009 5.02603 34.8731 5.4341 34.6013 5.70615C34.4653 5.91018 34.3294 6.0462 34.1935 6.25024C34.1255 6.45427 34.0576 6.65831 34.0576 6.99836C33.9896 7.67848 33.9896 8.35859 33.7857 9.10672C33.5818 9.51479 33.4459 9.99087 33.242 10.3989C32.6304 11.8952 32.0187 13.3914 30.8634 14.6156C30.5915 14.8877 30.3197 15.1597 30.0479 15.2958C29.6401 15.4318 29.2323 15.4318 28.8246 15.3638C28.1449 15.2958 27.4653 15.2277 26.7857 15.0917C26.7857 16.656 26.6498 18.0842 26.31 19.3764C27.7372 19.3084 29.2323 19.2404 30.5915 19.2404C31.2032 19.2404 31.8828 19.2404 32.4265 18.9004C32.9022 18.5603 33.1741 18.0162 33.378 17.5401C33.8537 16.452 34.2615 15.4318 34.6013 14.3436C35.009 12.9154 35.077 12.6433 35.4848 10.807C35.4848 10.671 35.7566 9.99087 35.7566 9.85484C35.7566 9.85484 35.7566 9.85484 35.7566 9.78683C35.8925 9.44677 36.0964 9.10672 36.2323 8.9707C36.4362 8.76666 36.7081 8.56263 36.844 8.29058C36.9799 8.01853 36.9799 7.67848 37.1158 7.33842C37.2517 6.99836 37.5915 6.72632 37.8634 6.45427C37.9314 6.38626 37.9993 6.31825 37.9993 6.18223C38.2032 6.0462 37.9993 5.97819 37.8634 5.91018Z" fill="#D39D81"/>
<path d="M24.7468 88.9507L23.7273 88.8147L30.3196 40.2545H20.873L14.2807 88.9507L13.3293 88.8147L19.9895 39.2344H31.4749L24.7468 88.9507Z" fill="#233865"/>
<path d="M27.0575 68.8906H16.4556V69.9108H27.0575V68.8906Z" fill="#233865"/>
<path d="M28.7566 56.0312H18.1547V57.0514H28.7566V56.0312Z" fill="#233865"/>
<path d="M30.3195 43.9219H19.7175V44.942H30.3195V43.9219Z" fill="#233865"/>
<path d="M25.4266 80.7891H14.8246V81.8092H25.4266V80.7891Z" fill="#233865"/>
<path d="M38.6788 86.7744L32.1546 40.2545H22.708L29.2322 86.6384L28.2128 86.7744L21.5526 39.2344H33.038L39.6982 86.6384L38.6788 86.7744Z" fill="#233865"/>
<path d="M35.8923 65.5547H25.2904V66.5749H35.8923V65.5547Z" fill="#233865"/>
<path d="M34.7371 53.3828H24.1351V54.403H34.7371V53.3828Z" fill="#233865"/>
<path d="M33.3099 43.7227H22.7079V44.7428H33.3099V43.7227Z" fill="#233865"/>
<path d="M38.2031 79.0195H27.6012V80.0397H38.2031V79.0195Z" fill="#233865"/>
<path d="M20.3973 65.0097C20.4653 65.8259 20.873 66.574 21.5526 67.0501C21.9604 67.3221 22.4361 67.5262 22.8439 67.7982C23.1837 68.1383 23.4555 68.6824 23.1837 69.0904H18.7662C18.6303 68.6143 18.3585 68.2063 18.0866 67.8662C17.7468 67.5262 17.2711 67.1861 17.1352 66.71C16.9992 66.37 17.1352 65.9619 17.2711 65.5538C17.407 65.1458 17.5429 64.8057 17.6788 64.3976C17.7468 64.2616 17.8148 64.1256 17.8827 64.0576C18.0187 63.9896 18.0866 64.0576 18.2225 64.0576C18.9701 64.3976 19.6497 64.6017 20.3973 65.0097Z" fill="#233865"/>
<path d="M26.5819 32.7706C28.145 36.7833 29.1644 41.068 29.5042 45.4207C29.6401 47.121 29.7081 48.8213 29.1644 50.4536C28.6207 52.2219 27.3974 53.7861 26.378 55.3504C24.2032 58.5469 22.3683 62.0155 21.077 65.6201C19.9217 65.4841 18.3586 64.6 17.2032 64.4639C18.3586 59.9072 19.5819 56.9147 21.4848 53.8541C22.6401 52.0178 23.5916 51.3377 23.6596 49.2294C23.6596 47.9372 23.1838 46.6449 22.6401 45.4207C21.145 41.8161 19.6498 38.2115 18.1547 34.6749C20.6013 34.1988 23.7275 32.4305 25.7664 31.0703L26.5819 32.7706Z" fill="#0093B7"/>
<path d="M19.7858 41.1366C19.9217 40.7285 20.3295 40.4565 20.6693 40.1844C22.0285 39.3683 23.5916 38.8242 25.1547 38.8242C26.1062 40.8646 26.7178 43.0409 26.9217 45.2853C25.4266 46.3735 23.6596 47.2576 21.8926 47.8017C21.0771 46.1695 20.3974 44.4012 19.8538 42.7009C19.7178 42.1568 19.5819 41.6127 19.7858 41.1366Z" fill="#233865"/>
<path d="M24.611 39.5112C24.9508 39.5792 25.2906 39.7152 25.6304 39.9192C26.5139 37.7429 26.8537 35.2945 26.6499 32.9141C26.446 32.9141 26.3101 32.9141 26.1062 32.9141C26.0382 35.2265 25.5625 37.4708 24.611 39.5112Z" fill="#233865"/>
<path d="M24.2033 41.0698C24.2033 41.3419 23.9994 41.5459 23.7276 41.5459C23.4557 41.5459 23.2518 41.3419 23.2518 41.0698C23.2518 40.7978 23.4557 40.5938 23.7276 40.5938C23.9994 40.5938 24.2033 40.7978 24.2033 41.0698Z" fill="#FDBB2E"/>
<path d="M21.4169 41.9565C21.4169 42.2286 21.213 42.4326 20.9412 42.4326C20.6693 42.4326 20.4655 42.2286 20.4655 41.9565C20.4655 41.6845 20.6693 41.4805 20.9412 41.4805C21.213 41.4805 21.4169 41.6845 21.4169 41.9565Z" fill="#FDBB2E"/>
<path d="M28.2129 33.0447C28.6886 32.5006 29.6401 31.4124 29.7081 30.7323C29.776 30.3242 29.6401 29.9842 29.5042 29.6441C28.6886 27.4677 28.009 26.5836 27.1935 24.4752C26.5139 22.5709 25.6984 19.3744 24.6789 17.6061C24.1353 16.5859 23.3877 15.5657 22.3003 15.0216C21.4168 14.6136 20.3974 14.6136 19.5139 14.8176C18.5624 15.0216 17.7469 15.4977 16.9314 16.0418C14.7566 17.4701 12.8537 19.3064 11.5624 21.4827C15.0964 26.2435 17.543 33.1127 19.5139 38.6896C21.8925 39.5738 25.6984 35.8332 28.2129 33.0447Z" fill="#FDBB2E"/>
<path d="M15.5722 21.8906C16.3877 22.9108 16.7275 24.271 16.7275 25.5632C16.7275 26.8555 16.3877 28.1477 16.1159 29.4399C15.5042 28.2837 14.8926 27.0595 14.3489 25.9033C15.1644 24.7471 15.6401 23.3189 15.5722 21.8906Z" fill="#AD7805"/>
<path d="M20.7372 15.2948C20.3974 14.9547 19.8537 14.8867 19.3779 14.8867C18.4265 14.8867 17.475 15.2268 16.5915 15.7709C15.6401 16.315 14.8245 17.0631 14.2129 18.0152C14.077 18.2873 13.8731 18.5593 13.8731 18.8994C13.8051 19.2395 13.8731 19.5795 14.077 19.7835C14.2808 20.0556 14.6207 20.1916 14.9605 20.2596C16.3197 20.5997 17.8148 20.5317 19.0381 19.9196C20.2614 19.2395 21.1449 17.8792 21.077 16.519C21.1449 15.9749 21.009 15.5668 20.7372 15.2948Z" fill="#AD7805"/>
<path d="M14.3487 19.1015C14.4846 19.4416 14.8923 19.6456 15.2322 19.7136C16.2516 19.9177 17.4069 19.7816 18.3584 19.3056C19.3098 18.8295 20.0574 17.9453 20.3292 16.9252C20.3972 16.5851 20.4652 16.177 20.3292 15.837C20.1933 15.4969 19.9215 15.1569 19.5817 15.0888C19.3098 15.0208 18.97 15.1569 18.6982 15.2249C17.203 15.837 15.7079 16.7211 14.6885 18.0133C14.4846 18.3534 14.2127 18.7615 14.3487 19.1015Z" fill="#D39D81"/>
<path d="M13.4651 13.5904C13.3972 13.7264 13.4651 13.8624 13.4651 13.9304C13.9409 15.3586 14.4846 16.7869 14.9603 18.2151C16.6593 18.1471 18.2224 17.1269 19.038 15.5627C17.8826 14.6785 16.8632 13.4543 16.1156 12.1621C15.3001 12.5702 14.4166 12.9782 13.6011 13.3183C13.6011 13.3863 13.5331 13.4543 13.4651 13.5904Z" fill="#D39D81"/>
<path d="M17.8827 14.4065C17.271 13.7264 16.7273 12.9782 16.2516 12.1621C15.4361 12.5702 14.5526 12.9782 13.7371 13.3183C13.6691 13.3183 13.6011 13.3863 13.6011 13.4543C14.4167 14.7465 16.1837 15.2906 17.8827 14.4065Z" fill="#233865"/>
<path d="M17.0673 10.0505C17.3391 10.8667 17.611 11.6828 17.8828 12.4989C17.9508 12.703 18.0187 12.839 17.9508 13.043C17.8828 13.1791 17.8148 13.3151 17.6789 13.3831C17.0673 13.9952 16.1838 14.4033 15.2323 14.4033C14.2809 14.4033 13.3974 14.1312 12.7178 13.5871C12.1061 13.1111 11.7663 12.4309 11.4945 11.7508C11.2226 11.1387 11.0187 10.4586 11.1547 9.8465C11.2906 9.09838 11.8343 8.41826 12.5139 8.01019C13.1935 7.60212 14.009 7.39809 14.8925 7.33008C15.3682 7.73815 15.9799 8.14622 16.0479 8.75832C16.0479 8.89434 16.0479 9.09838 16.1158 9.16639C16.2517 9.37042 16.5915 9.37042 16.7954 9.50644C16.9993 9.71048 17.0673 9.91451 17.0673 10.0505Z" fill="#D39D81"/>
<path d="M16.048 6.58372C15.98 6.71974 15.8441 6.78775 15.7082 6.78775C15.8441 6.44769 15.8441 6.10764 15.7761 5.76758C15.3004 6.17565 14.6888 6.37968 14.0771 6.44769C13.4655 6.58372 12.8538 6.65173 12.2422 6.92377C11.6985 7.19582 11.1548 7.6719 11.1548 8.35201C11.0189 8.284 10.8829 8.35201 10.747 8.42002C10.6111 8.48804 10.6111 8.62406 10.5431 8.76008C10.2033 9.71224 10.2713 10.8684 10.747 11.7526C11.2227 12.7047 12.0383 13.3849 13.0577 13.7249C12.9897 13.3168 12.9218 12.8408 12.7858 12.4327C12.514 12.3647 12.3101 12.2967 12.0383 12.1607C11.8344 12.0246 11.6305 11.8206 11.4946 11.6166C11.3587 11.4125 11.4266 11.0725 11.5625 10.8684C11.6985 10.6644 12.0383 10.5964 12.2422 10.7324C12.3101 10.8684 12.446 11.0045 12.514 11.1405C12.6499 11.2085 12.8538 11.2765 12.9897 11.2085C12.582 10.7324 12.3101 10.1883 12.1742 9.57622C12.1062 9.37218 12.1062 9.16815 12.2422 9.03213C12.3101 8.8961 12.514 8.8961 12.6499 8.82809C13.3295 8.69207 14.0771 8.48804 14.6888 8.14798C15.3004 7.80792 15.8441 7.26383 16.048 6.58372Z" fill="#233865"/>
<path d="M18.8342 43.4508C18.9022 43.5188 18.9702 43.5868 19.0381 43.6549C19.174 43.7909 19.242 43.9949 19.4459 44.1309C19.5818 44.267 19.8536 44.335 20.0575 44.199C19.9216 43.9269 19.7857 43.6549 19.7177 43.3828L18.8342 43.4508Z" fill="#D39D81"/>
<path d="M21.2129 44.2661C21.145 43.9261 21.0091 43.586 20.9411 43.246C22.1644 43.1779 23.4557 43.1099 24.611 42.8379C24.611 42.9739 24.679 42.9739 24.679 43.1099C23.5916 43.45 22.5042 43.8581 21.2129 44.2661Z" fill="#FDBB2E"/>
<path d="M21.4848 43.8592C21.5974 43.8592 21.6887 43.7679 21.6887 43.6552C21.6887 43.5425 21.5974 43.4512 21.4848 43.4512C21.3722 43.4512 21.2809 43.5425 21.2809 43.6552C21.2809 43.7679 21.3722 43.8592 21.4848 43.8592Z" fill="#233865"/>
<path d="M20.941 43.9245C19.9216 43.7884 18.9021 43.9245 17.8827 44.2645C17.6788 44.3325 17.407 44.4686 17.2031 44.4005C16.9313 44.4005 16.7274 44.1285 16.7953 43.9245C17.4749 43.6524 18.2225 43.4484 18.9701 43.4484C19.7177 43.4484 20.6012 43.5844 21.0089 42.9043C21.2128 43.1763 21.0089 43.4484 21.0769 43.5844C21.1449 43.7204 21.1449 43.9245 21.0089 43.9925C21.0089 43.9925 21.0089 43.9925 20.941 43.9245Z" fill="#0093B7"/>
<path d="M20.873 43.7205C19.9895 44.1966 18.9021 44.4007 17.9506 44.4687C17.6788 44.4687 17.4749 44.4687 17.2031 44.6047C16.9992 44.7407 16.7953 44.9447 16.9312 45.1488C17.6788 45.1488 18.4264 45.0808 19.1739 44.8087C19.9215 44.6047 20.6691 44.1966 21.2807 44.6047C21.3487 44.3326 21.1448 44.1286 21.1448 43.9926C21.1448 43.8566 21.1448 43.6525 21.0089 43.7205C20.9409 43.7205 20.873 43.7205 20.873 43.7205Z" fill="#0093B7"/>
<path d="M14.6205 28.279C14.6205 28.2109 14.6205 28.2109 14.6205 28.1429C14.8244 27.1908 15.3681 26.0346 15.7079 25.1504C16.0477 24.2663 15.9797 22.634 15.7079 21.7499C15.436 20.7977 14.5525 20.0496 13.6011 20.1176C12.9215 20.1856 12.3098 20.5937 11.902 21.2058C11.4943 21.7499 11.2904 22.43 11.1545 23.1101C10.7467 24.5383 10.4749 26.0346 10.3389 27.5988C11.6982 28.1429 13.1933 28.347 14.6205 28.279Z" fill="#FDBB2E"/>
<path d="M19.5819 43.1078C19.5819 43.0398 19.5819 43.0398 19.5139 42.9718L19.4459 42.9038C19.1061 42.6998 18.7663 42.3597 18.4945 42.0196C18.4265 41.9516 18.4265 41.8836 18.3586 41.8836C18.2906 41.8156 18.1547 41.8156 18.0867 41.8156C17.7469 41.7476 17.3391 41.6796 16.9993 41.5436C16.7955 41.4755 16.6595 41.4075 16.5236 41.2715C16.3197 41.1355 16.1838 40.9315 16.0479 40.7954C15.9799 40.7274 15.9799 40.6594 15.912 40.5914C15.4362 39.0271 15.1644 37.7349 14.7566 36.1026C14.145 33.3822 13.9411 31.4099 14.6207 28.2813C13.1935 28.3493 11.6984 28.2133 10.2712 27.5332C10.0673 29.5055 10.0673 31.5459 10.4751 33.5182C11.0867 36.8508 12.6498 39.9113 14.4848 42.6998C14.8925 43.5839 15.2324 44.4681 15.776 45.2842C15.844 45.3522 15.912 45.4202 15.9799 45.4882C16.1158 45.5562 16.2518 45.5562 16.3197 45.6242C16.5236 45.6923 16.6595 45.8283 16.7955 45.8283C16.9993 45.8963 17.2032 45.8963 17.2712 45.7603L17.3391 45.6923C17.3391 45.6923 17.4071 45.6923 17.4751 45.6923C17.611 45.6923 17.679 45.7603 17.8149 45.7603C17.9508 45.7603 18.0867 45.6923 18.0867 45.6242C18.0867 45.5562 18.0867 45.5562 18.0867 45.4882C18.1547 45.3522 18.3586 45.4202 18.4945 45.4202C18.7663 45.4202 18.8343 45.0121 19.1061 44.8761C19.1741 44.8081 19.31 44.8081 19.378 44.7401C19.4459 44.6721 19.5819 44.6041 19.5819 44.5361C19.5819 44.4 19.4459 44.332 19.31 44.264C19.1061 44.128 18.8343 44.06 18.6304 43.8559C18.4265 43.7199 18.2906 43.4479 18.2226 43.2438C18.4265 43.3119 18.5624 43.3799 18.7663 43.5159H19.5819C19.6498 43.3119 19.6498 43.1758 19.5819 43.1078Z" fill="#D39D81"/>
<path d="M63.8247 83.986C61.65 83.986 59.5432 83.918 57.3684 83.714C57.3004 82.7618 57.3004 81.7416 57.5043 80.7895C58.2519 80.6535 58.9995 80.4494 59.6791 80.1094C59.6111 80.6535 59.9509 81.1295 60.3587 81.4696C60.7665 81.7416 61.3102 81.8777 61.7859 82.0137C62.2616 82.1497 62.8053 82.2857 63.2131 82.6258C63.6208 82.8978 63.9606 83.4419 63.8247 83.986Z" fill="#233865"/>
<path d="M53.9025 45.7656C54.3782 45.7656 55.7374 45.7656 56.0772 45.9697C56.6209 46.3097 56.485 48.4861 56.5529 49.1662C58.6597 60.116 60.6306 69.4336 60.019 80.8595C59.0675 81.3356 57.5724 81.3356 56.5529 81.3356C55.8054 73.0382 53.3588 65.1489 50.5724 57.3276C49.2811 53.655 47.8539 51.5466 48.8054 45.9697C50.5724 45.8336 52.2714 45.7656 53.9025 45.7656Z" fill="#077F93"/>
<path d="M48.0575 83.8508C48.4653 83.9868 48.873 84.1908 49.2128 84.4629C49.5526 84.7349 49.7565 85.279 49.5526 85.6871C47.106 85.6191 44.6594 85.483 42.2128 85.143C42.0089 84.5309 42.0769 83.8508 42.2808 83.2387C42.4167 82.6266 42.7565 82.0144 43.0284 81.4023C43.9119 81.5384 44.8633 81.6064 45.8148 81.5384C45.8148 82.0825 46.1546 82.6266 46.6303 83.0346C46.9701 83.4427 47.5138 83.6467 48.0575 83.8508Z" fill="#233865"/>
<path d="M45.407 45.3555L44.9993 48.62C43.5041 52.7007 44.3876 56.1693 44.3197 60.522C44.2517 67.9353 43.9119 74.6684 42.4167 81.8776C43.3682 82.6938 44.8634 82.7618 46.3585 81.9456C48.2614 75.7566 49.6886 69.4995 51.0478 63.1745C52.2711 57.4615 53.1546 51.7485 53.4265 45.8996C50.9798 45.8316 47.8536 45.4235 45.407 45.3555Z" fill="#0093B7"/>
<path d="M58.2516 27.8086C57.4361 28.6247 57.0963 28.9648 56.7565 30.053C56.4166 31.0731 56.6205 32.2293 56.8244 33.3175C57.0283 34.3377 57.3681 35.3579 57.8438 36.31C59.0671 35.8339 60.1545 35.0178 61.2419 33.9976C60.4943 32.0253 59.9506 29.985 58.2516 27.8086Z" fill="#AD7805"/>
<path d="M69.8728 30.9349C69.7369 30.8668 69.601 30.7308 69.533 30.5948C69.3971 30.2547 69.4651 29.8467 69.601 29.5066C69.8728 29.0305 70.3485 28.7585 70.8243 28.5545C70.8922 28.5545 71.0282 28.4864 71.1641 28.4864C71.7757 28.4184 72.4553 28.5545 73.067 28.7585C73.067 28.8945 72.9311 29.0305 72.7951 29.0985C72.7272 29.0985 72.6592 29.0985 72.6592 29.1666C72.8631 29.2346 72.999 29.3026 73.2029 29.3706C73.2029 29.3706 73.2709 29.3706 73.2709 29.4386C73.3388 29.5066 73.2709 29.5746 73.2029 29.6426C73.135 29.6426 73.135 29.7106 73.067 29.7106C73.067 29.9147 72.8631 30.0507 72.6592 30.0507C72.4553 30.0507 72.2515 29.9827 72.1155 29.9827C71.7757 29.9147 71.368 29.9147 71.0282 29.9827C70.8243 30.0507 70.6884 30.2547 70.6884 30.4588C70.6884 30.5268 70.6884 30.5948 70.6884 30.6628C70.6204 30.7308 70.5524 30.7988 70.4845 30.7988C70.2806 30.9349 70.0767 31.0029 69.8728 30.9349Z" fill="#233865"/>
<path d="M70.4846 29.5079C70.6205 29.3038 70.7565 29.0318 70.9603 29.0318C71.1642 29.0318 71.3001 28.9638 71.572 28.9638C71.7759 28.8958 72.0477 29.0318 72.2516 28.9638C72.4555 28.8958 72.6594 28.6917 72.6594 28.4877C72.0477 28.3517 71.9798 28.3517 71.4361 28.4197C71.2322 28.4197 70.5526 28.4877 70.3487 28.5557C70.0089 28.6917 69.805 29.0318 69.5332 29.2358C69.3972 29.3718 69.1933 29.4398 69.0574 29.5759C68.9215 29.7119 68.8535 29.9159 68.7856 30.256C68.5817 30.8681 68.3099 31.4802 67.97 32.0243C66.6788 33.3165 64.9798 34.2687 63.4167 35.2888C63.0089 35.5609 62.6011 35.7649 62.2613 36.105C61.9215 35.4249 61.5817 34.6767 61.3099 33.9966C60.2225 35.0168 59.1351 35.8329 57.9118 36.309C58.6594 37.8733 59.6788 39.3695 61.106 40.3897C61.2419 40.4577 61.3778 40.5937 61.5817 40.5937H61.6497C61.7176 40.6617 61.7856 40.7297 61.9215 40.7297C62.1934 40.7978 62.4652 40.6617 62.6691 40.4577C65.3196 38.7574 67.2904 36.173 69.1934 33.5885C69.5332 33.1805 69.9409 32.7044 70.2128 32.5684C70.4846 32.4323 70.7565 32.3643 70.9603 32.1603C71.1642 31.9563 71.2322 31.6162 71.4361 31.4122C71.6399 31.1401 72.0477 31.0041 72.3196 30.8681C72.3875 30.8001 72.4555 30.7321 72.5234 30.6641C72.5234 30.528 72.3875 30.46 72.3196 30.392C71.9798 30.256 71.64 30.324 71.3681 30.528C71.2322 30.596 71.1642 30.7321 71.0283 30.8681C70.8924 31.0041 70.7565 31.0721 70.5526 31.0721C70.4167 31.0721 70.2807 30.9361 70.1448 30.8001C70.2128 30.6641 70.2128 30.528 70.2807 30.392C70.2128 29.9839 70.3487 29.7799 70.4846 29.5079Z" fill="#D39D81"/>
<path d="M50.9118 26.5859C50.0963 26.5859 49.1448 26.5859 48.4652 27.13C47.8536 27.6061 47.6497 28.3542 47.3779 29.0343C45.4749 35.0874 44.3876 41.2084 44.5235 47.5335C48.805 47.1254 52.7468 47.0574 57.0283 47.0574C56.6885 43.5208 56.2808 40.6643 57.1643 37.1957C57.5041 35.7675 58.1157 34.5433 58.5235 33.183C58.9312 31.8228 59.2031 29.8505 58.1157 27.7421C55.5332 26.926 53.6982 26.6539 50.9118 26.5859Z" fill="#FDBB2E"/>
<path d="M56.5526 30.1193C56.8925 29.8472 57.1643 29.4391 57.3002 29.0311C57.4361 28.623 57.3682 28.0789 57.0284 27.7389C56.8245 27.4668 56.4167 27.3308 56.0769 27.1948C55.2614 26.9227 54.4458 26.7187 53.5624 26.6507C52.9507 26.5827 52.2711 26.5147 51.7274 26.7867C51.5915 26.8547 51.3876 26.9907 51.3196 27.1268C51.2517 27.2628 51.3196 27.3988 51.3196 27.5348C51.5235 28.487 51.9313 29.3711 52.6109 30.0512C53.1546 30.5273 53.8342 30.7994 54.5138 30.7994C55.3293 30.7994 56.009 30.5953 56.5526 30.1193Z" fill="#AD7805"/>
<path d="M49.8925 29.3008C51.1158 30.661 51.3876 32.5653 51.2517 34.4016C51.1158 36.2379 50.5721 37.9382 50.3003 39.7745C49.9604 42.0869 50.0964 44.5353 50.6401 46.7797C49.8925 46.7797 49.2129 46.7797 48.4653 46.8477H44.9993C44.6595 42.495 45.475 38.0743 46.6303 33.8575C47.174 32.0893 48.4653 30.389 49.8925 29.3008Z" fill="#AD7805"/>
<path d="M56.2134 27.5322C56.1454 26.6481 56.4852 24.4037 56.4173 23.5195L53.1551 24.7437C52.8833 25.4239 52.6794 26.172 52.4755 26.8521C52.1357 26.8521 52.1357 26.9881 51.7959 27.0561C51.8639 28.1443 52.4075 29.2325 53.291 29.7766C54.1745 30.3887 55.4658 30.3887 56.3493 29.7086C56.7571 29.3685 57.0969 28.8244 56.9609 28.2803C56.825 28.0083 56.5532 27.7362 56.2134 27.5322Z" fill="#D39D81"/>
<path d="M55.9413 23.7246L53.087 24.7448C52.8831 25.2889 52.7472 25.833 52.5433 26.309C54.5141 26.4451 55.6695 25.2889 55.9413 23.7246Z" fill="#233865"/>
<path d="M54.0386 18.7559C53.5629 18.7559 52.9513 18.7559 52.6794 19.1639C52.4755 19.504 52.6115 19.9121 52.5435 20.3201C52.4755 20.5922 52.2717 20.7962 52.0678 21.0682C51.66 21.6123 51.592 22.3605 51.592 22.9726C51.66 23.6527 51.7959 24.2648 51.9998 24.9449C52.0678 25.2169 52.1357 25.489 52.3396 25.625C52.6115 25.829 52.9513 25.8971 53.2231 25.8291C54.1066 25.761 55.194 25.489 55.8736 24.8769C56.4852 24.3328 56.6891 23.5167 57.1649 22.8365C57.5726 22.1564 57.9804 21.4083 57.7765 20.6602C57.7085 19.9801 57.0969 19.368 56.3493 19.0959C55.6697 18.8239 54.8542 18.7559 54.0386 18.7559Z" fill="#D39D81"/>
<path d="M53.0189 17.8712C53.1548 17.9392 53.2907 18.0072 53.4267 18.0752C53.0869 18.0752 52.815 18.2792 52.6111 18.5513C52.4073 18.8233 52.4073 19.1634 52.4752 19.5035C52.5432 19.3674 52.7471 19.2314 52.883 19.1634C53.1548 19.7755 53.7665 20.2516 54.5141 20.3196C54.4461 20.1836 54.5141 20.1156 54.582 20.0475C54.65 20.1836 54.7859 20.3196 54.9898 20.3876C55.1257 20.4556 55.3296 20.4556 55.4655 20.5236C55.7373 20.6596 55.8733 20.9317 55.9412 21.2037C56.0092 21.4758 55.8733 22.1559 55.8733 22.4279C56.281 22.3599 56.349 21.8158 56.5529 21.8839C56.7568 21.9519 56.7568 22.0199 56.8247 22.2239C56.8927 22.4279 56.8247 22.632 56.8247 22.836C56.8247 23.04 56.7568 23.3121 56.6888 23.5161C56.5529 23.7202 56.349 23.8562 56.1451 23.7882C56.0092 24.1282 56.0092 24.6043 56.2131 24.9444C56.8927 24.6043 57.5043 24.1962 58.048 23.7202C57.9801 23.7202 57.9121 23.6522 57.8441 23.6522C58.7956 22.768 59.1354 21.3398 58.7276 20.1156C58.7956 19.5715 58.3878 19.0274 57.9121 18.6873C57.4364 18.3473 56.8927 18.1432 56.417 17.8032C56.417 17.9392 56.349 18.0072 56.349 18.1432C55.1937 17.7352 54.0383 17.6671 53.0189 17.8712Z" fill="#233865"/>
<path d="M49.8926 76.0291C48.1256 76.0291 46.3586 75.281 45.3392 73.8528C45.1353 73.5807 44.9314 73.2407 44.7955 72.9686C43.5042 71.8124 42.5528 70.2482 41.9411 68.2758C40.7178 64.3312 41.3295 59.8424 43.5042 56.3058C44.1159 55.2856 44.7955 54.6055 45.4751 54.1294C45.611 53.8574 45.8149 53.6534 46.0188 53.3813C46.2907 53.0413 46.5625 52.7692 46.9023 52.5652C47.2421 51.817 47.7858 51.0689 48.6013 50.7969L48.8052 51.477C49.0091 51.409 49.213 51.341 49.4848 51.341C50.1644 50.9329 50.8441 50.7969 51.4557 51.2049C51.7955 51.409 52.0674 51.681 52.3392 52.0211L52.747 51.817C53.0188 52.2931 53.1547 52.7692 53.2907 53.2453C53.6305 53.5853 53.9703 53.9254 54.3101 54.3335C55.9411 56.3738 57.0285 58.7542 57.4363 61.3386C57.4363 61.4747 57.5042 61.5427 57.5042 61.6787C58.3198 64.3312 58.3877 66.6435 57.7761 68.6159C57.4363 69.7041 56.8246 70.6562 56.0771 71.4724C55.3295 73.1726 54.0382 74.6009 52.5431 75.349C51.7275 75.8251 50.7761 76.0291 49.8926 76.0291ZM47.7858 74.5329C49.0771 75.145 50.7761 75.145 52.1353 74.4649C52.8149 74.1248 53.4945 73.5807 54.0382 72.9686C53.9703 72.9686 53.9023 73.0366 53.8343 73.0366C52.0674 74.3968 49.8246 75.009 47.7858 74.5329ZM45.679 72.3565C46.2907 72.8326 46.9703 73.2407 47.6499 73.4447C48.8052 73.7847 50.0965 73.7167 51.3198 73.3087C51.0479 73.2407 50.7761 73.2407 50.5042 73.1046C50.1644 73.2407 49.8246 73.3767 49.4848 73.3767C48.3975 73.4447 47.2421 73.0366 46.3586 72.1525C45.8829 71.6764 45.5431 71.2003 45.2712 70.6562C45.3392 71.2683 45.4751 71.8124 45.679 72.3565ZM45.3392 68.1398C45.4072 68.4118 45.5431 68.7519 45.679 69.0239C45.9509 69.7721 46.4266 70.7242 47.1062 71.4043C47.6499 71.9484 48.2615 72.2205 48.8732 72.3565C47.9217 71.7444 47.1062 70.9283 46.4945 69.9081C46.0188 69.16 45.679 68.3438 45.4751 67.3917C45.3392 67.5957 45.3392 67.8677 45.3392 68.1398ZM51.6596 72.2885C51.9314 72.2885 52.2712 72.2885 52.5431 72.2885C52.8149 72.2885 53.0868 72.2205 53.3586 72.0845C53.4945 71.9484 53.6305 71.8124 53.7664 71.6764C54.6499 70.7922 55.3975 69.636 55.8732 68.2758C56.0771 66.3715 55.7373 64.3312 54.8538 61.8827C54.6499 61.2026 54.378 60.3185 54.1062 59.3663C53.8343 58.4822 53.5625 57.462 53.2907 56.5098C53.2907 56.7139 53.2907 56.9179 53.2227 57.1219C53.0868 58.5502 53.0188 59.8424 53.2907 60.9986C53.9023 63.243 54.3101 66.6435 53.0188 69.9081C52.747 70.9963 52.2033 71.7444 51.6596 72.2885ZM45.9508 63.175C45.9508 65.8274 46.4266 67.7997 47.3101 69.364C47.9897 70.4522 49.0771 71.5404 50.3683 72.0164C51.3877 71.4043 51.9994 70.1121 52.1353 69.7041C53.3586 66.7116 52.9508 63.515 52.4072 61.4067C52.0674 60.1144 52.2033 58.6182 52.2712 57.19C52.3392 56.1698 52.4072 55.2176 52.3392 54.3335C52.1353 54.1294 51.9314 53.8574 51.7275 53.6534C51.5237 53.3813 51.3198 53.1773 51.0479 53.0413C50.5042 52.7692 49.9606 52.6332 49.3489 52.6332C49.0771 52.8372 48.8052 53.1093 48.5334 53.3133C48.2615 53.5173 47.9897 53.7894 47.7178 53.9934C46.9023 56.8499 46.3586 60.0464 45.9508 63.175ZM44.1839 57.19C42.3489 60.4545 41.8732 64.3992 42.9606 68.0038C43.3004 69.0239 43.7081 69.9761 44.2518 70.7922C44.1839 69.9761 44.1839 69.16 44.2518 68.2758C43.0965 64.7392 43.0965 60.7946 44.1839 57.19ZM45.9508 55.3536C45.747 55.6937 45.611 56.1018 45.4751 56.5098C44.4557 59.2983 44.1839 62.3588 44.6596 65.3513C44.7276 64.6032 44.8635 63.8551 44.9314 63.1069C44.9314 63.0389 44.9314 62.9709 44.9314 62.9029C44.9314 60.3865 45.2712 57.8701 45.9508 55.3536ZM54.7858 57.734C54.9217 58.2781 55.0576 58.7542 55.1936 59.2303C55.4654 60.1825 55.6693 60.9986 55.8732 61.6787C56.213 62.6309 56.4848 63.515 56.6208 64.3312C56.6208 63.447 56.5528 62.4948 56.4169 61.6107C56.0091 60.2505 55.4654 58.9583 54.7858 57.734Z" fill="#233865"/>
<path d="M49.4168 35.0194C49.5527 34.4073 49.7566 33.7271 50.0285 33.115C50.4362 32.0269 50.844 31.0067 51.0479 29.9185C51.2518 28.8303 50.912 27.4701 50.1644 26.5859L49.145 26.722C48.1935 26.858 47.378 27.5381 46.8343 28.2862C46.2906 29.1024 46.0187 29.9865 45.7469 30.9387C45.4751 32.0269 45.2712 33.047 45.1353 34.1352C46.4945 34.8833 47.9896 35.1554 49.4168 35.0194Z" fill="#FDBB2E"/>
<path d="M52.6791 52.839C52.815 53.043 52.883 53.247 53.0189 53.383C53.1548 53.5191 53.4266 53.6551 53.5626 53.5871C53.4266 53.247 53.2907 52.839 53.2907 52.4309C53.2907 52.3629 53.2907 52.3629 53.2907 52.2949C53.2907 52.2269 53.2228 52.2269 53.2228 52.2269C52.883 51.9548 52.6111 51.6147 52.4072 51.2067C52.4072 51.1387 52.3393 51.0707 52.2713 51.0707C52.2033 51.0026 52.0674 50.9346 51.9995 50.9346C51.6597 50.7986 51.3198 50.6626 50.98 50.5266C50.8441 50.4586 50.7082 50.3905 50.5723 50.2545C48.5334 45.5617 48.1257 40.1208 49.4169 35.156C47.9218 35.224 46.4946 34.9519 45.1354 34.3398C44.4558 39.7808 45.0674 44.9496 47.514 49.9145C47.582 50.0505 47.8538 50.5266 48.0577 50.8666C48.3296 51.9548 48.6014 53.043 49.0771 53.9952C49.1451 54.0632 49.1451 54.1992 49.2131 54.1992C49.281 54.2672 49.4169 54.3352 49.5529 54.4032C49.6888 54.4712 49.8247 54.6073 50.0286 54.7433C50.1645 54.8113 50.4364 54.8793 50.5723 54.7433L50.6402 54.6753C50.7082 54.6753 50.7082 54.6753 50.7762 54.6753C50.9121 54.7433 50.98 54.7433 51.116 54.8113C51.2519 54.8113 51.3878 54.8113 51.3878 54.6753C51.3878 54.6073 51.3878 54.6073 51.4558 54.5392C51.5237 54.4032 51.5917 54.4712 51.6597 54.4712C51.7276 54.5392 52.0674 54.6073 52.3393 54.5392C52.4072 54.4712 51.9315 53.5871 51.7956 53.383C51.5917 53.179 50.7762 52.839 51.9995 52.2949C52.2713 52.3629 52.5431 52.5669 52.6791 52.839Z" fill="#D39D81"/>
<path d="M39.7663 9.44161C41.2302 9.44161 42.4168 8.25407 42.4168 6.78916C42.4168 5.32426 41.2302 4.13672 39.7663 4.13672C38.3025 4.13672 37.1158 5.32426 37.1158 6.78916C37.1158 8.25407 38.3025 9.44161 39.7663 9.44161Z" fill="#FDBB2E"/>
<path d="M40.7859 3.12109H38.6791V5.43348H40.7859V3.12109Z" fill="#FDBB2E"/>
<path d="M41.1256 1.14844H38.3392V3.46083H41.1256V1.14844Z" fill="#233865"/>
<path d="M84.0091 0.738281H14.6887V1.4184H84.0091V0.738281Z" fill="#0093B7"/>
</svg>
