<svg width="95" height="96" viewBox="0 0 95 96" fill="none" xmlns="http://www.w3.org/2000/svg">
<path d="M88.4189 44.4475C87.3323 39.7239 87.7797 34.9364 86.9488 30.1489C86.3095 26.3189 84.328 23.0634 81.3876 20.6377C76.7214 16.7439 71.4799 16.4247 65.9187 15.4672C59.7184 14.3821 56.3945 10.0414 51.7922 6.14759C42.9711 -1.3209 28.7807 -1.19324 22.4525 9.59458C19.3204 15.0204 19.0647 21.6591 18.5533 27.7871C18.2976 31.3617 17.978 34.9364 17.7223 38.511C17.5306 41.192 17.6584 44.7029 15.3573 46.4902C13.3118 48.086 10.3714 47.8945 8.13419 49.235C5.96087 50.4479 4.29893 52.4267 3.02051 54.597C0.0162227 59.959 0.144064 66.3423 1.42248 72.2788L93.8522 72.215C95.5142 62.5124 90.5283 53.5119 88.4189 44.4475Z" fill="#EBE2DD"/>
<path d="M0.783325 69.7891C0.911167 74.9596 2.25351 82.0451 6.53621 85.7474C9.79618 88.556 15.613 89.8965 20.2153 90.088C24.8176 90.2795 29.4838 89.8327 34.0862 90.1519C41.1814 90.6625 46.1672 91.237 52.9428 93.0244C59.7824 94.7479 67.1333 95.9607 73.9089 94.0457C78.1916 92.8329 81.963 90.471 84.5198 87.3432C85.99 85.5559 87.0766 83.5132 88.6107 81.7897C90.1449 80.0662 92.1903 78.5981 93.4688 76.6831C94.7472 74.7681 95.1946 72.2147 93.5966 70.4912L0.783325 69.7891Z" fill="#B3DEE5"/>
<path d="M77.0621 0.0644531H32.5092V73.4089H77.0621V0.0644531Z" fill="#EBE2DD"/>
<path d="M77.7015 78.1367H45.6132C44.143 78.1367 42.9285 76.9239 42.9285 75.4557V66.1361C42.9285 64.6679 44.143 63.4551 45.6132 63.4551H77.7654C79.2356 63.4551 80.4501 64.6679 80.4501 66.1361V75.3919C80.4501 76.9239 79.2356 78.1367 77.7015 78.1367Z" fill="white"/>
<path d="M73.3548 72.6445H44.2068V77.1767H73.3548V72.6445Z" fill="#233865"/>
<path d="M72.7794 74.4967H44.6542L44.9099 73.3477H73.0351L72.7794 74.4967Z" fill="white"/>
<path d="M72.7794 76.0285H44.6542L44.9099 74.9434H73.0351L72.7794 76.0285Z" fill="#EBE2DD"/>
<path d="M80.0024 75.8976C80.0024 76.7274 79.3632 77.3657 78.5323 77.3657C77.7013 77.3657 77.0621 76.7274 77.0621 75.8976V65.8119C77.0621 64.9821 77.7013 64.3438 78.5323 64.3438C79.3632 64.3438 80.0024 64.9821 80.0024 65.8119V75.8976Z" fill="#EBE2DD"/>
<path d="M75.7201 66.7118C75.7201 66.9672 75.5283 67.2225 75.2087 67.2225C74.953 67.2225 74.6973 67.031 74.6973 66.7118C74.6973 66.3927 74.8891 66.2012 75.2087 66.2012C75.5283 66.2012 75.7201 66.3927 75.7201 66.7118Z" fill="#EBE2DD"/>
<path d="M75.7198 68.8818C75.7198 69.1371 75.5281 69.3924 75.2084 69.3924C74.9528 69.3924 74.6971 69.2009 74.6971 68.8818C74.6971 68.5626 74.8888 68.3711 75.2084 68.3711C75.5281 68.3711 75.7198 68.6264 75.7198 68.8818Z" fill="#EBE2DD"/>
<path d="M71.0533 27.0027C70.6058 27.0027 70.2223 26.6197 70.2223 26.1728V22.8535H71.8842V26.1728C71.8203 26.6197 71.5007 27.0027 71.0533 27.0027Z" fill="#FDBB2E"/>
<path d="M71.0534 26.4274C71.2299 26.4274 71.373 26.2845 71.373 26.1082C71.373 25.932 71.2299 25.7891 71.0534 25.7891C70.8769 25.7891 70.7338 25.932 70.7338 26.1082C70.7338 26.2845 70.8769 26.4274 71.0534 26.4274Z" fill="#233865"/>
<path d="M38.8373 27.0027C38.3898 27.0027 38.0063 26.6197 38.0063 26.1728V22.8535H39.6682V26.1728C39.6682 26.6197 39.2847 27.0027 38.8373 27.0027Z" fill="#FDBB2E"/>
<path d="M38.8372 26.4274C39.0138 26.4274 39.1568 26.2845 39.1568 26.1082C39.1568 25.932 39.0138 25.7891 38.8372 25.7891C38.6607 25.7891 38.5176 25.932 38.5176 26.1082C38.5176 26.2845 38.6607 26.4274 38.8372 26.4274Z" fill="#233865"/>
<path d="M74.505 21.7051H35.7689V23.1732H74.505V21.7051Z" fill="#FDBB2E"/>
<path d="M68.8803 90.5798C69.072 90.0691 68.8164 89.2393 68.7524 88.6648C68.6885 88.0265 68.6246 87.6435 68.6246 87.1328C67.8575 87.1328 66.5791 87.1328 65.8121 87.1328C65.9399 87.6435 65.6203 88.1541 65.1729 88.4095C64.7254 88.6648 64.214 88.7925 63.7027 88.9201C63.1913 89.0478 62.6799 89.2393 62.3603 89.6223C62.2325 89.75 62.1686 89.9415 62.1686 90.133C62.1686 90.1968 62.1686 90.516 62.2325 90.5798H68.8803Z" fill="#233865"/>
<path d="M68.9443 87.3864C67.9215 87.3864 66.5153 87.5141 65.5565 87.3864C63.7667 81.8967 60.9542 76.6624 59.2922 71.1728C57.6303 65.6831 57.1828 59.8743 57.6303 54.1293C59.9953 53.8739 62.4243 53.6186 64.7894 53.3633C65.5565 58.1508 64.4698 63.3213 64.8533 68.1726C65.3008 74.7474 68.6886 80.8116 68.9443 87.3864Z" fill="#077F93"/>
<path d="M64.8532 36.5765C64.15 36.0658 63.1912 36.4488 62.4242 36.768C60.4426 37.6616 58.525 38.4915 56.5434 39.3851C55.9681 39.6405 55.3289 39.8958 54.7536 39.832C54.3062 39.7681 53.9227 39.5766 53.5391 39.3213C52.069 38.4276 50.7266 37.0871 49.3843 35.8105C49.1286 35.4913 48.809 35.1721 48.5533 34.853C48.5533 34.7253 48.4894 34.5976 48.4894 34.47C48.4255 34.3423 48.4255 34.2146 48.2976 34.087C48.2337 33.9593 48.1698 33.7678 48.1059 33.6401C48.0419 33.5125 47.9141 33.3848 47.7863 33.2571C47.7223 33.1295 47.5945 33.0018 47.5945 32.8741C47.5306 32.6826 47.4666 32.4911 47.4027 32.3635C47.2749 32.172 47.0831 32.0443 46.8914 31.9805C46.8274 31.9805 46.6996 31.9805 46.6996 32.0443V32.1081C46.7635 32.2358 46.8914 32.3635 46.9553 32.555C47.0192 32.7465 47.0831 33.0018 47.0831 33.1933C47.0831 33.2571 47.0831 33.321 47.0192 33.4486C46.8914 33.3848 46.6996 33.321 46.5718 33.2571C46.5078 33.1933 46.4439 33.1295 46.3161 33.0018H46.38C46.4439 33.0018 46.5078 32.938 46.5078 32.8741C46.5718 32.7465 46.5078 32.6188 46.38 32.555C46.3161 32.4911 46.1882 32.4911 46.0604 32.4273C45.8686 32.4273 45.6129 32.4911 45.4212 32.6188C45.3573 32.6826 45.2294 32.7465 45.2294 32.8741C45.2294 32.938 45.2933 33.0018 45.4212 33.0656C45.4851 33.1295 45.4851 33.2571 45.549 33.321C45.4212 33.3848 45.2933 33.3848 45.2294 33.5125C45.1016 33.6401 45.0377 33.7678 45.0377 33.8955C45.0377 33.9593 45.1016 34.0231 45.1655 34.087C45.0376 34.1508 44.9737 34.2785 45.0377 34.47C45.0377 34.5976 45.1655 34.7253 45.2933 34.7891C45.3573 34.7891 45.3573 34.7891 45.4212 34.7891C45.3573 34.853 45.3573 34.853 45.2933 34.9168C45.2294 35.0445 45.2933 35.236 45.3573 35.3636C45.4212 35.5551 45.4851 35.6828 45.6129 35.8105C45.7408 35.9381 45.9325 36.002 46.0604 36.0658C46.3161 36.1935 46.5718 36.2573 46.7635 36.385C46.9553 36.4488 47.0831 36.5126 47.2749 36.5126C48.809 39.066 51.3019 42.2576 53.4752 43.8535C53.8587 44.1088 54.2423 44.4279 54.7536 44.4918C55.1372 44.5556 55.5207 44.428 55.9042 44.3003C57.6301 43.7896 59.292 43.0875 60.954 42.3853C61.8489 42.0023 62.6798 41.5555 63.4469 40.981C64.2139 40.4065 64.8532 39.6405 65.1728 38.7468C65.5563 38.1085 65.5563 37.0871 64.8532 36.5765Z" fill="#D39D81"/>
<path d="M59.612 91.7263C59.8037 91.2156 59.548 90.3858 59.4841 89.8113C59.4202 89.173 59.3563 88.79 59.3563 88.2793C58.5892 88.2793 57.3108 88.2793 56.5438 88.2793C56.6716 88.79 56.352 89.3006 55.9046 89.556C55.4571 89.8113 54.9457 89.939 54.4344 90.0666C53.923 90.1943 53.4116 90.3858 53.092 90.7688C52.9642 90.8965 52.9003 91.088 52.9003 91.2795C52.9003 91.3433 52.9003 91.6625 52.9642 91.7263H59.612Z" fill="#233865"/>
<path d="M55.7766 53.8738C54.5621 65.5553 53.3476 77.4921 56.4797 88.8544C57.822 88.7268 59.2283 88.5991 60.5706 88.4714C59.8675 81.1944 59.3561 74.3004 61.5295 67.2149C62.9357 62.6189 65.3008 57.5123 64.7255 52.7886C61.9769 52.661 59.2283 52.4695 56.5436 52.3418L55.7766 53.8738Z" fill="#0093B7"/>
<path d="M42.5448 24.3817C43.0562 24.637 43.3118 25.2753 43.1201 25.786C42.9283 26.2967 42.2252 26.6158 41.7138 26.4243C41.2025 26.2328 40.8189 25.5945 41.0107 25.0838C40.8828 25.1477 40.6911 25.2115 40.5632 25.2753C40.3715 25.9775 40.6272 26.7435 41.1385 27.1903C41.7138 27.6372 42.5448 27.701 43.184 27.3818C43.8232 27.0627 44.2067 26.2967 44.0789 25.5945C44.015 24.8923 43.4397 24.254 42.7366 24.0625C42.6087 24.1263 42.5448 24.254 42.5448 24.3817Z" fill="#233865"/>
<path d="M43.6954 26.6821C43.6315 26.6182 43.5036 26.5544 43.4397 26.6182C43.3758 26.6821 43.3758 26.8097 43.4397 26.8736C43.5036 26.9374 43.5676 27.0012 43.6315 27.0012C45.9326 28.0864 48.106 29.4907 50.0236 31.2142C50.535 31.0866 50.5989 30.7674 50.471 30.3206C48.9369 29.3631 47.4028 28.4056 45.8687 27.4481C45.5491 27.2566 45.1656 27.0012 44.7821 26.9374C44.3985 26.8097 44.015 26.8736 43.6954 26.6821Z" fill="#233865"/>
<path d="M42.8005 27.5761C42.7366 27.5122 42.6727 27.3846 42.6727 27.3207C42.7366 27.2569 42.8005 27.1931 42.8644 27.2569C42.9283 27.3207 42.9923 27.3846 43.0562 27.4484C44.3346 29.6187 46.6358 31.5976 47.1471 33.3211C47.0193 33.6402 46.8275 33.7041 46.5079 33.5764C45.4213 32.1721 44.7181 31.0869 43.6954 29.6187C43.4397 29.2996 43.248 28.9804 43.1201 28.5974C43.0562 28.2782 43.0562 27.8952 42.8005 27.5761Z" fill="#233865"/>
<path d="M64.6616 36.3839C63.8945 35.3625 63.4471 34.1497 63.3192 32.873C62.2965 33.256 61.1459 33.5114 60.0592 33.639C60.0592 34.8519 59.9314 36.0647 59.6757 37.2775C61.2737 36.8307 62.9357 36.5115 64.6616 36.3839Z" fill="#D39D81"/>
<path d="M58.5891 33.958C59.484 34.0857 60.3149 34.1495 61.2098 33.958C62.1686 33.7665 63.1275 33.5112 63.8306 32.8729C64.7255 32.1069 65.6843 31.0217 65.5565 29.8089C65.3008 27.5747 62.2965 26.7449 60.5067 27.5109C59.5479 27.8939 58.8448 28.6599 58.3334 29.5536C57.822 30.4472 57.5663 31.2771 57.3746 32.2345C57.3106 32.5537 57.3106 32.9367 57.4385 33.2559C57.6303 33.7027 58.1416 33.8942 58.5891 33.958Z" fill="#D39D81"/>
<path d="M65.109 28.9153C64.6615 28.0216 63.6388 27.3195 62.68 27.128C61.7211 26.9365 60.5706 27.1918 59.8674 27.894C60.3788 28.1493 60.6984 28.66 60.8902 29.2345C60.9541 29.4898 61.018 29.6813 61.018 29.9366C61.1459 29.8728 61.3376 29.809 61.4655 29.8728C61.7211 30.0005 61.849 30.2558 61.9129 30.5111C61.9129 30.7665 61.7851 31.0218 61.6572 31.2771C61.5294 31.4686 61.3376 31.5963 61.1459 31.724C61.2098 32.0431 61.2737 32.3623 61.4015 32.6176C61.6572 33.256 62.2325 33.8305 62.9356 34.022C63.7027 33.3836 65.3007 32.107 65.7482 31.2133C66.1317 30.3196 65.5564 29.809 65.109 28.9153Z" fill="#233865"/>
<path d="M63.511 26.8089C64.3419 27.2558 65.1729 27.8941 65.7482 28.6601C66.0039 28.9154 66.1957 29.2346 66.2596 29.6176C66.3874 30.1921 66.1317 30.7028 65.7482 31.2134C65.4286 31.6603 64.9812 32.0433 64.7255 32.5539C63.8306 31.7241 63.1914 30.7028 62.3604 29.8091C61.5294 28.9154 60.6345 28.0856 59.4839 27.7664C59.9314 27.5111 60.3149 27.1919 60.7624 26.8728C61.2098 26.6174 61.7212 26.3621 62.2326 26.4259C62.7439 26.4259 63.1274 26.6174 63.511 26.8089Z" fill="#AD7805"/>
<path d="M59.3561 26.8084C58.7808 26.6169 58.2055 26.2978 57.758 25.9148C57.6941 25.8509 57.5663 25.7871 57.4384 25.7871C57.3106 25.7871 57.3106 25.9148 57.2467 25.9786C57.0549 26.4893 57.3106 27.0638 57.758 27.4468C58.2055 27.7659 58.7169 27.9574 59.2282 28.0851C59.9953 28.2766 60.6984 28.7873 61.5294 28.8511C61.4655 28.3404 61.1458 27.5744 60.7623 27.3191C60.3788 27.0638 59.8674 26.9361 59.3561 26.8084Z" fill="#FDBB2E"/>
<path d="M62.552 35.6187C61.1457 35.7464 59.7394 36.3847 58.7806 37.406C57.63 38.555 57.0548 40.1509 56.6073 41.6829C55.5207 45.449 55.0093 49.4067 55.2011 53.3005C55.2011 53.875 55.265 54.5133 55.6485 55.024C56.1599 55.7262 57.1187 55.79 57.9497 55.8539C60.6343 55.9177 63.3829 55.7262 66.0037 55.2155C65.1088 51.3217 64.981 47.3002 65.4923 43.4064C65.6841 41.8105 66.0037 40.2785 65.9398 38.6827C65.8759 37.9167 65.748 37.1507 65.2366 36.64C64.5974 35.8102 63.5108 35.5549 62.552 35.6187Z" fill="#FDBB2E"/>
<path d="M62.6797 38.2368C62.9354 38.5559 63.0632 38.9389 63.1271 39.3857C63.4468 41.6837 62.8715 43.9817 61.9126 46.0882C61.2095 47.6202 60.2507 49.1522 58.9084 50.2374C58.7166 50.4289 58.397 50.5566 58.1413 50.4289C57.9495 50.3012 57.8856 50.0459 57.8856 49.7906C57.566 46.5989 57.9495 43.2796 59.1001 40.2156C59.4836 39.1943 60.0589 38.1729 61.0178 37.8538C61.657 37.6623 62.2962 37.7899 62.6797 38.2368Z" fill="#AD7805"/>
<path d="M56.9271 46.5366C56.7992 43.4726 57.6302 40.3448 59.3561 37.7276C59.8675 36.9616 60.5067 36.2594 61.4016 36.1318C62.2964 36.0679 63.0635 36.7063 63.6388 37.4084C64.6615 38.6851 65.3647 40.2809 65.6203 41.8768C65.876 40.9193 65.7482 39.8341 65.3647 38.9404C64.9811 38.0468 64.3419 37.2169 63.5749 36.5148C63.0635 36.0679 62.4243 35.6211 61.7212 35.6211C61.2098 35.6211 60.8263 35.8764 60.3788 36.1318C58.7808 37.2169 57.7581 38.8766 57.1188 40.6639C56.4796 42.4513 56.2879 44.3662 56.16 46.2812C56.4157 46.4727 56.6714 46.5366 56.9271 46.5366Z" fill="#0093B7"/>
<path d="M58.7167 53.1109C56.7991 51.1959 58.7167 46.2169 58.0775 42.3869C58.0775 41.8762 57.1826 43.089 56.1599 43.1529C55.3289 46.4722 55.0093 49.9192 55.1371 53.3024C55.1371 53.8769 55.2011 54.5152 55.5846 55.0259C56.0959 55.728 57.0548 55.7919 57.8857 55.8557C60.5704 55.9195 63.319 55.728 65.9398 55.2174C65.8759 54.8344 65.8119 54.5152 65.748 54.1322C63.1273 54.3237 60.6983 54.196 58.7167 53.1109Z" fill="#0093B7"/>
<path d="M65.2368 48.4488C65.4286 47.4274 65.3647 46.4061 65.3647 45.3848C64.4058 48.8956 63.1913 52.3426 61.1459 55.3428C61.4655 55.4704 61.7851 55.5343 62.1686 55.6619C62.9357 54.3214 63.5749 52.9809 64.2141 51.5766C64.5976 50.5553 65.0451 49.5339 65.2368 48.4488Z" fill="#0093B7"/>
<path d="M63.0632 37.9786C62.9354 37.4041 62.5519 36.8296 61.9766 36.6381C61.5291 36.5104 61.0178 36.5742 60.5703 36.8296C60.1229 37.0849 59.8033 37.4041 59.4837 37.7871C58.397 39.0637 57.63 40.468 56.8629 41.8724C58.3331 42.2554 59.8033 43.0852 61.0817 44.0427C61.9766 42.7022 62.6797 41.2979 62.9993 39.6382C63.1272 39.1275 63.1911 38.5531 63.0632 37.9786Z" fill="#FDBB2E"/>
<path d="M56.7991 41.9375C56.3517 42.7035 55.9681 43.4695 55.5207 44.1717C53.603 47.3633 50.7905 49.4698 47.8502 52.1508C47.5306 52.0232 47.211 51.9593 46.8913 51.9593C46.7635 51.9593 46.5717 52.0232 46.5717 52.1508C46.4439 52.1508 46.3161 52.087 46.1882 52.0232C46.0604 51.9593 45.9325 51.8955 45.8047 51.8955C45.6768 51.8955 45.4851 52.0232 45.4851 52.1508C45.3572 52.0232 45.1655 52.0232 45.0376 52.1508C44.9098 52.2785 44.8459 52.4062 44.718 52.5338C44.5902 52.5977 44.4623 52.6615 44.3984 52.7253C44.0788 52.9807 44.0788 53.4275 43.7592 53.6828C43.951 53.8105 44.2706 53.8105 44.3984 53.619C44.4623 53.5552 44.5263 53.4275 44.6541 53.2998C44.782 53.236 44.9098 53.236 45.0376 53.236C45.2294 53.236 45.4212 53.236 45.6768 53.2998C45.8686 53.3637 46.0604 53.4275 46.1882 53.619C46.3161 53.8105 46.2521 54.0658 46.1243 54.1935C45.9964 54.3212 45.7408 54.3211 45.4851 54.385C45.1655 54.4488 44.8459 54.5765 44.6541 54.8318C44.5263 54.9595 44.4623 55.2148 44.5902 55.3425C44.6541 55.4063 44.782 55.4701 44.9098 55.4063C45.0376 55.4063 45.2933 55.3425 45.3572 55.2787C45.6129 55.151 45.549 55.0233 45.8686 54.8957C46.1243 54.768 46.6996 54.8318 46.9553 54.8957C46.9553 54.8957 47.7223 55.4063 48.4894 54.385L49.3203 53.8105C49.5121 53.7466 49.6399 53.6828 49.7678 53.5552C52.5803 51.8317 55.7124 49.8528 58.0775 47.6187C59.2281 46.5335 60.3147 45.3207 61.1457 44.1078C59.7395 43.1503 58.3332 42.3205 56.7991 41.9375Z" fill="#D39D81"/>
<path d="M53.7309 81.5803H40.3714V75.7715H53.667V81.5803H53.7309ZM41.0106 80.942H53.0278V76.4098H41.0106V80.942Z" fill="#233865"/>
<path d="M52.8358 78.5156H41.4579L39.8599 81.835V86.1118H54.3699V81.835L52.8358 78.5156Z" fill="#FDBB2E"/>
<path d="M51.3657 75.3242H43.1199V76.8562H51.3657V75.3242Z" fill="#FDBB2E"/>
<path d="M53.9867 81.709H40.4994V82.092H53.9867V81.709Z" fill="#233865"/>
<path d="M47.7224 84.7717H46.7636C46.3161 84.7717 45.9965 84.4525 45.9965 84.0057V81.1332C45.9965 80.6864 46.3161 80.3672 46.7636 80.3672H47.7224C48.1698 80.3672 48.4894 80.6864 48.4894 81.1332V84.0057C48.4894 84.3887 48.1698 84.7717 47.7224 84.7717ZM46.7636 80.9417C46.6996 80.9417 46.6357 81.0055 46.6357 81.0694V83.9418C46.6357 84.0057 46.6996 84.0695 46.7636 84.0695H47.7224C47.7863 84.0695 47.8502 84.0057 47.8502 83.9418V81.0694C47.8502 81.0055 47.7863 80.9417 47.7224 80.9417H46.7636Z" fill="#233865"/>
<path d="M30.208 6.95832C29.9524 7.02215 29.6328 7.53282 28.8657 8.04348C27.9069 8.68182 26.9481 9.25632 25.9893 9.83082C27.843 10.3415 29.5688 11.1075 31.1669 12.1926C31.4865 10.916 31.9978 9.70315 32.637 8.55415C31.5504 8.68182 31.2308 6.70299 30.208 6.95832Z" fill="#D39D81"/>
<path d="M35.3858 4.46719C35.1301 3.82885 34.4909 3.44585 33.8517 3.25435C32.6372 2.87136 31.2309 2.99902 30.336 3.89269C29.569 4.65869 29.3133 5.87152 29.569 6.89285C29.8246 7.97802 30.5278 8.87168 31.3588 9.51001C32.1897 10.1483 33.2764 10.5952 34.2991 10.8505C34.8105 9.38235 35.194 7.85035 35.5136 6.38218C35.5775 5.74385 35.6415 5.04169 35.3858 4.46719Z" fill="#D39D81"/>
<path d="M34.1712 2.87333C32.7649 2.23499 31.2947 2.17116 30.0802 3.12866L29.8885 3.51166C29.3132 3.70316 29.3771 4.02233 29.1853 4.53299C28.9936 5.10749 29.0575 5.68199 29.1214 6.25649C29.1853 6.83099 29.3132 7.40549 29.3132 7.97999C29.7606 7.91615 30.1442 7.78849 30.5916 7.59699C31.2308 7.66082 31.87 7.66082 32.5092 7.40549C32.4453 7.08632 32.4453 6.83099 32.5092 6.51182C32.5732 6.06499 32.8288 5.93732 33.2124 5.93732C33.2763 5.93732 33.3402 5.93732 33.4041 6.00116C33.6598 6.12882 33.7237 6.51182 33.7237 6.76716C33.8516 6.76716 33.9155 6.83099 34.0433 6.83099C33.9794 6.25649 34.1073 5.74582 34.299 5.17132C34.4908 5.17132 34.6825 5.23516 34.8743 5.23516C35.7053 5.36282 36.6641 4.97982 37.1755 4.34149C36.0249 4.21383 35.1939 3.32016 34.1712 2.87333Z" fill="#233865"/>
<path d="M22.3459 58.3438C23.113 58.4076 23.9439 58.4076 24.711 58.4714C24.711 59.3651 25.1584 60.2587 25.8616 60.7694C26.309 61.1524 26.8843 61.3439 27.3318 61.7269C27.7792 62.1099 28.0988 62.6844 27.907 63.2589C26.6925 63.2589 25.478 63.1951 24.1996 63.1951C23.9439 63.1951 23.6883 63.1951 23.4326 63.0674C23.1769 62.9397 22.9851 62.6844 22.7934 62.3652C22.5377 61.9184 22.2181 61.5354 22.1542 61.0247C21.9624 60.1311 22.5377 59.1736 22.3459 58.3438Z" fill="#233865"/>
<path d="M18.4466 25.7891C17.8074 28.8531 18.0631 32.1086 19.0858 35.0449C19.9807 37.4705 21.3231 39.7047 21.7705 42.1942C22.0262 43.7262 21.8984 45.322 21.7705 46.9179C21.5148 50.8117 21.6427 54.7694 22.0262 58.6632C23.1129 58.727 24.1995 58.7908 25.2862 58.8547C25.7336 54.6417 26.245 50.3649 26.6924 46.1519C26.8842 44.4284 27.076 42.7049 27.012 40.9175C26.9481 38.7472 26.4368 36.6407 26.1811 34.4704C25.8615 31.6617 25.8615 28.7892 26.245 26.0444C23.6882 25.9806 21.0674 25.8529 18.4466 25.7891Z" fill="#077F93"/>
<path d="M33.7235 11.3627C32.9564 11.235 32.2533 11.0435 31.4863 10.852C30.1439 10.469 28.7377 9.95836 27.3314 9.89453C26.6283 9.89453 25.9251 9.95836 25.3498 10.2775C24.7746 10.6605 24.3271 11.2989 24.4549 12.001C24.5189 12.5117 24.9024 12.8947 25.2859 13.2139C26.5004 14.2352 28.1624 14.4905 29.6965 14.682C31.0388 14.8097 32.3812 14.9374 33.7235 14.9374C34.107 13.7884 34.2988 12.6394 33.7235 11.3627Z" fill="#AD7805"/>
<path d="M43.0561 13.9147C42.8643 13.2125 42.8004 12.4465 42.8004 11.6805C39.7961 12.0635 36.7279 11.9358 33.7236 11.3613C34.235 12.638 34.1072 13.8508 33.7236 14.9998C36.9197 15.0637 40.0518 14.7445 43.0561 13.9147Z" fill="#D39D81"/>
<path d="M69.967 2.86719H67.7297V21.8895H69.967V2.86719Z" fill="#233865"/>
<path d="M67.9217 2.86719H40.2439V21.8895H67.9217V2.86719Z" fill="white"/>
<path d="M48.1059 6.12643C48.1059 6.25409 47.978 6.38176 47.8502 6.38176H42.4808C42.353 6.38176 42.2252 6.25409 42.2252 6.12643C42.2252 5.99876 42.353 5.87109 42.4808 5.87109H47.9141C48.042 5.87109 48.1059 5.99876 48.1059 6.12643Z" fill="#233865"/>
<path d="M48.1058 7.40377C48.1058 7.53144 47.9779 7.6591 47.8501 7.6591H42.4807C42.3529 7.6591 42.225 7.53144 42.225 7.40377C42.225 7.2761 42.3529 7.14844 42.4807 7.14844H47.914C48.0418 7.14844 48.1058 7.2761 48.1058 7.40377Z" fill="#233865"/>
<path d="M48.106 8.67916C48.106 8.80683 47.9781 8.93449 47.8503 8.93449H42.4809C42.3531 8.93449 42.2252 8.80683 42.2252 8.67916C42.2252 8.55149 42.3531 8.42383 42.4809 8.42383H47.9142C48.042 8.42383 48.106 8.55149 48.106 8.67916Z" fill="#233865"/>
<path d="M48.1059 9.9565C48.1059 10.0842 47.978 10.2118 47.8502 10.2118H42.4808C42.353 10.2118 42.2252 10.0842 42.2252 9.9565C42.2252 9.82884 42.353 9.70117 42.4808 9.70117H47.9141C48.042 9.70117 48.1059 9.82884 48.1059 9.9565Z" fill="#233865"/>
<path d="M48.1058 11.2338C48.1058 11.3615 47.9779 11.4892 47.8501 11.4892H42.4807C42.3529 11.4892 42.225 11.3615 42.225 11.2338C42.225 11.1062 42.3529 10.9785 42.4807 10.9785H47.914C48.0418 10.9785 48.1058 11.1062 48.1058 11.2338Z" fill="#233865"/>
<path d="M48.1059 12.5112C48.1059 12.6389 47.978 12.7665 47.8502 12.7665H42.4808C42.353 12.7665 42.2252 12.6389 42.2252 12.5112C42.2252 12.3835 42.353 12.2559 42.4808 12.2559H47.9141C48.042 12.2559 48.1059 12.3835 48.1059 12.5112Z" fill="#233865"/>
<path d="M48.1059 13.7846C48.1059 13.9123 47.978 14.04 47.8502 14.04H42.4808C42.353 14.04 42.2252 13.9123 42.2252 13.7846C42.2252 13.657 42.353 13.5293 42.4808 13.5293H47.9141C48.042 13.5293 48.1059 13.657 48.1059 13.7846Z" fill="#233865"/>
<path d="M66.0364 13.2692C66.6674 9.37125 64.0147 5.7005 60.1114 5.07033C56.2082 4.44015 52.5324 7.08918 51.9013 10.9871C51.2703 14.885 53.923 18.5558 57.8262 19.186C61.7295 19.8161 65.4053 17.1671 66.0364 13.2692Z" fill="#0093B7"/>
<path d="M65.4719 13.1777C66.0526 9.59299 63.6134 6.21692 60.0237 5.63703C56.4341 5.05713 53.0534 7.49299 52.4727 11.0777C51.892 14.6624 54.3312 18.0385 57.9209 18.6184C61.5105 19.1983 64.8912 16.7624 65.4719 13.1777Z" fill="#233865"/>
<path d="M58.9724 17.8701C55.8403 17.8701 53.2834 15.3168 53.2834 12.189C53.2834 9.06114 55.8403 6.50781 58.9724 6.50781C62.1045 6.50781 64.6614 9.06114 64.6614 12.189C64.6614 15.3168 62.1045 17.8701 58.9724 17.8701ZM58.9724 6.76315C55.9681 6.76315 53.6031 9.18881 53.6031 12.1251C53.6031 15.0615 56.0321 17.4871 58.9724 17.4871C61.9767 17.4871 64.3418 15.0615 64.3418 12.1251C64.3418 9.18881 61.9767 6.76315 58.9724 6.76315Z" fill="#0093B7"/>
<path d="M58.9723 16.5336C56.5433 16.5336 54.5618 14.5548 54.5618 12.1291C54.5618 9.70344 56.5433 7.72461 58.9723 7.72461C61.4013 7.72461 63.3829 9.70344 63.3829 12.1291C63.3829 14.5548 61.4013 16.5336 58.9723 16.5336ZM58.9723 8.04378C56.7351 8.04378 54.8814 9.89494 54.8814 12.1291C54.8814 14.3633 56.7351 16.2144 58.9723 16.2144C61.2096 16.2144 63.0633 14.3633 63.0633 12.1291C63.0633 9.89494 61.2096 8.04378 58.9723 8.04378Z" fill="#0093B7"/>
<path d="M58.9724 14.9989C57.3744 14.9989 56.0959 13.7222 56.0959 12.1264C56.0959 10.5306 57.3744 9.25391 58.9724 9.25391C60.5704 9.25391 61.8488 10.5306 61.8488 12.1264C61.8488 13.7222 60.5704 14.9989 58.9724 14.9989ZM58.9724 9.57307C57.5661 9.57307 56.4156 10.7221 56.4156 12.1264C56.4156 13.5307 57.5661 14.6797 58.9724 14.6797C60.3787 14.6797 61.5292 13.5307 61.5292 12.1264C61.5292 10.7221 60.3787 9.57307 58.9724 9.57307Z" fill="#0093B7"/>
<path d="M58.9725 13.6577C58.1415 13.6577 57.4384 12.9556 57.4384 12.1257C57.4384 11.2959 58.1415 10.5938 58.9725 10.5938C59.8034 10.5938 60.5066 11.2959 60.5066 12.1257C60.5066 12.9556 59.8034 13.6577 58.9725 13.6577ZM58.9725 10.9129C58.2693 10.9129 57.758 11.4874 57.758 12.1257C57.758 12.7641 58.3332 13.3386 58.9725 13.3386C59.6756 13.3386 60.187 12.7641 60.187 12.1257C60.187 11.4874 59.6756 10.9129 58.9725 10.9129Z" fill="#0093B7"/>
<path d="M69.4554 17.5518C69.9849 17.5518 70.4142 16.8087 70.4142 15.8921C70.4142 14.9755 69.9849 14.2324 69.4554 14.2324C68.9259 14.2324 68.4966 14.9755 68.4966 15.8921C68.4966 16.8087 68.9259 17.5518 69.4554 17.5518Z" fill="#0093B7"/>
<path d="M74.3134 16.7216H70.4142C69.9028 16.7216 69.4554 16.3386 69.4554 15.7641C69.4554 15.2535 69.8389 14.8066 70.4142 14.8066H74.3134C74.8247 14.8066 75.2722 15.1896 75.2722 15.7641C75.2083 16.2748 74.8247 16.7216 74.3134 16.7216Z" fill="#233865"/>
<path d="M30.7834 92.8747L29.8245 92.8109L33.2763 49.1489H19.0858L15.698 92.8747L14.7392 92.8109L18.2549 48.1914H34.299L30.7834 92.8747Z" fill="#233865"/>
<path d="M32.4453 64.2129H17.4239V65.1704H32.4453V64.2129Z" fill="#233865"/>
<path d="M33.2762 54.3203H18.2548V55.2778H33.2762V54.3203Z" fill="#233865"/>
<path d="M31.6783 74.4258H16.6569V75.3833H31.6783V74.4258Z" fill="#233865"/>
<path d="M30.9113 84.6426H15.8899V85.6001H30.9113V84.6426Z" fill="#233865"/>
<path d="M37.8146 89.1724L34.4268 49.1489H20.3003L23.6881 89.1085L22.7293 89.1724L19.2136 48.1914H35.3217L38.7734 89.1085L37.8146 89.1724Z" fill="#233865"/>
<path d="M36.0888 62.875H21.0674V63.8325H36.0888V62.875Z" fill="#233865"/>
<path d="M35.2579 53.7461H20.2365V54.7036H35.2579V53.7461Z" fill="#233865"/>
<path d="M36.856 72.1953H21.8346V73.1528H36.856V72.1953Z" fill="#233865"/>
<path d="M37.6868 81.5137H22.6653V82.4712H37.6868V81.5137Z" fill="#233865"/>
<path d="M24.9665 63.1967C24.9665 62.4946 25.0943 61.7286 25.2861 61.0264C25.4139 60.6434 25.6057 60.1966 25.9253 60.0051C26.3088 59.7497 26.8202 59.8136 27.2676 59.8774C27.7151 60.0051 28.1625 60.1327 28.61 60.0689C28.4821 60.7072 28.8018 61.3456 29.3131 61.7924C29.7606 62.2392 30.3359 62.5584 30.8472 62.9414C31.2947 63.3882 31.7421 63.9627 31.6143 64.6011C29.7606 64.5372 27.9069 64.5372 26.0531 64.4734C25.8614 64.4734 25.6057 64.4734 25.4139 64.3457C25.0304 64.1542 24.9665 63.6436 24.9665 63.1967Z" fill="#233865"/>
<path d="M28.2266 44.8135C25.7337 49.4095 27.2678 55.2822 25.0945 60.0058C26.6286 60.3888 28.1627 60.6441 29.6968 60.708C30.3999 56.7503 31.4227 52.7927 32.765 48.9627C33.4681 46.92 34.2352 44.8135 34.0434 42.6432C33.8517 40.5367 32.765 38.5578 31.4866 36.8343C30.2082 35.1109 28.738 33.5789 27.5874 31.7277C26.5008 29.8765 25.7976 27.7062 26.2451 25.5997C23.9439 25.472 21.7067 25.4082 19.4055 25.2805C18.9581 25.2805 18.4467 25.2167 18.0632 25.472C17.6157 25.7912 17.424 26.4295 17.424 26.9402C17.1683 30.068 18.8942 33.0044 21.0675 35.3024C23.2408 37.6003 25.7976 39.3877 27.9709 41.6218C28.3545 42.0687 28.738 42.5155 28.8019 43.09C28.8019 43.7922 28.4823 44.3028 28.2266 44.8135Z" fill="#0093B7"/>
<path d="M27.1398 8.68113C27.3955 8.55346 27.7151 8.6173 28.0347 8.68113C28.8657 8.87263 29.6967 9.1918 30.3359 9.70246C31.039 10.2131 31.4865 11.043 31.4226 11.8728C30.0802 10.4046 28.1626 9.5748 26.181 9.51096C26.5646 9.31946 26.7563 8.87263 27.1398 8.68113Z" fill="#AD7805"/>
<path d="M27.779 9.32078C25.9252 9.19311 24.1994 10.2783 22.857 11.5549C20.8116 13.5338 19.2775 16.0871 18.3187 18.7681C17.3598 21.4491 16.9124 24.3216 16.7845 27.1941C20.1724 27.7686 23.5602 27.9601 26.948 27.7686C27.0758 25.0876 27.9068 22.4066 29.3131 20.1086C30.208 18.6404 31.3585 17.2361 31.806 15.5764C32.1895 14.2359 31.9977 12.7039 31.2307 11.4911C30.4636 10.2783 29.1852 9.38461 27.779 9.32078Z" fill="#FDBB2E"/>
<path d="M26.5645 12.7031C26.2449 12.7031 25.9253 12.8946 25.7974 13.0861C25.6057 13.2776 25.5417 13.533 25.4778 13.7883C24.9664 15.7033 25.4139 17.746 26.7562 19.4056C27.9707 18.3843 29.2491 17.363 30.4636 16.2778C29.5688 15.7033 28.8017 15.0011 28.2903 14.2351C28.0986 13.9798 27.9707 13.7245 27.779 13.533C27.5872 13.3415 27.2676 13.15 26.8841 13.15L26.5645 12.7031Z" fill="#AD7805"/>
<path d="M28.4821 17.8704C26.0531 22.4664 22.2818 25.0197 17.1042 23.4239C16.7846 25.0197 16.9124 25.658 16.8485 27.2539C20.2363 27.8284 23.6241 28.0199 27.0119 27.8284C27.1398 25.1474 27.9708 22.4664 29.377 20.1684C29.8245 19.4024 30.3998 18.6364 30.8472 17.8704C30.0162 17.5512 28.9296 17.8704 28.4821 17.8704Z" fill="#0093B7"/>
<path d="M22.218 12.9594C23.049 12.1296 23.9439 11.3636 24.9666 10.7891C25.9893 10.2146 27.1399 9.89539 28.3544 9.95923C29.505 10.0231 30.7195 10.5337 31.4226 11.4912C30.2081 10.4061 28.3544 10.2784 26.8203 10.7891C25.2862 11.2997 24.0078 12.3211 22.8572 13.4701C20.9396 15.3212 19.2137 17.4915 17.9992 19.9172C18.5106 17.1724 20.2364 14.8744 22.218 12.9594Z" fill="#0093B7"/>
<path d="M24.7107 10.1484C22.4735 11.6804 21.1311 14.2338 20.5559 16.9148C19.9806 19.5958 19.9806 22.2129 20.1084 24.9578C20.3641 24.7663 20.6198 24.6386 20.9394 24.5748C20.4919 19.6596 21.1311 15.6381 23.6241 11.4251L24.7107 10.1484Z" fill="#0093B7"/>
<path d="M32.3175 14.8745C31.934 14.4277 31.5505 13.8532 31.2309 13.3425C30.7834 12.5127 30.4638 11.619 29.8246 10.9807C29.3132 10.4062 28.5462 10.0232 27.7791 10.087C27.0121 10.087 26.245 10.5338 25.8615 11.236C25.6058 11.8105 25.6058 12.5127 25.7976 13.2148C26.1811 15.1298 27.2678 16.7895 28.674 18.13C30.272 17.4917 31.6144 16.5342 32.3175 14.8745Z" fill="#FDBB2E"/>
<path d="M49.704 18.5122C49.3204 18.3845 48.873 18.3845 48.4256 18.4483C47.9781 18.5122 47.5946 18.576 47.1471 18.576C47.5307 18.3207 47.9781 18.2568 48.3616 18.2568C48.5534 18.2568 48.7452 18.3207 49.0008 18.2568C49.1926 18.2568 49.3844 18.193 49.5122 18.0015C48.6812 17.7462 47.7863 17.5547 47.0193 17.8738C46.6997 18.0015 46.3801 18.193 45.9966 18.193C46.0605 18.0015 46.1244 17.81 46.1883 17.6823C46.3162 17.5547 46.444 17.427 46.5718 17.3632C46.6997 17.2355 46.7636 17.044 46.6997 16.9163C46.6997 16.8525 46.6358 16.8525 46.6358 16.8525C46.5718 16.8525 46.5079 16.8525 46.5079 16.8525C46.1244 17.044 45.8687 17.427 45.4852 17.6185C45.2934 17.7462 45.0377 17.81 44.9099 18.0015C44.7821 18.1292 44.7821 18.3207 44.6542 18.4483C44.6542 18.4483 44.6542 18.4483 44.6542 18.3845C42.0974 18.7675 39.4766 18.7675 37.0476 18.0015C35.1939 17.427 33.4041 16.4057 32.1257 14.9375C31.4226 16.4695 30.1442 17.427 28.61 18.0015C29.1853 18.576 29.8885 19.0867 30.5916 19.5335C32.8928 20.9378 35.6414 21.4485 38.326 21.5123C40.3715 21.5123 42.4809 21.257 44.3985 20.491C44.5264 20.5548 44.5903 20.5548 44.6542 20.6187C44.9099 20.7463 45.2295 20.7463 45.5491 20.6825C45.8687 20.6187 46.1244 20.491 46.3801 20.4272C47.2111 20.1718 48.042 20.0442 48.873 19.8527C49.0008 19.8527 49.1287 19.7888 49.1926 19.725C49.1926 19.6612 49.0648 19.5973 48.9369 19.5973C48.3616 19.6612 47.7863 19.6612 47.2111 19.725C47.3389 19.5335 47.5307 19.4697 47.7224 19.4058C47.9142 19.342 48.1059 19.342 48.2977 19.342C48.6173 19.2782 49.0008 19.2143 49.3204 19.0867C49.3844 19.0867 49.5122 19.0228 49.5122 18.959C49.5122 18.8313 49.3844 18.8313 49.2565 18.8313C49.3204 18.7675 49.4483 18.7675 49.5122 18.7675C49.704 18.7037 49.7679 18.576 49.704 18.5122Z" fill="#D39D81"/>
</svg>
