<svg width="101" height="101" viewBox="0 0 101 101" fill="none" xmlns="http://www.w3.org/2000/svg">
<path d="M93.6831 46.3129C92.5317 41.3008 93.0058 36.221 92.1253 31.1411C91.448 27.0773 89.3483 23.623 86.2327 21.0492C81.2883 16.9176 75.7344 16.579 69.8418 15.563C63.2719 14.4116 59.7498 9.80586 54.8055 5.60654C45.5263 -2.18254 30.49 -2.1148 23.7847 9.39948C20.4658 15.1566 20.1949 22.2006 19.6531 28.7028C19.3821 32.4958 19.0435 36.2887 18.7726 40.0816C18.5694 42.9263 18.7048 46.6516 16.2665 48.548C14.0991 50.2413 10.9835 50.0381 8.6129 51.4605C6.31004 52.7474 4.54903 54.847 3.19441 57.1499C0.0110519 62.8393 0.146514 69.6124 1.50113 75.9114L99.4402 75.8436C101.201 65.5485 95.9182 55.9984 93.6831 46.3129Z" fill="#EBE2DD"/>
<path d="M1.16254 73.6758C1.298 79.162 2.72035 86.6801 7.25833 90.6085C10.7126 93.5887 16.8761 95.0111 21.7528 95.2143C26.6294 95.4175 31.5738 94.9433 36.4504 95.282C43.9686 95.8238 49.2516 96.4334 56.4311 98.3299C63.6783 100.159 71.4674 101.446 78.6469 99.4136C83.1848 98.1267 87.181 95.6206 89.8902 92.3018C91.448 90.4054 92.5995 88.238 94.225 86.4092C95.8506 84.5805 98.018 83.0227 99.3726 80.9907C100.727 78.9588 101.201 76.2496 99.508 74.4208L1.16254 73.6758Z" fill="#B3DEE5"/>
<path d="M34.7567 3.70703H31.4379V76.1115H34.7567V3.70703Z" fill="#AD685C"/>
<path d="M34.7567 8.25H31.4379V12.6525H34.7567V8.25Z" fill="#233865"/>
<path d="M50.6735 3.70703H47.3547V76.1115H50.6735V3.70703Z" fill="#AD685C"/>
<path d="M50.6735 8.25H47.3547V12.6525H50.6735V8.25Z" fill="#233865"/>
<path d="M50.6735 18.8789H47.3547V23.2814H50.6735V18.8789Z" fill="#233865"/>
<path d="M65.9808 4.52344H10.9155V8.72276H65.9808V4.52344Z" fill="#AD685C"/>
<path d="M91.4479 17.8633H88.1291V76.1797H91.4479V17.8633Z" fill="#AD685C"/>
<path d="M91.4479 17.3945H47.4227V20.7134H91.4479V17.3945Z" fill="#AD685C"/>
<path d="M28.1871 27.5488C28.1871 26.4651 27.9162 25.3137 27.3066 24.3655C25.952 22.469 23.3105 22.0626 21.4817 20.6403C20.2626 19.692 19.5175 19.2856 18.7725 17.8633C18.7725 17.8633 14.9118 21.1821 14.6409 23.485C14.3023 25.7878 14.7086 28.1584 14.9796 30.4613C15.3182 33.6446 15.5214 37.4376 15.5891 40.6209C19.3821 42.111 23.5814 41.7723 27.5775 40.8918C27.0357 37.573 27.3066 34.1865 27.8485 30.8676C27.9839 29.7162 28.1871 28.6325 28.1871 27.5488Z" fill="#F96A57"/>
<path d="M29.8126 21.2461C28.3902 22.4653 26.8324 23.6167 25.1391 24.5649C24.8005 24.7681 24.4618 24.9713 24.2586 25.31C23.2427 27.1387 25.3423 30.4575 27.5097 29.3738C28.5934 28.832 29.6094 26.7323 30.5576 25.8518C31.1672 25.31 31.7768 24.7004 32.3186 24.0231C31.0317 23.5489 30.0835 22.6684 29.8126 21.2461Z" fill="#E25247"/>
<path d="M41.2593 10.4763C41.1915 10.4763 41.1915 10.4763 41.1915 10.544C40.7852 10.8826 40.3788 11.289 39.8369 11.289C40.1756 10.6795 40.582 10.0699 40.7174 9.39256C40.7852 9.12164 40.7852 8.91845 40.582 8.78298C40.3788 8.71525 40.311 9.32483 40.1078 9.66349C39.9047 10.0021 39.566 10.4085 39.2273 10.6117C39.566 9.66349 39.7692 8.85071 39.8369 7.90248C39.8369 7.83475 39.8369 7.76702 39.7692 7.69929C39.7015 7.63156 39.566 7.76702 39.4983 7.83475C39.3628 8.03794 39.2951 8.30887 39.2273 8.51206C39.1596 8.91845 39.0242 9.2571 38.821 9.59576C38.7532 9.79895 38.6178 10.0699 38.4146 10.0699C38.6178 9.39256 38.821 8.51206 38.821 7.83475C38.821 7.69929 38.6855 7.56382 38.55 7.49609C38.2791 7.69929 38.2791 8.10567 38.2114 8.3766C38.0759 9.05391 37.805 9.73122 37.3309 10.2731C37.2631 10.3408 37.2631 10.4085 37.1954 10.4085C37.1277 10.4085 37.1277 10.4085 37.0599 10.3408C36.8568 10.2053 36.8568 9.86668 36.8568 9.59576C36.9245 9.32483 36.9245 8.98618 36.7213 8.85071C36.6536 8.78298 36.5858 8.78298 36.5181 8.78298C36.4504 8.78298 36.3826 8.78298 36.3149 8.78298C36.3149 8.78298 36.3149 8.85071 36.3149 8.91845C36.3826 9.18937 36.3149 9.52803 36.2472 9.79895C36.1794 10.0699 36.044 10.2731 35.9763 10.544C35.8408 11.289 36.4504 11.9663 36.3826 12.7114C34.7571 15.9625 32.3188 19.0104 29.745 21.2455C30.0159 22.6679 30.9642 23.5484 32.251 24.0225C34.8248 21.1778 36.9245 17.3171 38.2114 13.5919C38.3468 13.4564 38.55 13.321 38.7532 13.1855C38.8887 13.05 39.0242 12.8468 39.1596 12.6437C39.7692 11.8986 40.7174 11.6277 41.2593 10.8826C41.327 10.8149 41.327 10.7472 41.327 10.6795C41.3947 10.544 41.327 10.4763 41.2593 10.4763Z" fill="#D39D81"/>
<path d="M25.3426 79.5012C25.1394 78.9593 25.4103 78.1465 25.478 77.6047C25.6135 76.9951 25.6812 76.5887 25.6135 76.0469C26.5617 76.0469 28.1195 76.0469 29.0678 76.0469C28.9323 76.521 29.3387 77.0628 29.8128 77.3338C30.3547 77.6047 30.9642 77.6724 31.5738 77.8079C32.1834 77.9433 32.793 78.1465 33.1994 78.5529C33.3348 78.6884 33.4026 78.8916 33.4026 79.027C33.4026 79.0948 33.4026 79.4334 33.3348 79.5012H25.3426Z" fill="#233865"/>
<path d="M20.6689 40.4258C20.1948 47.2666 21.9558 53.972 23.1073 60.7451C24.0555 66.1636 24.5973 71.5821 24.7328 77.0683C26.2906 77.0683 27.7807 76.8651 29.2708 76.391C29.8804 64.4026 29.2708 52.2787 27.442 40.4258H20.6689Z" fill="#077F93"/>
<path d="M17.7565 80.9913C18.2983 80.9913 18.9079 80.9913 19.4498 80.9236C19.7884 80.9236 20.1271 80.8558 20.3303 80.5849C20.5335 80.3817 20.4657 80.0431 20.4657 79.7722C20.4657 78.6207 20.6012 77.6048 20.1271 76.1824C19.3143 76.2501 18.5015 76.1147 17.7565 75.8438C17.9597 76.2501 17.8242 76.6565 17.621 77.0629C17.4178 77.4016 17.0792 77.7402 16.876 78.0789C16.605 78.553 16.4019 79.0948 16.4019 79.6367C16.4019 79.9753 16.4696 80.4495 16.7405 80.6527C16.9437 80.9236 17.3501 80.9236 17.7565 80.9913Z" fill="#233865"/>
<path d="M15.7245 40.4219C16.9437 52.7489 17.2146 65.1437 16.5373 77.4708C18.2983 77.7417 20.1271 77.7417 21.8881 77.403C22.159 65.076 24.5296 52.7489 23.5136 40.4219H15.7245Z" fill="#0093B7"/>
<path d="M24.1232 13.5308C23.3782 12.8535 22.2268 12.6503 21.2785 12.989C20.3303 13.3277 19.5853 14.1404 19.2466 15.0887C18.908 16.0369 18.908 17.1206 19.2466 18.0688C19.4498 18.6784 19.7885 19.288 20.3303 19.6266C21.2108 20.1685 22.3622 19.9653 23.175 19.288C23.9878 18.6107 24.3942 17.6624 24.5974 16.6465C24.8006 15.9014 24.8683 15.1564 24.5974 14.4114C24.3942 13.6663 23.7846 13.0567 23.0395 12.9213L24.1232 13.5308Z" fill="#E25247"/>
<path d="M24.3943 14.1462C23.7847 13.5367 22.7688 13.4012 21.956 13.6721C21.1432 13.943 20.4659 14.6881 20.195 15.5009C19.8563 16.3136 19.9241 17.2619 20.195 18.0746C20.3982 18.6165 20.6691 19.1583 21.1432 19.4293C21.8883 19.9034 22.9042 19.7002 23.5815 19.1583C24.2589 18.6165 24.6652 17.736 24.8684 16.8555C25.0039 16.2459 25.0716 15.5686 24.8684 14.8913C24.6652 14.2817 24.1911 13.7398 23.5138 13.6044L24.3943 14.1462Z" fill="#233865"/>
<path d="M26.5617 16.9883C26.494 16.4465 26.2231 15.8369 25.8844 15.3628C25.8844 15.295 25.8844 15.1596 25.8844 15.0918C25.8844 14.9564 25.8844 14.8209 25.8167 14.6855C25.6812 14.4823 25.4103 14.55 25.2071 14.55C25.0039 14.55 24.8684 14.55 24.6652 14.6177C24.5975 14.6177 24.5975 14.55 24.5298 14.55C24.1911 14.3468 24.1234 14.0759 23.717 13.9404C23.1752 13.7372 22.4301 13.6695 21.8883 13.8727C20.8723 14.2791 20.195 15.9723 20.3305 17.056C20.3982 17.5979 20.6691 18.0043 21.0755 18.3429C21.0755 19.4944 20.94 20.6458 20.6691 21.7972C22.1592 22.4068 23.6493 23.0164 25.1394 23.626C24.733 22.61 24.5298 21.5263 24.3943 20.4426C24.8684 20.2394 25.5457 19.6976 25.6812 19.5621C25.8844 19.3589 26.8326 18.9525 26.8326 18.6139C27.0358 18.0043 26.6294 17.5979 26.5617 16.9883Z" fill="#D39D81"/>
<path d="M21.685 17.3211C21.3463 16.9147 21.0077 16.5084 20.8045 16.0342C20.7367 15.831 20.669 15.6279 20.669 15.4247C20.669 15.2215 20.7367 15.0183 20.9399 14.8828C21.414 16.102 22.2946 17.1179 23.3782 17.863C24.4619 18.5403 25.6811 18.8112 27.0357 18.8112C26.968 19.0144 26.8325 19.2176 26.6293 19.2853C26.4261 19.3531 26.223 19.3531 26.0198 19.2853C24.3942 19.0821 22.7687 18.4726 21.685 17.3211Z" fill="#233865"/>
<path d="M21.753 17.2587C21.5498 17.8005 21.4143 18.6133 21.0757 19.1552C20.6015 18.5456 20.2629 17.5974 20.2629 16.7846C20.2629 15.9718 20.5338 15.2268 21.0757 14.6172C20.9402 15.0913 21.0757 15.3622 21.4143 15.7686C21.0079 15.7686 20.6015 16.4459 20.6693 16.8523C20.6693 17.2587 21.3466 17.3942 21.753 17.2587Z" fill="#233865"/>
<path d="M28.1873 27.5449C28.1873 26.4612 27.9164 25.3098 27.3068 24.3616C25.9522 22.4651 23.3107 22.0587 21.4819 20.6363C20.2628 19.6881 19.5177 19.2817 18.7727 17.8594C18.7727 17.8594 14.912 21.1782 14.6411 23.4811C14.3024 25.7839 14.7088 28.1545 14.9797 30.4574C15.3184 33.6407 15.5216 37.4337 15.5893 40.617C19.3823 42.1071 23.5816 41.7684 27.5777 40.8879C27.0359 37.5691 27.3068 34.1826 27.8486 30.8637C27.9841 29.7123 28.1873 28.6286 28.1873 27.5449Z" fill="#F96A57"/>
<path d="M18.2308 30.6658C17.8922 30.9368 17.4858 31.14 17.0794 31.0722C16.4698 30.9368 16.1312 30.2595 15.9957 29.7176C15.5216 28.0921 15.3184 26.3988 15.3861 24.7732C15.4538 22.809 16.0634 20.7094 17.6212 19.4902C18.0276 19.1516 18.5695 18.9484 19.0436 19.2193C19.3145 19.3548 19.5177 19.6934 19.6532 20.0321C20.4659 21.7931 20.9401 23.7573 20.8046 25.7215C20.6691 27.5502 19.7886 29.5144 18.2308 30.6658Z" fill="#E25247"/>
<path d="M27.8487 30.9375C23.9203 29.9216 20.0596 29.9216 17.5536 34.2563C17.2149 34.595 16.1989 35.0014 15.3862 34.7982C15.5216 36.7624 15.5894 38.7943 15.5894 40.6231C19.3823 42.1131 23.5816 41.7745 27.5778 40.894C27.0359 37.5752 27.4423 36.356 27.7132 32.6985C27.6455 32.5631 27.781 31.1407 27.8487 30.9375Z" fill="#0093B7"/>
<path d="M21.6174 21.7286C21.5497 21.39 21.4819 20.9836 21.2787 20.7127C21.0078 20.1708 20.3982 19.7644 19.8564 19.4258C20.7369 21.5254 21.0755 23.7606 21.211 26.0634C21.3465 28.2985 21.1433 30.6014 20.9401 32.8365C21.4142 32.8365 21.8883 32.7688 22.3624 32.7688C22.5656 28.9759 22.3624 25.3184 21.6174 21.7286Z" fill="#0093B7"/>
<path d="M27.51 27.0794C27.51 26.3344 27.51 25.5893 27.3068 24.912C27.1037 24.2347 26.6973 23.4897 26.02 23.2188C26.8327 25.928 27.0359 28.8404 26.5618 31.5497C26.8327 31.5497 27.1714 31.6851 27.4423 31.8206C27.51 30.195 27.51 28.6372 27.51 27.0794Z" fill="#0093B7"/>
<path d="M15.2504 17.4531C14.9117 19.0109 14.7763 20.5688 14.6408 22.1266C14.5731 23.0748 14.5731 24.0908 14.9117 25.039C15.2504 25.9872 15.9954 26.8 16.9437 26.9355C18.0274 27.1387 19.111 26.3936 19.6529 25.4454C20.1947 24.4972 20.2625 23.3457 20.127 22.262C19.9916 21.1783 19.7884 20.0946 19.7206 19.0109C19.7206 18.6046 19.7206 18.2659 19.7206 17.8595C18.2983 18.5368 16.605 18.6723 15.2504 17.4531Z" fill="#F96A57"/>
<path d="M26.2906 3.7073C26.2229 3.63957 26.0874 3.63957 25.9519 3.63957C25.8842 3.63957 25.8842 3.63957 25.8165 3.63957C25.6133 3.57184 25.6133 3.30092 25.4778 3.23319C25.2746 3.09772 25.0714 3.30092 24.8682 3.23319C24.5973 3.23319 24.5296 2.89453 24.3264 2.89453C24.1232 2.89453 23.9877 3.16546 23.7845 3.16546C23.5813 3.16546 23.4459 2.89453 23.2427 2.96226C23.175 2.96226 23.1072 3.02999 23.0395 3.09772C22.7008 3.43638 22.2945 3.77504 21.9558 4.11369C21.7526 4.31688 21.5494 4.45235 21.4817 4.72327C21.414 4.92646 21.414 5.19739 21.2785 5.40058C21.2108 5.46831 21.2108 5.60377 21.143 5.6715C20.8721 6.01016 20.6689 6.41655 20.398 6.7552C18.5692 8.78713 17.1469 11.1577 16.2664 13.7315C15.86 14.9507 15.5214 16.1698 15.2504 17.389C16.605 18.6081 18.2983 18.4727 19.7207 17.7276C19.7884 16.2375 20.1948 14.7475 20.6012 13.3251C21.0753 11.6996 21.6849 9.8031 22.5654 8.24528C22.7686 7.90663 22.9718 7.56797 23.2427 7.29705C23.2427 7.22932 23.3104 7.22932 23.3782 7.16159C23.4459 7.16159 23.5813 6.89066 23.6491 6.89066C23.8523 6.89066 24.0555 6.82293 24.2587 6.82293C24.4619 6.82293 24.7328 6.7552 24.8682 6.61974C25.0714 6.41655 25.7487 4.58781 26.0874 4.52008C26.2906 4.45235 26.2906 4.58781 26.4261 4.24915C26.4261 4.11369 26.4261 3.84277 26.2906 3.7073Z" fill="#D39D81"/>
<path d="M72.8896 81.4674C73.0927 81.3319 73.0927 81.1287 73.0927 80.8578C73.1605 79.9096 73.1605 78.9613 73.0927 78.0808C71.8736 78.1486 70.7222 78.0131 69.5707 77.7422C69.3675 78.4195 68.6902 78.8936 68.0129 79.1645C67.3356 79.4355 66.5906 79.5709 65.9133 79.8418C65.2359 80.1128 64.6264 80.6546 64.4909 81.3997C64.4909 81.5351 64.4909 81.6706 64.5586 81.8061C64.6264 81.9415 64.8296 81.9415 64.965 81.9415C67.4711 82.2124 69.9771 81.8738 72.4832 81.5351C72.6186 81.6029 72.7541 81.5351 72.8896 81.4674Z" fill="#233865"/>
<path d="M73.8378 38.9297C73.7024 39.2683 73.6346 39.607 73.5669 39.9457C70.0449 52.5436 68.8257 62.5001 68.8935 78.0782C70.0449 78.6878 72.2123 78.7556 73.4992 78.6878C74.3797 69.1377 75.5988 59.9263 78.9854 50.8504C80.4077 46.9897 82.101 43.0613 82.3042 38.9297H73.8378Z" fill="#077F93"/>
<path d="M86.6388 83.3624C87.1806 83.3624 87.7902 83.3624 88.3321 83.2947C88.6707 83.2947 89.0094 83.2269 89.2126 82.956C89.4158 82.7528 89.348 82.4142 89.348 82.1432C89.348 80.9918 89.4835 79.9759 89.0094 78.5535C88.1966 78.6212 87.3838 78.4858 86.6388 78.2148C86.842 78.6212 86.7065 79.0276 86.5033 79.434C86.3001 79.7727 85.9615 80.1113 85.7583 80.45C85.4874 80.9241 85.2842 81.4659 85.2842 82.0078C85.2842 82.3464 85.3519 82.8206 85.6228 83.0238C85.826 83.2947 86.2324 83.3624 86.6388 83.3624Z" fill="#233865"/>
<path d="M86.3002 40.6269L86.2324 38.7305L76.8856 38.8659C77.2919 45.2326 78.3079 51.4639 79.7303 57.6952C81.3558 64.9424 83.2523 72.3251 85.5551 79.4368C87.3161 80.3851 89.2126 79.5723 89.7545 78.2854C87.9935 69.9545 87.1807 63.3168 87.0452 54.8505C86.9098 49.8384 88.0612 45.3004 86.3002 40.6269Z" fill="#0093B7"/>
<path d="M73.2961 19.6258C72.8897 18.4067 71.8737 17.1875 70.5868 17.1875C69.2999 19.4226 68.6904 22.0641 67.7421 24.5025C69.2322 24.9766 70.6546 25.8571 71.8737 27.0762C72.4833 25.8571 72.8897 24.6379 73.2283 23.351C73.4993 22.1319 73.7025 20.845 73.2961 19.6258Z" fill="#F96A57"/>
<path d="M68.1485 24.2334C67.8775 24.9107 67.2002 25.9267 66.7938 26.604C66.3874 26.2653 65.9133 25.9944 65.4392 25.6557C63.3395 24.3688 61.1044 23.2174 59.4111 21.3887C58.8693 21.8628 58.3274 22.3369 57.8533 22.7433C60.2917 25.9944 62.8654 29.3132 66.3874 31.4806C67.6066 32.2256 68.8935 31.0065 69.7063 30.1937C70.5868 29.2455 71.3318 28.1618 71.9414 27.0103C70.6545 25.8589 69.6385 24.7075 68.1485 24.2334Z" fill="#D39D81"/>
<path d="M59.75 23.8269C59.8854 22.9464 59.6822 21.9982 59.2758 21.2531C58.8017 20.5081 58.1244 19.8308 57.3116 19.4921C57.0407 19.3566 56.7021 19.2889 56.3634 19.3566C56.5666 20.034 56.4989 20.7113 56.2957 21.3886C56.1602 21.6595 56.0247 21.9982 56.0925 22.3368C56.1602 22.6077 56.2957 22.8109 56.4311 22.9464C57.1762 23.8946 58.5985 24.2333 59.75 23.8269Z" fill="#233865"/>
<path d="M55.5507 24.5041C55.212 24.2332 54.8734 23.8268 54.9411 23.4204C55.0088 23.2172 55.1443 23.0141 55.2797 22.8109C55.9571 21.9981 56.5666 21.1853 57.2439 20.3048C57.7858 19.6275 58.3276 18.8147 58.1922 18.002C58.8695 18.4761 59.6145 18.9502 60.2918 19.4243C59.0727 20.9144 59.005 23.1495 57.6503 24.5719C57.3794 24.8428 57.0408 25.1137 56.6344 25.1137C56.228 25.046 55.8216 24.7751 55.5507 24.5041Z" fill="#F96A57"/>
<path d="M54.4392 12.3264L52.9333 14.2441L54.9576 15.8337L56.4635 13.916L54.4392 12.3264Z" fill="#233865"/>
<path d="M58.463 19.0141C58.463 18.9463 58.3953 18.9463 58.3953 18.8786C57.9889 18.4722 57.5825 18.0658 57.1084 17.7949C57.3116 18.1336 57.2439 18.6077 56.973 18.8786C56.8375 19.0141 56.6343 19.1495 56.5666 19.3527C56.4988 19.5559 56.702 19.8269 56.9052 19.9623C57.1084 20.0978 57.3116 20.1655 57.5148 20.3687C57.7857 20.03 58.1244 19.6237 58.3953 19.285C58.3953 19.1495 58.463 19.0818 58.463 19.0141Z" fill="#233865"/>
<path d="M53.4951 12.2993L52.6166 13.418L53.5222 14.1291L54.4007 13.0104L53.4951 12.2993Z" fill="#233865"/>
<path d="M51.7793 11.5763L51.4865 11.9492L56.4407 15.8395L56.7335 15.4666L51.7793 11.5763Z" fill="#233865"/>
<path d="M54.3992 15.896L59.8177 20.163C59.9532 20.2985 60.1564 20.2308 60.2918 20.0953L61.3078 18.8084C61.6465 18.3343 61.5787 17.657 61.1046 17.3183L56.2957 13.5254L54.3992 15.896Z" fill="#F96A57"/>
<path d="M55.8893 15.8344C55.8893 16.0376 55.7538 16.173 55.5506 16.173C55.3474 16.173 55.212 16.0376 55.212 15.8344C55.212 15.6312 55.3474 15.4957 55.5506 15.4957C55.6861 15.428 55.8893 15.6312 55.8893 15.8344Z" fill="#233865"/>
<path d="M58.9765 16.784L58.8182 17.0039L60.5775 18.2699L60.7358 18.05L58.9765 16.784Z" fill="#233865"/>
<path d="M58.5722 17.1863L58.4139 17.4062L60.1732 18.6722L60.3315 18.4523L58.5722 17.1863Z" fill="#233865"/>
<path d="M58.267 17.6629L58.1088 17.8828L59.868 19.1488L60.0263 18.9289L58.267 17.6629Z" fill="#233865"/>
<path d="M60.0208 21.0534C59.9531 20.7825 59.9531 20.4438 59.8176 20.1052C59.6144 19.6311 59.0726 19.4279 58.5307 19.3601C58.0566 19.2924 57.5148 19.2924 57.0406 19.0215C56.9052 19.2247 56.9729 19.4956 57.1084 19.6311C57.2438 19.8343 57.447 19.902 57.6502 19.9697C57.8534 20.0375 58.0566 20.1729 58.2598 20.3084C58.5984 20.647 58.5984 21.1889 58.6662 21.663C58.7339 21.9339 58.8694 22.2048 59.0726 22.408C59.2758 22.6112 59.5467 22.6112 59.8176 22.679C60.6304 22.9499 60.3595 22.408 60.3595 22.1371C60.5626 21.7307 60.1563 21.3921 60.0208 21.0534Z" fill="#D39D81"/>
<path d="M57.0407 19.3601C56.973 19.2247 56.9052 19.1569 56.7698 19.0892C56.6343 19.0215 56.5666 19.0215 56.4311 19.0215C56.3634 19.0215 56.2957 19.0215 56.2279 19.0215C56.1602 19.0892 56.1602 19.1569 56.0925 19.2247C56.0925 19.3601 56.0925 19.4956 56.1602 19.5633C56.2279 19.6311 56.3634 19.7665 56.4311 19.7665C56.4989 19.8343 56.6343 19.8343 56.7698 19.8343C56.8375 19.7665 56.9052 19.6988 56.973 19.6311C57.0407 19.5633 57.0407 19.4956 57.0407 19.3601Z" fill="#D39D81"/>
<path d="M57.3793 20.4435C57.2438 20.2403 57.0406 20.1048 56.8374 20.0371C56.7697 20.0371 56.702 20.0371 56.6342 20.0371C56.5665 20.1048 56.5665 20.1726 56.4988 20.2403C56.4988 20.3758 56.4988 20.5112 56.6342 20.6467C56.702 20.7822 56.8374 20.8499 56.9729 20.9176C57.1084 20.9853 57.1761 21.0531 57.3115 20.9853C57.447 20.9176 57.5147 20.8499 57.5147 20.7144C57.447 20.6467 57.447 20.5112 57.3793 20.4435Z" fill="#D39D81"/>
<path d="M56.5665 20.6414C56.4988 20.6414 56.431 20.5737 56.3633 20.6414C56.2956 20.7092 56.2278 20.7769 56.2278 20.9124C56.2278 21.1833 56.2956 21.3865 56.431 21.5897C56.4988 21.6574 56.5665 21.7251 56.702 21.7251C56.8374 21.7251 56.9729 21.5897 57.0406 21.4542C57.0406 21.3187 57.0406 21.1155 56.9052 20.9801C56.8374 20.8446 56.702 20.7092 56.5665 20.6414Z" fill="#D39D81"/>
<path d="M56.2278 21.2508C56.1601 21.2508 56.0924 21.1831 56.0246 21.2508C55.9569 21.2508 55.8892 21.3863 55.8892 21.5217C55.8892 21.7249 55.8892 21.9281 56.0246 22.1313C56.0924 22.2668 56.2278 22.3345 56.3633 22.3345C56.4987 22.3345 56.5665 22.199 56.5665 22.0636C56.5665 21.9281 56.5665 21.8604 56.4987 21.7249C56.431 21.454 56.3633 21.3185 56.2278 21.2508Z" fill="#D39D81"/>
<path d="M79.7982 15.6953C80.8141 15.6953 81.8978 15.6953 82.7106 16.3049C83.3879 16.8467 83.7266 17.7272 83.9975 18.54C86.3003 25.4486 86.9099 32.3572 86.8422 39.6044C81.6946 39.1303 78.4435 39.2657 73.296 39.2657C73.7024 35.2019 73.2282 30.9348 72.1445 26.9387C71.6704 25.3131 70.9931 23.7553 70.519 22.1975C69.9772 20.5719 69.774 18.6755 70.519 17.1854C73.7024 16.2372 76.4116 15.8308 79.7982 15.6953Z" fill="#F96A57"/>
<path d="M83.9976 18.5448C83.7944 17.9353 83.5912 17.3257 83.1848 16.8516C81.5592 16.987 80.2046 18.4094 80.2046 18.9512C80.5433 25.9275 80.5433 32.7684 79.3918 39.3383C82.1688 39.4737 83.9976 39.3383 86.7745 39.5415C86.91 32.362 86.3004 25.4534 83.9976 18.5448Z" fill="#E25247"/>
<path d="M72.2125 27.1445C73.2962 31.0729 73.7026 35.2723 73.2962 39.2684C77.9019 41.7067 81.6948 39.1329 86.8424 39.607C86.9101 35.34 86.7069 31.2084 86.0973 27.1445H72.2125Z" fill="#0093B7"/>
<path d="M80.4078 27.418C80.3401 31.4818 80.1369 36.0875 79.5273 40.0159C82.3043 40.1514 83.9975 39.4064 86.7745 39.6096C86.8422 35.478 86.639 31.4141 86.0295 27.418H80.4078Z" fill="#077F93"/>
<path d="M78.9179 19.0199C78.5792 22.0678 78.647 25.1157 79.1211 28.1636C79.1211 28.299 79.1888 28.5022 79.3243 28.57C79.6629 28.8409 80.1371 28.299 80.4757 28.4345C79.7307 24.2352 79.7307 19.8327 80.5434 15.6333C80.2048 15.4301 79.7984 15.6333 79.5275 15.9043C79.3243 16.1752 79.2566 16.5816 79.1888 16.9879C79.0534 17.6653 78.9856 18.3426 78.9179 19.0199Z" fill="#0093B7"/>
<path d="M72.8896 28.1666C73.2283 28.1666 73.5669 28.2343 73.8378 28.2343C73.0928 26.4055 72.4155 24.5768 72.0091 22.6803C71.6027 20.7839 71.4672 18.7519 71.6704 16.8555C71.3995 16.8555 71.1286 16.9232 70.9931 17.1264C70.9254 17.2619 70.8577 17.3973 70.8577 17.6005C70.8577 21.1225 71.4672 24.78 72.8896 28.1666Z" fill="#0093B7"/>
<path d="M86.5037 25.584C86.3683 23.9584 86.0296 22.3329 85.6232 20.7751C85.3523 19.6914 85.0136 18.6077 84.3363 17.7272C83.659 16.8467 82.7108 16.1016 81.5594 15.8984H80.0693C79.1888 16.9144 79.0533 18.3368 79.2565 19.5559C79.4597 20.8428 80.0015 22.062 80.4757 23.2134C80.8143 24.1616 81.0852 25.1099 81.3562 26.0581C83.0494 25.3808 84.8104 25.1776 86.5037 25.584Z" fill="#F96A57"/>
<path d="M83.9975 41.3662C86.1649 36.4218 87.0454 30.9356 86.5036 25.5171C84.8103 25.1107 82.9816 25.3139 81.4238 25.9912C82.6429 31.0711 82.6429 35.7445 80.8142 40.4857C80.3401 40.8243 79.7305 41.0952 79.4596 41.5694C79.3241 41.8403 79.2564 42.1789 79.1209 42.4499C78.9855 42.7885 78.7823 43.0594 78.5113 43.2626C78.4436 43.2626 78.4436 43.3304 78.4436 43.3981C78.4436 43.4658 78.5113 43.5336 78.5791 43.5336C78.6468 43.6013 78.7145 43.6013 78.85 43.6013C79.1886 43.6013 79.3918 43.3304 79.595 43.0594C79.7305 42.7885 80.0014 42.4499 80.3401 42.5176C80.4078 42.5176 80.4755 42.5176 80.4755 42.5853C80.5433 42.6531 80.5433 42.7208 80.5433 42.7885C80.5433 43.6013 80.2723 44.4141 79.9337 45.2268C79.7305 45.5655 79.4596 45.9042 79.5273 46.3105C79.6628 46.3783 79.9337 46.3783 80.0014 46.1751C80.5433 45.4978 81.0174 44.5495 81.356 43.8045C81.4915 44.0077 81.4238 44.3463 81.356 44.5495C81.2206 45.0236 81.0851 45.43 80.8819 45.8364C80.7465 46.1073 80.611 46.3783 80.611 46.6492C80.611 46.7847 80.611 46.9201 80.7465 46.9878C80.8142 46.9878 80.8819 46.9878 80.9497 46.9201C81.627 46.0396 82.1011 45.0914 82.4397 43.94C82.5075 44.4141 82.5752 45.0236 82.5075 45.4978C82.4397 45.9042 82.0333 46.5815 82.2365 46.6492C82.5752 46.6492 82.7107 46.446 82.8461 46.1073C83.2525 45.3623 83.388 44.4818 83.4557 43.669C83.9298 44.1431 83.9976 44.8205 84.133 45.43C84.133 45.4978 84.133 45.4978 84.2007 45.5655C84.2685 45.6332 84.4039 45.6332 84.4717 45.5655C84.5394 45.4978 84.5394 45.43 84.5394 45.2946C84.6749 44.2109 83.9298 43.1272 83.9975 42.0435C83.9975 41.908 84.0653 41.6371 83.9975 41.3662Z" fill="#D39D81"/>
<path d="M71.3995 5.40328C70.3158 6.08059 69.774 7.16428 69.5708 8.51891C69.4353 9.46714 69.5031 10.4831 69.9094 11.3636C70.2481 12.1087 70.9254 12.786 71.7382 12.786C72.0768 12.786 72.4155 12.6505 72.6864 12.5828C74.3797 11.9055 75.8698 10.8218 77.0212 9.46714C77.4953 8.92529 77.9017 8.31571 77.9017 7.57067C77.9017 7.02882 77.6308 6.48697 77.2244 6.08059C76.818 5.6742 76.3439 5.40328 75.8698 5.20008C74.5152 4.52277 72.6864 4.5905 71.3995 5.40328Z" fill="#F96A57"/>
<path d="M76.4794 6.21533C75.1925 5.87667 73.7024 6.14759 72.6187 7.0281C71.535 7.84087 70.8577 9.12776 70.7222 10.4824C70.6545 10.8888 70.6545 11.2952 70.79 11.7015C70.9254 12.1079 71.1963 12.4466 71.6027 12.5143C72.0768 12.6498 72.4832 12.4466 72.9574 12.2434C74.5152 11.4983 75.9375 10.3469 77.0212 8.92457C77.2244 8.65364 77.4953 8.31499 77.5631 7.97633C77.6985 7.63768 77.6985 7.23129 77.4953 6.89264C77.2921 6.48625 76.8858 6.35079 76.4794 6.21533Z" fill="#233865"/>
<path d="M70.9254 8.04436C70.9254 8.17982 70.8577 8.31529 70.7899 8.31529C70.7222 8.31529 70.6545 8.17982 70.6545 8.04436C70.6545 7.9089 70.7222 7.77344 70.7899 7.77344C70.8577 7.77344 70.9254 7.9089 70.9254 8.04436Z" fill="#233865"/>
<path d="M70.3836 9.80807C70.3836 9.94354 70.3159 10.079 70.2481 10.079C70.1804 10.079 70.1127 9.94354 70.1127 9.80807C70.1127 9.67261 70.1804 9.53715 70.2481 9.53715C70.3159 9.46942 70.3836 9.60488 70.3836 9.80807Z" fill="#233865"/>
<path d="M75.3956 4.93183C73.7023 5.06729 72.1445 6.01553 71.1963 7.37015C72.4154 6.28645 74.041 5.67687 75.6665 5.81233C76.2084 5.88007 76.7502 5.9478 77.1566 6.21872C77.6307 6.48964 77.9694 7.03149 77.9017 7.57334C78.3758 6.96376 78.1049 6.01553 77.563 5.47368C77.0212 4.93183 76.1407 4.8641 75.3956 4.93183Z" fill="#E25247"/>
<path d="M77.0888 16.1717C76.8179 15.0203 76.4115 13.8689 75.9374 12.7852C75.2601 12.8529 74.5828 12.9883 73.9055 13.0561C73.77 13.0561 73.5668 13.1238 73.4313 13.2593C73.2959 13.3947 73.2959 13.5302 73.2959 13.6657C73.2282 14.7494 73.0927 15.7653 73.025 16.849C72.6186 17.0522 72.2799 17.3231 72.1445 17.7295C71.9413 18.3391 72.3476 19.0164 72.8218 19.3551C73.8377 20.1001 75.3955 20.1001 76.4792 19.4228C77.5629 18.7455 78.1725 17.5263 78.308 16.2394C77.9016 16.2394 77.4952 16.2394 77.0888 16.1717Z" fill="#D39D81"/>
<path d="M75.8697 7.03516C76.4793 7.03516 77.1566 7.03516 77.4275 7.50927C77.6984 7.91566 77.4952 8.38978 77.6307 8.79616C77.6984 9.13482 77.9694 9.33801 78.1725 9.60894C78.5789 10.2185 78.7144 11.0313 78.7144 11.7763C78.6467 12.5214 78.4435 13.2664 78.2403 13.9437C78.1725 14.2146 78.1048 14.2146 77.8339 14.4178C77.563 14.621 77.0211 14.6888 76.6147 14.6888C75.5988 14.621 74.5151 14.8242 73.77 14.2146C73.025 13.6051 72.6863 12.9955 72.2122 12.1827C71.7381 11.4377 71.3317 10.0831 71.5349 9.27028C71.7381 8.45751 72.4831 7.84793 73.2959 7.50927C74.041 7.17062 74.9892 7.10289 75.8697 7.03516Z" fill="#D39D81"/>
<path d="M73.0249 13.8708C72.754 13.1257 71.8735 12.8548 71.3993 12.2452C71.1284 11.9066 70.993 11.4324 70.9252 10.9583C70.9252 10.4842 70.993 10.0101 71.1284 9.53597C71.2639 8.99413 71.5348 8.45228 71.8735 7.97816C72.2121 7.50404 72.754 7.16539 73.2958 7.09766C72.8894 7.43631 72.754 7.91043 72.754 8.38455C72.754 8.85866 72.8894 9.33278 72.9572 9.8069C72.754 9.60371 72.4153 9.60371 72.2799 9.8069C72.0767 10.0101 72.0089 10.281 72.0767 10.5519C72.1444 11.0938 72.483 11.5679 72.9572 11.9066C73.1604 12.5839 73.1604 13.2612 73.0249 13.8708Z" fill="#233865"/>
<path d="M71.0608 9.40234C71.3317 10.9602 72.1445 12.4502 73.4314 13.3985C74.7183 14.3467 76.547 14.6854 78.1048 14.2112C78.1048 14.3467 77.9694 14.5499 77.7662 14.6854C75.8697 14.9563 74.7183 14.8208 73.4314 13.9403C72.1445 12.9921 71.3317 11.6375 70.8576 10.1474L71.0608 9.40234Z" fill="#233865"/>
<path d="M60.0883 66.0195H38.2112V77.8047H60.0883V66.0195Z" fill="#233865"/>
<path d="M57.65 66.0195H35.7728V77.8047H57.65V66.0195Z" fill="#077F93"/>
</svg>
