<svg width="101" height="101" viewBox="0 0 101 101" fill="none" xmlns="http://www.w3.org/2000/svg">
<path d="M93.9995 47.0165C92.8441 41.9874 93.3199 36.8903 92.4364 31.7932C91.7568 27.7155 89.65 24.2495 86.5238 21.667C81.5626 17.5213 75.9898 17.1815 70.0771 16.1621C63.4849 15.0068 59.9509 10.3854 54.9897 6.17182C45.679 -1.64373 30.5916 -1.57577 23.8635 9.97765C20.5334 15.7544 20.2615 22.8223 19.7178 29.3466C19.446 33.1524 19.1062 36.9583 18.8343 40.7641C18.6305 43.6185 18.7664 47.3563 16.3198 49.2593C14.145 50.9583 11.0188 50.7544 8.64015 52.1816C6.32947 53.4729 4.56247 55.5797 3.20325 57.8903C0.00906891 63.5991 0.144991 70.3952 1.50422 76.7156L99.7762 76.6476C101.543 66.3175 96.2422 56.735 93.9995 47.0165Z" fill="#EBE2DD"/>
<path d="M0.824524 74.0664C0.960446 79.5713 2.38763 87.115 6.94104 91.0567C10.4071 94.047 16.5915 95.4742 21.4847 95.6781C26.378 95.882 31.3391 95.4062 36.2323 95.746C43.776 96.2897 49.077 96.9014 56.2809 98.8043C63.5528 100.639 71.3683 101.931 78.5722 99.8917C83.1256 98.6004 87.1353 96.0858 89.8538 92.7557C91.4169 90.8528 92.5722 88.6781 94.2033 86.8431C95.8344 85.0082 98.0091 83.4451 99.3684 81.4062C100.728 79.3674 101.203 76.6489 99.5043 74.814L0.824524 74.0664Z" fill="#B3DEE5"/>
<path d="M63.4166 78.1431C63.4166 78.6868 62.2613 79.1625 60.7662 79.1625C59.271 79.1625 58.1157 78.6868 58.1157 78.1431C58.1157 77.5994 59.271 77.1237 60.7662 77.1237C62.1933 77.0557 63.4166 77.5314 63.4166 78.1431Z" fill="#233865"/>
<path d="M61.8537 77.8686C61.174 78.2084 60.4265 78.2084 59.6789 77.8686V65.4316H61.8537V77.8686Z" fill="#0093B7"/>
<path d="M54.0382 36.7484H52.611V32.8746C52.611 32.6707 52.8149 32.4668 53.0188 32.4668H53.6304C53.8343 32.4668 54.0382 32.6707 54.0382 32.8746V36.7484Z" fill="#233865"/>
<path d="M56.4847 34.7127H50.2323C49.8245 34.7127 49.5527 34.3729 49.5527 34.0331C49.5527 33.6254 49.8925 33.3535 50.2323 33.3535H56.4847C56.8925 33.3535 57.1643 33.6933 57.1643 34.0331C57.1643 34.3729 56.8925 34.7127 56.4847 34.7127Z" fill="#233865"/>
<path d="M61.0382 37.9082H46.0187V42.2577H61.0382V37.9082Z" fill="#0093B7"/>
<path d="M83.7373 38.9941H19.0382V41.033H83.7373V38.9941Z" fill="#0093B7"/>
<path d="M62.3974 37.1582H60.9023V43.0708H62.3974V37.1582Z" fill="#233865"/>
<path d="M54.1062 42.0527H51.9994V61.2178H54.1062V42.0527Z" fill="#0093B7"/>
<path d="M54.9216 41.1699H51.1838V46.8107H54.9216V41.1699Z" fill="#0093B7"/>
<path d="M56.213 46.541H49.8246V47.6964H56.213V46.541Z" fill="#233865"/>
<path d="M55.5336 48.5762H50.5724V50.683H55.5336V48.5762Z" fill="#233865"/>
<path d="M61.9898 69.1002H58.3199V66.4497C58.3199 66.3817 58.252 66.3137 58.184 66.3137H55.0578C52.951 66.3137 51.252 64.6147 51.252 62.5079V59.8574H54.9898V62.5079C54.9898 62.5759 55.0578 62.6438 55.1257 62.6438H58.252C60.3588 62.6438 62.0578 64.3429 62.0578 66.4497V69.1002H61.9898Z" fill="#233865"/>
<path d="M53.4266 43.9558C55.6035 43.9558 57.3683 42.191 57.3683 40.014C57.3683 37.837 55.6035 36.0723 53.4266 36.0723C51.2496 36.0723 49.4848 37.837 49.4848 40.014C49.4848 42.191 51.2496 43.9558 53.4266 43.9558Z" fill="#0093B7"/>
<path d="M55.3974 40.0119C55.3974 41.0993 54.5139 41.9828 53.4265 41.9828C52.3391 41.9828 51.4556 41.0993 51.4556 40.0119C51.4556 38.9245 52.3391 38.041 53.4265 38.041C54.5139 38.041 55.3974 38.9245 55.3974 40.0119Z" fill="#233865"/>
<path d="M54.9217 49.3908C54.9217 50.4782 54.0382 51.3617 52.9508 51.3617C51.8634 51.3617 50.9799 50.4782 50.9799 49.3908C50.9799 48.3034 51.8634 47.4199 52.9508 47.4199C54.0382 47.4199 54.9217 48.3034 54.9217 49.3908Z" fill="#233865"/>
<path d="M46.4944 37.1582H44.9992V43.0708H46.4944V37.1582Z" fill="#233865"/>
<path d="M39.3586 38.1113H37.8635V42.257H39.3586V38.1113Z" fill="#233865"/>
<path d="M68.9895 38.1113H67.4943V42.257H68.9895V38.1113Z" fill="#233865"/>
<path d="M29.5042 40.3554C28.8926 39.9476 28.213 39.6078 27.4654 39.5398C26.7178 39.4719 25.9023 39.6758 25.4945 40.2874C25.0868 40.8991 25.0868 41.7146 25.4266 42.3942C25.6984 43.0738 26.2421 43.5495 26.8538 44.0253C28.0771 45.0447 29.912 45.9962 31.2712 46.8797C31.747 47.1515 32.2227 47.4233 32.6984 47.6952C33.5819 46.4719 34.3295 45.1806 34.9411 43.7534C32.9703 42.5301 31.4751 41.5107 29.5042 40.3554Z" fill="#C9433D"/>
<path d="M53.5624 45.181C53.6304 45.0451 53.7663 44.9771 53.7663 44.8412C53.7663 44.7053 53.7663 44.5693 53.6984 44.4334C53.6304 44.3654 53.5624 44.3654 53.4945 44.2975C53.5624 44.2295 53.5624 44.1616 53.6304 44.0936C53.6984 43.9577 53.6984 43.8897 53.6984 43.7538C53.6984 43.6179 53.5624 43.5499 53.4945 43.5499C53.4265 43.4819 53.3586 43.482 53.2906 43.482C53.2906 43.414 53.2906 43.414 53.2906 43.346L53.2226 43.2781C52.8149 43.0742 52.4751 42.9383 52.0673 42.7344C51.5916 43.0742 50.844 42.8703 50.3683 43.2101C50.1644 43.346 50.0285 43.5499 49.8925 43.6858C49.6207 43.8897 49.3488 44.0936 49.077 44.2975C49.009 44.3654 48.8052 44.6373 48.7372 44.8412C45.2712 45.5887 44.1838 45.7926 40.6498 46.0645C39.9702 46.1324 39.2906 46.1324 38.6789 45.9286C37.9993 45.7247 37.1838 45.0451 36.5721 44.7052C36.0284 44.3654 35.4847 44.0936 35.009 43.7538C34.3974 45.181 33.5818 46.4722 32.7663 47.6955C33.9216 48.2392 35.1449 48.7829 36.2323 49.4625C36.776 49.8023 37.5915 49.9383 38.2032 50.0062C38.6789 50.0742 39.6983 49.9383 40.1741 49.8703C44.1838 49.5305 49.8246 46.88 50.776 46.88C51.1158 46.88 51.4556 46.948 51.8634 47.0159C52.2032 47.0159 52.611 46.948 52.9508 46.88C53.0188 46.88 53.1547 46.812 53.2226 46.7441C53.2906 46.7441 53.2906 46.7441 53.3586 46.7441C53.4265 46.7441 53.4945 46.6761 53.5624 46.6082C53.6304 46.5402 53.6304 46.4722 53.6304 46.4043C53.6304 46.3363 53.5624 46.2684 53.4265 46.2004C53.5624 46.2004 53.6984 46.2004 53.7663 46.0645C53.8343 45.9965 53.9023 45.8606 53.9023 45.7247C53.9023 45.5887 53.8343 45.4528 53.6984 45.4528H53.6304V45.3849C53.4945 45.2489 53.5624 45.2489 53.5624 45.181Z" fill="#D39D81"/>
<path d="M20.9408 70.6016C21.5524 70.6695 22.232 71.4171 22.6398 71.8249C23.1835 72.3006 23.8631 72.3686 24.4068 72.6404C23.8631 73.5239 23.9311 75.019 23.3874 75.9705C23.0476 75.4948 21.5524 75.8346 21.0087 76.1744C20.465 76.5142 19.7854 76.922 19.3097 77.3977C18.834 77.8734 17.9505 78.4851 17.3388 78.553C17.1349 78.621 16.931 78.553 16.7272 78.4851C16.6592 78.4171 16.3874 78.2132 16.3194 78.1453L20.9408 70.6016Z" fill="#233865"/>
<path d="M32.4944 60.4023C33.5138 63.8684 35.5527 65.6354 37.4556 68.4218C39.6304 71.548 41.2614 73.9946 39.2906 76.9849C36.0964 77.8684 36.2323 78.2082 32.9022 77.9363C29.5721 77.6645 26.3099 77.0529 22.9798 76.4412C22.9119 74.9461 22.9798 73.4509 23.1158 71.9558C26.5818 72.2956 30.0478 72.3635 33.4459 72.1596C28.6206 70.2567 24.8828 65.7713 23.9993 60.6742C26.7177 60.6062 29.8439 60.6742 32.4944 60.4023Z" fill="#077F93"/>
<path d="M17.8827 72.9766C18.4943 73.0445 19.1739 73.7921 19.5817 74.1999C20.1254 74.6756 20.805 74.7436 21.3487 75.0154C20.805 75.8989 20.873 77.394 20.3293 78.3455C19.9895 77.8698 18.4943 78.2096 17.9506 78.5494C17.4069 78.8892 16.7273 79.297 16.2516 79.7727C15.7759 80.2484 14.8924 80.8601 14.2807 80.928C14.0768 80.996 13.8729 80.928 13.6691 80.8601C13.6011 80.7921 13.3293 80.5882 13.2613 80.5203L17.8827 72.9766Z" fill="#233865"/>
<path d="M31.6109 60.543C28.9604 60.9507 24.3391 61.0867 21.6206 61.1546C21.8245 64.7566 23.5915 68.2906 26.3779 70.6012C28.8925 72.708 30.8634 73.7275 33.242 75.9702C28.4168 76.1741 24.8148 75.6983 20.1934 74.2032C19.9216 76.1061 19.9216 78.077 20.1934 79.9799C26.9216 79.9119 29.6401 82.5624 37.6595 80.8634C38.543 80.0479 40.31 78.3488 39.9702 77.3294C38.9508 74.2711 37.8634 72.3682 35.7566 69.1061C33.9216 66.3197 32.0187 63.8051 31.6109 60.543Z" fill="#0093B7"/>
<path d="M29.2323 40.967C29.1644 40.4913 28.9605 40.0156 28.5527 39.8117C28.2809 39.6758 27.9411 39.6758 27.6013 39.6758C26.4459 39.7437 25.2226 39.8117 24.2032 40.4234C23.9993 40.5593 23.7954 40.6952 23.7954 40.8991C23.7275 41.1709 23.9993 41.3748 24.2032 41.5107C25.3585 42.2583 26.7857 42.5981 28.145 42.9379C28.4168 43.0059 28.8246 43.0738 29.0285 42.87C29.1644 42.734 29.2323 42.5302 29.2323 42.3263C29.3683 41.9185 29.3003 41.4428 29.2323 40.967Z" fill="#C9433D"/>
<path d="M28.9605 39.9536C30.5916 41.9245 31.4071 44.507 31.6789 47.0895C32.0188 49.672 31.8828 52.2546 32.0188 54.8371C32.1547 57.4196 32.5624 60.0701 33.7857 62.3128C29.912 63.0604 25.9022 63.1963 21.9605 62.7886C21.6886 62.7886 21.4168 62.7206 21.2129 62.5167C20.9411 62.2449 20.9411 61.7692 20.9411 61.4293C21.077 58.6429 20.3974 55.8565 19.9896 53.0701C19.5818 50.2837 19.5818 46.8856 20.7372 44.3031C22.0284 41.5167 25.4265 38.7982 27.6013 39.6138L28.9605 39.9536Z" fill="#F96A57"/>
<path d="M22.0963 45.9996C21.5526 46.3394 21.4847 47.0869 21.4167 47.7666C21.2128 51.3005 21.4847 54.9025 22.5041 58.3006C22.5721 58.5724 22.708 58.9122 22.9119 59.0481C23.1837 59.252 23.5915 59.184 23.8633 58.9802C24.1352 58.7763 24.339 58.4365 24.475 58.1646C25.4264 56.3976 25.8342 54.4268 26.0381 52.3879C26.106 51.2326 26.106 50.0093 25.7662 48.8539C25.4264 47.6986 24.6789 46.6792 23.6594 46.1355C23.2517 45.7957 22.5721 45.6598 22.0963 45.9996Z" fill="#C9433D"/>
<path d="M33.7857 62.3099C32.5624 60.0672 32.2905 57.4167 32.1546 54.8342C32.0866 53.407 32.0187 50.9604 31.9507 49.5332C30.1157 50.6885 27.3973 51.7759 26.3099 53.8827C25.4944 55.0381 25.6983 57.4167 25.2905 58.572C24.6109 60.407 23.4555 61.0866 22.5041 62.7856C26.242 63.1934 30.0478 63.0575 33.7857 62.3099Z" fill="#0093B7"/>
<path d="M25.6983 44.1648C24.8828 43.4172 23.7954 42.8055 22.708 42.6696C22.1643 42.6017 21.4847 42.6017 21.1449 43.4172C22.0964 43.0094 23.1837 43.2133 24.0672 43.757C24.9507 44.3007 25.5624 45.1162 26.1061 45.9997C27.2614 47.9706 27.8731 50.3492 27.8051 52.6599C28.2129 52.592 28.3488 52.8638 28.5527 52.524C28.6886 52.1842 28.6206 51.6405 28.5527 51.2327C28.5527 50.0094 28.0769 48.0386 27.5333 46.9512C26.9896 45.7279 26.5818 44.9803 25.6983 44.1648Z" fill="#0093B7"/>
<path d="M28.553 42.0541C28.689 41.9861 28.689 41.8502 28.689 41.7142C28.8928 40.2191 29.0288 38.7919 29.2326 37.2968C28.1453 37.2968 27.1259 36.6851 26.1064 36.2773C25.4268 38.588 24.6792 39.0638 23.9996 40.6948C25.4268 41.1706 26.7181 42.122 28.2132 42.122C28.4171 42.122 28.4851 42.122 28.553 42.0541Z" fill="#D39D81"/>
<path d="M26.9899 36.6172C26.5822 38.5201 27.3977 40.0153 28.8928 40.6269C29.0288 39.5395 29.1647 38.4521 29.3006 37.2968C28.4851 37.2288 27.7375 36.889 26.9899 36.6172Z" fill="#233865"/>
<path d="M28.9609 30.2305C28.2812 30.2305 27.6016 30.4344 27.0579 30.8421C26.4463 31.3178 26.0385 31.9975 25.7667 32.6771C25.223 34.3081 25.5628 36.2111 26.5822 37.5703C27.6016 38.9295 29.3007 39.745 31.0677 39.6771C31.8832 38.3179 32.6987 36.8907 32.9706 35.3955C33.2424 33.8324 32.8346 32.0654 31.6113 31.114C30.8638 30.4344 29.9123 30.2305 28.9609 30.2305Z" fill="#D39D81"/>
<path d="M32.2908 30.9791C31.4753 30.2995 30.4558 29.9596 29.4364 29.8917C28.6888 29.8237 27.9413 29.9596 27.3296 30.3674C26.718 30.7072 26.2422 31.3189 25.9704 31.9985C25.2908 33.4936 25.3587 35.2606 26.1743 36.6878C26.2422 36.416 26.3782 36.2121 26.5141 36.0082C26.4461 35.9402 26.3782 35.8043 26.3782 35.6684C26.3102 35.3286 26.3102 34.9208 26.4461 34.581C26.5141 34.3771 26.582 34.1053 26.7859 34.0373C27.0578 33.9014 27.3976 34.0373 27.5335 34.2412C27.6694 34.3771 27.7374 34.581 27.7374 34.7849C28.349 34.3771 28.9607 33.9014 29.3685 33.2898C30.7277 33.6975 31.5432 33.9014 32.9704 33.6975C32.9704 32.7461 33.1063 31.6587 32.2908 30.9791Z" fill="#233865"/>
<path d="M33.4462 31.1834C33.2423 30.7076 32.7666 30.2999 32.2909 30.096C31.0676 29.4164 29.6404 29.2805 28.2132 29.1445C27.0579 29.6882 26.1744 30.7076 25.7666 31.9309C26.7181 32.8824 28.0093 33.562 29.3685 33.9018C30.7278 34.2416 32.087 34.2416 33.4462 34.1737C33.3103 33.1542 33.786 32.0669 33.4462 31.1834Z" fill="#C9433D"/>
<path d="M34.8734 35.4623C35.0093 35.4623 35.0773 35.5302 35.2132 35.5302C35.3491 35.5302 35.485 35.5302 35.485 35.3943C35.553 35.2584 35.4171 35.1225 35.2811 34.9865C34.3297 34.3069 33.3103 33.6273 32.1549 33.4234C30.8637 33.2195 29.5724 33.6273 28.2811 33.3555C28.4171 33.6273 28.6889 33.8312 28.9607 33.9671C29.6404 34.3749 30.32 34.7827 30.9996 35.1225C31.4753 35.3943 31.8831 35.6662 32.3588 35.8021C32.8345 35.938 33.3782 36.006 33.854 35.8021C34.1938 35.6662 34.5336 35.3943 34.8734 35.4623Z" fill="#F96A57"/>
<path d="M50.1645 47.0851L52.2033 45.1822C52.4072 44.9783 52.747 44.9783 53.0189 45.1143L54.0383 45.9298C54.2422 46.0657 54.2422 46.3376 54.1062 46.5414L53.6305 47.1531L52.9509 46.7453L53.2227 46.2696L52.6111 45.7939L50.7761 47.8327L50.1645 47.0851Z" fill="#F96A57"/>
<path d="M52.3393 47.7659L50.9121 46.4066C50.7762 46.2707 50.5043 46.2707 50.3005 46.4066L48.2616 48.2416C48.6694 48.6494 48.6694 49.329 48.1937 49.6688C46.1548 51.3678 44.048 53.0668 42.0092 54.7659C41.3975 55.2416 40.7179 55.8532 40.514 56.6008C40.4461 56.8727 40.4461 57.1445 40.514 57.4164C40.582 57.6882 40.8538 57.8921 41.1257 57.96C41.5335 58.028 41.9412 57.6882 42.2131 57.4164C44.4558 55.0377 46.7665 52.727 49.0092 50.3484C49.417 49.9406 50.0286 49.9406 50.4364 50.2804L52.2713 48.4455C52.5432 48.2416 52.5432 47.9697 52.3393 47.7659Z" fill="#233865"/>
<path d="M50.4606 46.8204L49.1469 48.002L49.6013 48.5072L50.9151 47.3257L50.4606 46.8204Z" fill="#F96A57"/>
<path d="M26.174 47.491C25.9022 46.5396 25.6303 45.5881 25.0187 44.7726C24.407 43.957 23.4556 43.4133 22.5041 43.6172C21.6206 43.8211 21.009 44.6366 20.8051 45.5201C20.6012 46.4036 20.7371 47.2871 21.009 48.1706C21.5526 50.2095 22.3682 52.1124 23.4556 53.8794C24.7468 53.1318 26.174 52.2483 27.6692 51.5007C27.0575 50.2095 26.5818 48.8502 26.174 47.491Z" fill="#F96A57"/>
<path d="M45.6108 53.2014C45.339 52.9975 44.9992 52.8616 44.7273 52.6577C44.4555 52.4538 44.0477 52.3179 43.7759 52.4538C43.7079 52.5218 43.6399 52.5218 43.504 52.5897C43.1642 52.7257 42.8924 52.3858 42.5526 52.3858C42.2807 52.3858 42.0768 52.5218 41.8729 52.7257C41.6691 52.9295 41.3972 53.0655 41.1254 53.1334C40.3778 53.3373 39.6302 53.4053 38.8827 53.5412C38.203 53.6771 37.5234 53.813 36.7759 53.881C35.2127 54.1528 33.7176 54.4247 32.1545 54.5606C31.6108 54.6286 31.0671 54.6965 30.5234 54.6965C30.3875 54.6965 29.0283 54.8325 29.0283 54.6965C28.5525 53.6771 28.0768 52.6577 27.669 51.5703C26.1739 52.3179 24.7467 53.2014 23.4554 53.949C24.4069 55.58 25.4943 57.1431 26.5817 58.7062C26.8535 59.0461 27.1254 59.4538 27.5331 59.6577C28.2127 59.9975 29.0962 59.7936 29.8438 59.5897C33.3098 58.5703 36.7079 57.347 40.038 56.0558C40.3778 55.9878 40.6496 55.8519 40.6496 55.9198C40.7856 55.9198 40.8535 55.9878 40.9895 56.0558C41.1933 56.1917 41.3972 56.3276 41.6011 56.4635C41.8729 56.5994 42.1448 56.5994 42.4166 56.5994C42.9603 56.5994 43.504 56.5994 43.9797 56.5994C44.0477 56.5994 44.1157 56.5994 44.2516 56.5315C44.4555 56.3956 44.3875 56.1237 44.5234 55.9878C44.6594 55.8519 44.9992 55.9878 45.1351 55.8519C45.271 55.7159 45.2031 55.3761 45.339 55.2402C45.4749 55.0363 45.8147 55.0363 45.8147 54.8325C45.8827 54.6286 45.6788 54.4247 45.7467 54.2888C45.7467 54.2208 45.8147 54.2208 45.8147 54.1528C45.8827 54.0849 46.0186 54.0169 46.0186 53.881C46.0865 53.4732 45.8147 53.3373 45.6108 53.2014Z" fill="#D39D81"/>
<path d="M50.4122 47.3897L50.1852 47.6426L50.9439 48.3235L51.1709 48.0707L50.4122 47.3897Z" fill="#F96A57"/>
<path d="M52.407 50.3459L51.7953 49.3265L52.407 48.375H53.4944L54.0381 49.3265L53.4944 50.3459H52.407Z" fill="#F96A57"/>
<path d="M86.9316 27.6462C86.4559 25.9472 85.9802 24.2481 85.0967 22.753C84.2132 21.2578 83.8054 20.4423 81.9705 19.8306C80.1355 19.219 76.3976 19.219 75.1064 20.5103C74.1549 21.4617 73.8151 22.753 73.8831 23.9763C73.951 25.1996 74.2908 26.4229 74.6306 27.6462C76.2617 33.219 77.3491 38.9278 77.8248 44.6365C81.3588 45.9957 85.7083 45.2482 88.4947 42.8015C89.1064 42.2579 89.6501 41.6462 89.786 40.8986C89.9219 40.219 89.718 39.5394 89.5821 38.8598C88.4947 35.3258 87.9511 31.3161 86.9316 27.6462Z" fill="#F96A57"/>
<path d="M91.6886 87.2496C91.8925 86.6379 91.4847 85.5505 91.3488 84.9389C91.2129 84.2593 90.5333 83.7835 90.6012 83.1719C89.6498 83.1719 88.8342 83.3758 87.8828 83.3758C88.0867 83.9194 87.6109 84.5311 87.0672 84.8029C86.5236 85.0748 85.8439 85.2107 85.2323 85.3466C84.6206 85.4826 83.941 85.6864 83.6012 86.1622C83.4653 86.2981 83.3973 86.502 83.3973 86.7059C83.3973 86.7738 83.3973 87.1816 83.4653 87.2496H91.6886Z" fill="#233865"/>
<path d="M88.8343 41.5115C90.3294 45.1814 89.9896 49.2591 89.242 53.1329C88.5624 57.0067 87.475 60.8805 87.543 64.7543C87.6789 71.2786 91.077 77.463 91.009 83.9873C89.7857 84.3271 88.8343 85.0747 87.0673 84.599C85.6401 80.9291 84.4168 77.531 82.9896 73.8611C81.7663 70.8028 80.6109 67.6766 80.2032 64.3465C79.3876 57.0747 82.7857 49.6669 80.8828 42.5989C83.3294 41.6475 85.844 40.764 88.2906 39.8125L88.8343 41.5115Z" fill="#077F93"/>
<path d="M80.747 90.1019C81.0188 89.4903 80.679 88.5388 80.611 87.9272C80.4751 87.2475 80.4072 86.7718 80.4751 86.1602C79.3877 86.1602 77.6887 86.1602 76.6013 86.1602C76.8052 86.7038 76.3295 87.3155 75.7178 87.5873C75.1062 87.8592 74.4266 87.9951 73.679 88.131C72.9994 88.267 72.2518 88.4708 71.8441 88.9466C71.7081 89.0825 71.5722 89.2864 71.5722 89.4903C71.5722 89.5582 71.5722 89.966 71.6402 90.0339H80.747V90.1019Z" fill="#233865"/>
<path d="M76.1255 87.0458C78.0285 86.842 79.9993 86.706 81.9023 86.5021C80.543 77.0555 81.6304 67.3371 84.8925 58.4341C85.912 55.7157 87.1353 52.9293 87.4071 50.007C87.611 47.3565 87.0673 44.7739 86.4557 42.1914C83.9411 42.6671 81.3586 42.939 78.776 42.939C78.2323 46.9487 77.6887 50.9584 77.077 54.9681C76.4654 59.4536 75.8537 63.871 75.7857 68.4244C75.7178 74.6089 76.8731 80.8614 76.1255 87.0458Z" fill="#0093B7"/>
<path d="M82.3779 20.509C80.475 20.7128 78.6401 21.2565 77.009 22.0721C76.941 20.5769 76.3974 19.0818 75.5139 17.7905C76.6692 17.9264 77.5527 17.2468 78.6401 16.7031C79.3877 18.0624 81.0867 19.5575 82.3779 20.509Z" fill="#D39D81"/>
<path d="M75.3101 15.2793C75.0382 14.8716 74.4946 14.6677 74.0188 14.5997C73.5431 14.5317 72.9994 14.6677 72.5237 14.8716C72.2518 14.9395 71.912 15.0754 71.7761 15.4152C71.7081 15.6191 71.7081 15.823 71.6402 16.0269C71.5722 17.1143 70.8926 18.0657 70.8246 19.1531C70.8246 19.425 70.8926 19.8327 71.1645 19.9686C71.4363 20.1046 71.7081 19.9007 71.98 19.7648C72.4557 19.4929 72.9314 19.357 73.4751 19.289C73.9509 19.2211 74.4266 19.2211 74.7664 18.8813C75.0382 18.6094 75.1742 18.2696 75.3101 17.8619C75.446 17.4541 75.5819 17.0463 75.5819 16.5706C75.6499 16.0949 75.5819 15.6191 75.3101 15.2793Z" fill="#F96A57"/>
<path d="M75.7857 11.5414C74.9022 11.4735 73.9508 11.7453 73.2712 12.357C72.1158 13.3084 71.776 15.0075 71.9119 16.5026C72.1158 18.1337 72.7954 19.6288 73.8828 20.7842C74.1547 21.056 74.4265 21.3279 74.8343 21.3279C75.0381 21.3279 75.1741 21.2599 75.378 21.1919C76.6692 20.5803 77.8246 19.6288 78.5721 18.3376C79.3197 17.1143 79.5236 15.5512 79.0479 14.1919C78.4362 12.7647 77.2129 11.6774 75.7857 11.5414Z" fill="#D39D81"/>
<path d="M72.048 15.4824C72.1159 16.0261 72.5237 16.5698 73.0674 16.7057C73.0674 16.5019 72.9994 16.3659 73.0674 16.1621C73.0674 15.9582 73.2033 15.8223 73.3392 15.7543C73.6111 15.6184 73.8829 15.7543 74.0868 16.0261C74.3587 16.3659 74.4946 16.8417 74.4266 17.2494C75.1742 17.4533 75.9897 17.3174 76.7373 17.3174C77.4849 17.2494 78.3684 17.2494 78.98 17.7252C79.5917 16.0941 79.2519 14.1912 78.2324 12.832C78.0286 12.5601 77.7567 12.2883 77.4849 12.2203C77.281 12.1523 77.0091 12.1523 76.7373 12.1523C75.7858 12.1523 74.7664 12.2883 73.8829 12.764C72.9994 13.2397 72.3198 14.1232 72.2519 15.0747L72.048 15.4824Z" fill="#233865"/>
<path d="M76.3294 10.723C75.9216 10.5871 75.4459 10.655 74.9702 10.723C74.2906 10.8589 73.611 11.0628 73.0673 11.4026C72.4556 11.7424 71.9799 12.2182 71.6401 12.8298C71.3003 13.4415 71.1644 14.257 71.2323 14.9366C71.3003 15.6842 71.5042 16.3638 71.844 17.0434C72.3877 16.2958 72.9314 15.4803 73.543 14.8007C74.1547 14.1211 74.9022 13.5094 75.7857 13.1017C76.6692 12.7618 77.6207 12.6259 78.5721 12.9657C78.3003 12.422 77.8246 11.9463 77.4168 11.5385C77.077 11.1987 76.7372 10.8589 76.3294 10.723Z" fill="#C9433D"/>
<path d="M83.7377 24.3862C83.8057 23.1629 83.5338 21.9396 82.7863 20.9202C82.3785 20.3765 81.8348 19.9688 81.1552 19.9688C80.3397 20.0367 79.796 20.8522 79.4562 21.5998C78.5727 23.6387 77.961 25.7455 77.0775 27.7843C78.4367 29.4833 80.0678 29.8231 81.7668 29.7552C82.1066 29.1435 82.4465 28.4639 82.7183 27.7843C83.33 26.8328 83.6698 25.6095 83.7377 24.3862Z" fill="#F96A57"/>
<path d="M77.1447 27.918C77.0767 28.1219 77.0088 28.3257 76.9408 28.4617C75.1738 32.4714 72.7272 36.0733 69.2612 38.7918C68.9893 38.7918 68.4456 38.9957 68.1738 39.0636C67.834 39.1995 67.6981 39.4714 67.5621 39.7432C67.2903 40.219 67.0184 40.7626 66.6107 41.1025C66.4068 41.2384 66.2029 41.3743 65.999 41.5102C65.8631 41.5782 65.3874 41.7141 65.3874 41.85C65.3194 41.9859 65.3874 42.1219 65.5233 42.1898C65.6592 42.2578 65.7272 42.2578 65.8631 42.3258C66.2709 42.3937 66.6786 42.3937 67.0184 42.4617C67.6301 42.5296 67.9699 42.3258 68.5816 42.2578C68.9214 42.2578 69.1932 42.1898 69.533 42.1219C70.0767 41.918 70.5524 41.5102 70.8922 40.9665C71.232 40.4908 71.7078 40.219 71.9117 39.6753C75.6495 36.7529 79.6592 33.8306 81.9699 29.8209C80.067 29.9568 78.5039 29.617 77.1447 27.918Z" fill="#D39D81"/>
<path d="M86.8632 27.5817C86.3874 25.8827 85.9117 24.1837 85.0282 22.6885C84.1447 21.1934 83.7369 20.3778 81.902 19.7662C80.067 19.1545 76.3292 19.1545 75.0379 20.4458C74.0864 21.3973 73.7466 22.6885 73.8146 23.9118C73.8826 25.1351 74.2224 26.3584 74.5622 27.5817C76.1932 33.1546 77.2806 38.8633 77.7563 44.572C81.2903 45.9313 85.6399 45.1837 88.4263 42.7371C89.0379 42.1934 89.5816 41.5818 89.7175 40.8342C89.8535 40.1546 89.6496 39.475 89.5136 38.7953C88.4263 35.2614 87.9505 31.2516 86.8632 27.5817Z" fill="#F96A57"/>
<path d="M79.9992 27.5131C79.9312 26.2897 79.7953 25.1344 79.3196 23.9791C78.8439 22.8917 78.0283 21.8723 76.9409 21.3286C76.5332 21.1247 76.0574 20.9888 75.7176 21.1927C75.3778 21.3286 75.174 21.6004 75.038 21.9402C74.5623 22.8917 74.3584 24.047 74.4264 25.1344C74.4943 26.2218 74.7662 27.3092 74.9701 28.3286C75.5138 30.5713 76.0575 32.814 76.6011 35.0568C77.8924 34.4451 78.8439 33.2218 79.3876 31.8626C79.9312 30.4354 79.9992 28.9402 79.9992 27.5131Z" fill="#C9433D"/>
<path d="M78.0965 37.2973C77.8247 37.3652 77.6208 37.5012 77.4849 37.773C76.7373 34.1031 75.9897 30.3652 75.514 26.6274C75.3101 25.2002 75.1742 23.705 75.2422 22.2099C75.2422 21.7342 75.3101 21.2584 75.514 20.7827C75.7179 20.307 75.9897 19.8992 76.3975 19.6953C76.0577 25.6079 77.0771 31.5206 78.0965 37.2973Z" fill="#0093B7"/>
<path d="M83.7373 42.2624C80.2033 42.2624 78.4363 37.9809 77.7567 34.4469C77.281 34.4469 77.0091 34.175 76.4655 34.7187C77.1451 38.0488 77.1451 41.5148 77.4849 44.8449C81.0189 46.2042 85.8441 45.2527 88.5626 42.8741C89.1062 42.3983 89.582 41.8546 89.7859 41.175C87.9509 42.1945 85.98 42.6022 83.7373 42.2624Z" fill="#0093B7"/>
<path d="M89.6499 41.3758C89.6499 41.3078 89.7858 40.8321 89.7858 40.7641C88.9703 38.5214 88.1548 36.3466 87.2713 34.1039C85.912 30.5699 84.5528 26.968 82.378 23.9097C81.2907 22.4146 79.6596 21.3272 78.5042 19.8321C78.1644 19.3563 77.7567 19.4243 77.4169 19.6282C80.4751 22.6185 82.9217 26.2204 84.8246 30.0942C86.5916 33.7641 87.8829 37.9777 89.2421 41.7835C89.446 41.5117 89.514 41.5117 89.6499 41.3758Z" fill="#0093B7"/>
<path d="M84.8924 23.3661C84.8245 22.7544 84.6886 22.0748 84.4167 21.5311C84.1449 20.9874 84.0769 20.7156 83.4653 20.5117C84.8924 23.502 84.4167 26.2205 84.6206 29.5506C84.8924 34.104 84.2808 39.337 83.0575 43.7545C83.4653 43.6865 84.9604 43.4147 85.3682 43.4147C85.5721 36.6865 85.8439 29.9583 84.8924 23.3661Z" fill="#0093B7"/>
<path d="M75.8536 30.8435C73.9506 30.7075 72.3196 30.0959 71.0963 28.125C70.9603 28.3289 70.8924 28.5328 70.7565 28.7367C68.3778 32.8823 64.9798 36.4163 60.9021 38.9988C60.5623 38.9988 60.2225 38.9988 59.8827 38.9308C59.5429 38.9308 59.2031 38.8629 58.8632 38.9988C58.4555 39.0668 58.1157 39.2706 57.7759 39.4066C57.3681 39.5425 57.3681 39.5425 56.9603 39.6784C56.8244 39.7464 56.6885 39.7464 56.6205 39.8823C56.5526 39.9503 56.4846 40.1541 56.5526 40.2221C56.6205 40.358 56.7564 40.358 56.8924 40.358C57.2322 40.358 57.1642 40.494 57.504 40.426C58.3196 40.1541 58.7953 40.2221 59.2031 40.426C58.4555 41.1736 57.504 41.7173 56.4166 42.0571C56.3487 42.193 56.4166 42.3289 56.4846 42.3969C56.5526 42.4648 56.6885 42.5328 56.8244 42.6007C57.2322 42.7367 57.6399 42.8046 58.0477 42.8726C58.7273 43.0085 59.0671 42.8046 59.7467 42.8726C60.0865 42.8726 60.4264 42.9406 60.7662 42.8726C61.3778 42.7367 61.9215 42.3289 62.3972 41.7852C62.805 41.3095 63.4167 41.1056 63.6885 40.4939C68.2419 37.6396 72.9312 34.9891 75.8536 30.8435Z" fill="#D39D81"/>
<path d="M78.7079 24.9958C78.9117 23.6366 78.7758 22.1415 78.1642 20.9861C77.8244 20.3745 77.2127 19.7628 76.5331 19.6949C75.5816 19.6269 74.902 20.5783 74.4263 21.3259C73.135 23.5007 72.1836 25.8793 70.9603 28.0541C72.1836 30.1609 73.9506 30.7046 75.9214 30.9085C76.3972 30.2288 76.8729 29.5492 77.2807 28.8017C77.8923 27.6463 78.504 26.3551 78.7079 24.9958Z" fill="#F96A57"/>
<path d="M55.8733 75.286H41.7373V69.1016H55.8733V75.286ZM42.4169 74.6064H55.1936V69.7812H42.4169V74.6064Z" fill="#233865"/>
<path d="M54.922 72.0234H42.8249L41.1938 75.5574V80.1108H56.5531V75.5574L54.922 72.0234Z" fill="#F96A57"/>
<path d="M53.3588 68.6289H44.5918V70.26H53.3588V68.6289Z" fill="#F96A57"/>
<path d="M56.145 75.4219H41.8052V75.8296H56.145V75.4219Z" fill="#233865"/>
<path d="M49.4849 78.6854H48.4655C47.9898 78.6854 47.65 78.3456 47.65 77.8699V74.8116C47.65 74.3359 47.9898 73.9961 48.4655 73.9961H49.4849C49.9606 73.9961 50.3005 74.3359 50.3005 74.8116V77.8699C50.3005 78.2777 49.9606 78.6854 49.4849 78.6854ZM48.5335 74.6077C48.4655 74.6077 48.3975 74.6757 48.3975 74.7437V77.8019C48.3975 77.8699 48.4655 77.9378 48.5335 77.9378H49.5529C49.6208 77.9378 49.6888 77.8699 49.6888 77.8019V74.7437C49.6888 74.6757 49.6208 74.6077 49.5529 74.6077H48.5335Z" fill="#233865"/>
</svg>
